<svg width="240" height="178" viewBox="0 0 240 178" fill="none" xmlns="http://www.w3.org/2000/svg">
<rect width="238" height="173" transform="translate(1 1)" fill="white"/>
<path fill-rule="evenodd" clip-rule="evenodd" d="M239 3C239 1.89543 238.105 1 237 1H3C1.89543 1 1 1.89543 1 3V172C1 173.105 1.89543 174 3 174H114.731C115.237 174 115.724 174.192 116.094 174.536L118.248 176.542C119.036 177.276 120.264 177.254 121.025 176.493L122.932 174.586C123.307 174.211 123.816 174 124.346 174H237C238.105 174 239 173.105 239 172V3Z" fill="black"/>
<path d="M122.932 174.586L123.286 174.939L122.932 174.586ZM118.248 176.542L118.589 176.176L118.248 176.542ZM121.025 176.493L120.672 176.139L121.025 176.493ZM116.094 174.536L115.753 174.902L116.094 174.536ZM3 1.5H237V0.5H3V1.5ZM1.5 172V3H0.5V172H1.5ZM114.731 173.5H3V174.5H114.731V173.5ZM115.753 174.902L117.908 176.908L118.589 176.176L116.435 174.17L115.753 174.902ZM121.379 176.846L123.286 174.939L122.579 174.232L120.672 176.139L121.379 176.846ZM237 173.5H124.346V174.5H237V173.5ZM238.5 3V172H239.5V3H238.5ZM237 174.5C238.381 174.5 239.5 173.381 239.5 172H238.5C238.5 172.828 237.828 173.5 237 173.5V174.5ZM123.286 174.939C123.567 174.658 123.948 174.5 124.346 174.5V173.5C123.683 173.5 123.047 173.763 122.579 174.232L123.286 174.939ZM117.908 176.908C118.893 177.825 120.427 177.798 121.379 176.846L120.672 176.139C120.101 176.71 119.18 176.726 118.589 176.176L117.908 176.908ZM114.731 174.5C115.11 174.5 115.475 174.644 115.753 174.902L116.435 174.17C115.972 173.739 115.363 173.5 114.731 173.5V174.5ZM0.5 172C0.5 173.381 1.61929 174.5 3 174.5V173.5C2.17157 173.5 1.5 172.828 1.5 172H0.5ZM237 1.5C237.828 1.5 238.5 2.17157 238.5 3H239.5C239.5 1.61929 238.381 0.5 237 0.5V1.5ZM3 0.5C1.61929 0.5 0.5 1.61928 0.5 3H1.5C1.5 2.17157 2.17157 1.5 3 1.5V0.5Z" fill="#B9B9B9"/>
</svg>
