<svg width="41" height="41" viewBox="0 0 41 41" fill="none" xmlns="http://www.w3.org/2000/svg">
<path d="M22.3788 0.0862778C18.2695 -0.291926 14.1418 0.578847 10.5355 2.5847C6.92912 4.59056 4.0121 7.63811 2.16593 11.3287C0.319762 15.0194 -0.369598 19.1813 0.188016 23.2701C0.745629 27.3589 2.52426 31.1842 5.29125 34.2457C8.05825 37.3072 11.6848 39.4624 15.6966 40.4293C19.7083 41.3962 23.9185 41.1299 27.7764 39.6652C31.6344 38.2004 34.9604 35.6055 37.3196 32.2197C39.6788 28.8339 40.9612 24.815 40.9991 20.6885L36.4287 20.6465C36.3993 23.8529 35.4028 26.9758 33.5696 29.6067C31.7364 32.2376 29.1519 34.254 26.1541 35.3922C23.1563 36.5304 19.8848 36.7373 16.7675 35.986C13.6502 35.2346 10.8322 33.5599 8.68213 31.181C6.53205 28.8021 5.14997 25.8296 4.71668 22.6525C4.28339 19.4753 4.81906 16.2413 6.25361 13.3735C7.68816 10.5057 9.95482 8.13766 12.7571 6.57902C15.5594 5.02038 18.7668 4.34375 21.9599 4.63763L22.3788 0.0862778Z" fill="white"/>
</svg>
