<svg width="16" height="16" viewBox="0 0 16 16" fill="none" xmlns="http://www.w3.org/2000/svg">
<g clip-path="url(#clip0_1855_36945)">
<path fill-rule="evenodd" clip-rule="evenodd" d="M8.85156 2.49951C8.85162 2.14052 9.14268 1.84955 9.50166 1.84961L13.501 1.85023C13.8599 1.85029 14.1509 2.14123 14.1509 2.50013L14.1516 6.49951C14.1516 6.85849 13.8606 7.14955 13.5017 7.14961C13.1427 7.14967 12.8516 6.8587 12.8516 6.49971L12.851 3.15013L9.50146 3.14961C9.14248 3.14955 8.85151 2.85849 8.85156 2.49951Z" fill="black"/>
<path fill-rule="evenodd" clip-rule="evenodd" d="M13.9612 2.03999C14.215 2.29383 14.215 2.70539 13.9612 2.95923L8.96118 7.95923C8.70734 8.21307 8.29578 8.21307 8.04194 7.95923C7.7881 7.70539 7.7881 7.29383 8.04194 7.03999L13.0419 2.03999C13.2958 1.78615 13.7073 1.78615 13.9612 2.03999Z" fill="black"/>
<path fill-rule="evenodd" clip-rule="evenodd" d="M3.15156 5.14961H7.50156C7.86055 5.14961 8.15156 4.85859 8.15156 4.49961C8.15156 4.14062 7.86055 3.84961 7.50156 3.84961H3.00156C2.69656 3.84961 2.40406 3.97077 2.18839 4.18644C1.97272 4.4021 1.85156 4.69461 1.85156 4.99961V12.9996C1.85156 13.3046 1.97272 13.5971 2.18839 13.8128C2.40406 14.0285 2.69656 14.1496 3.00156 14.1496H11.0016C11.3066 14.1496 11.5991 14.0285 11.8147 13.8128C12.0304 13.5971 12.1516 13.3046 12.1516 12.9996V8.49961C12.1516 8.14062 11.8605 7.84961 11.5016 7.84961C11.1426 7.84961 10.8516 8.14062 10.8516 8.49961V12.8496H3.15156V5.14961Z" fill="black"/>
</g>
<defs>
<clipPath id="clip0_1855_36945">
<rect width="16" height="16" fill="white"/>
</clipPath>
</defs>
</svg>
