<svg width="20" height="20" viewBox="0 0 20 20" fill="none" xmlns="http://www.w3.org/2000/svg">
<path d="M10.0156 0.110352C8.08726 0.110352 6.2022 0.682179 4.59882 1.75352C2.99544 2.82487 1.74576 4.34761 1.0078 6.12919C0.26985 7.91077 0.076767 9.87117 0.452973 11.7625C0.829179 13.6538 1.75778 15.3911 3.12134 16.7546C4.4849 18.1182 6.22218 19.0468 8.1135 19.423C10.0048 19.7992 11.9652 19.6061 13.7468 18.8682C15.5284 18.1302 17.0511 16.8805 18.1225 15.2772C19.1938 13.6738 19.7656 11.7887 19.7656 9.86035C19.7629 7.27533 18.7348 4.79696 16.9069 2.96908C15.079 1.14119 12.6007 0.113081 10.0156 0.110352ZM9.64063 4.61035C9.86313 4.61035 10.0806 4.67633 10.2656 4.79995C10.4507 4.92356 10.5948 5.09927 10.68 5.30483C10.7651 5.5104 10.7874 5.7366 10.744 5.95483C10.7006 6.17306 10.5935 6.37351 10.4361 6.53085C10.2788 6.68818 10.0783 6.79533 9.86011 6.83874C9.64188 6.88214 9.41568 6.85986 9.21011 6.77472C9.00454 6.68957 8.82884 6.54537 8.70523 6.36037C8.58161 6.17536 8.51563 5.95786 8.51563 5.73535C8.51563 5.43698 8.63416 5.15083 8.84513 4.93986C9.05611 4.72888 9.34226 4.61035 9.64063 4.61035ZM10.7656 15.1104C10.3678 15.1104 9.98627 14.9523 9.70497 14.671C9.42367 14.3897 9.26563 14.0082 9.26563 13.6104V9.86035C9.06672 9.86035 8.87595 9.78133 8.7353 9.64068C8.59465 9.50003 8.51563 9.30926 8.51563 9.11035C8.51563 8.91144 8.59465 8.72067 8.7353 8.58002C8.87595 8.43937 9.06672 8.36035 9.26563 8.36035C9.66345 8.36035 10.045 8.51839 10.3263 8.79969C10.6076 9.081 10.7656 9.46253 10.7656 9.86035V13.6104C10.9645 13.6104 11.1553 13.6894 11.296 13.83C11.4366 13.9707 11.5156 14.1614 11.5156 14.3604C11.5156 14.5593 11.4366 14.75 11.296 14.8907C11.1553 15.0313 10.9645 15.1104 10.7656 15.1104Z" fill="white"/>
</svg>
