<svg width="1920" height="631" viewBox="0 0 1920 631" fill="none" xmlns="http://www.w3.org/2000/svg">
<path opacity="0.05" d="M-499.656 25.5929V27.435C-504.038 27.8665 -507.622 28.7461 -510.411 30.0738C-513.166 31.3683 -515.904 33.3599 -518.626 36.0484C-521.314 38.737 -523.555 41.7409 -525.347 45.0601C-527.106 48.3462 -528.583 52.2628 -529.778 56.8102C-524.999 53.5242 -520.202 51.8811 -515.389 51.8811C-510.776 51.8811 -506.776 53.7399 -503.39 57.4574C-500.005 61.175 -498.312 65.9547 -498.312 71.7965C-498.312 77.4392 -500.021 82.584 -503.44 87.2309C-507.556 92.8736 -513 95.6949 -519.771 95.6949C-524.385 95.6949 -528.301 94.1681 -531.521 91.1144C-537.827 85.173 -540.981 77.4724 -540.981 68.0126C-540.981 61.9716 -539.769 56.2293 -537.346 50.7858C-534.923 45.3423 -531.471 40.5128 -526.99 36.2974C-522.476 32.0819 -518.161 29.244 -514.045 27.7835C-509.929 26.3231 -506.096 25.5929 -502.544 25.5929H-499.656ZM-530.625 60.4447C-531.222 64.9257 -531.521 68.5437 -531.521 71.2986C-531.521 74.4851 -530.94 77.9537 -529.778 81.7044C-528.583 85.4219 -526.824 88.376 -524.501 90.5667C-522.808 92.1268 -520.75 92.9068 -518.327 92.9068C-515.439 92.9068 -512.867 91.5459 -510.61 88.8241C-508.319 86.1024 -507.174 82.2189 -507.174 77.1736C-507.174 71.4978 -508.303 66.5853 -510.56 62.4363C-512.817 58.2872 -516.02 56.2127 -520.169 56.2127C-521.43 56.2127 -522.791 56.4783 -524.252 57.0093C-525.679 57.5404 -527.803 58.6856 -530.625 60.4447ZM-371.67 2.78977C-340.536 4.54896 -323.143 16.1497 -319.492 37.5919V48.4955L-323.824 98.4831L-295.693 99.2797C-294.034 99.6116 -291.992 99.2133 -289.569 98.0848L-286.333 98.6325C-285.005 102.383 -284.972 106.383 -286.233 110.631L-288.872 111.826C-290.864 110.2 -295.726 109.387 -303.46 109.387L-328.653 108.54C-334.561 109.105 -337.1 106.615 -336.271 101.072L-332.138 49.2921L-332.537 39.434C-335.59 23.0702 -350.759 14.7556 -378.043 14.49C-402.639 14.0917 -419.384 23.2528 -428.28 41.9732C-432.761 51.5658 -433.474 62.4363 -430.421 74.5847L-422.156 95.0477C-420.197 98.8316 -420.778 101.437 -423.898 102.864H-467.413L-474.135 102.217C-474.467 96.4418 -473.753 92.857 -471.994 91.4629L-468.509 91.2638C-467.081 93.3549 -463.629 94.2511 -458.153 93.9523L-445.158 94.1017L-436.246 93.0064L-443.515 70.2531C-445.009 64.4776 -445.274 58.7851 -444.312 53.1756C-442.021 36.5131 -432.943 22.5392 -417.077 11.2538C-406.19 4.54896 -391.055 1.72762 -371.67 2.78977ZM-222.972 6.32475L-223.022 2.83956L-209.28 2.78977L-208.932 6.12559C-211.222 7.75201 -211.869 11.6687 -210.874 17.8757C-209.878 24.0494 -197.066 40.1809 -172.437 66.27C-170.811 67.6973 -169.333 67.6309 -168.006 66.0708C-162.463 58.2707 -155.725 46.6368 -147.792 31.1692C-139.859 15.7016 -137.22 7.3703 -139.875 6.17538L-139.826 2.98892L-126.184 2.73998L-126.333 7.12136C-128.424 8.54863 -128.723 13.9922 -127.229 23.452C-117.802 39.7494 -109.919 56.8102 -103.58 74.6344C-97.2398 92.4255 -92.7921 101.255 -90.2363 101.122L-89.3899 105.205C-92.2776 107.959 -97.8539 109.868 -106.119 110.93L-108.061 107.893C-106.169 104.142 -108.027 95.3962 -113.637 81.6546C-119.246 67.8798 -125.603 55.5323 -132.706 44.612C-134.764 40.7285 -138.398 43.1018 -143.609 51.7318C-149.617 62.7848 -156.853 73.1242 -165.317 82.75C-167.01 86.2683 -169.748 86.9488 -173.532 84.7913L-210.077 42.1226C-211.903 37.7412 -214.027 37.7744 -216.45 42.2222C-232.78 78.9328 -239.552 98.4167 -236.764 100.674L-238.407 103.562L-254.239 99.4789L-254.488 94.9481C-250.538 93.8196 -243.834 79.0988 -234.374 50.7858C-224.914 22.4728 -221.113 7.65244 -222.972 6.32475ZM-55.2549 2.69019H-51.6204L-35.6383 22.8545L14.9965 84.4925C19.6102 91.6289 23.0456 95.0643 25.3027 94.7987L24.755 75.68C24.9874 29.078 23.7593 5.74388 21.0707 5.6775L21.7677 2.39146L37.6502 2.78977L38.4468 5.87665C36.6877 6.972 35.8081 10.2746 35.8081 15.7845L35.7085 91.3136C35.4429 98.6822 36.14 103.545 37.7996 105.902L36.8038 110.134C32.2565 111.395 27.5598 111.328 22.7137 109.934C17.8676 106.549 12.4905 100.79 6.58226 92.6578C1.03915 85.3887 -9.08449 73.8046 -23.7887 57.9055C-34.7089 44.3299 -41.7789 35.6999 -44.9985 32.0156C-46.8573 31.0862 -47.5875 32.0156 -47.1892 34.8037L-47.9858 64.378C-47.2888 88.4092 -45.679 100.823 -43.1564 101.62L-42.9572 107.096L-59.8853 107.893L-60.0844 101.869C-57.9269 100.11 -57.1967 93.023 -57.8937 80.609C-58.5576 68.1619 -58.5244 52.8769 -57.7941 34.7539C-57.0307 16.5978 -57.7278 6.59028 -59.8853 4.73152C-59.2214 3.37063 -57.678 2.69019 -55.2549 2.69019ZM117.591 69.6058V76.6758H108.529V94.5H100.314V76.6758H71.7354V70.3028L103.052 25.5929H108.529V69.6058H117.591ZM100.314 69.6058V36.0982L76.6147 69.6058H100.314ZM163.476 2.49104H173.184C190.444 1.16335 199.074 6.64007 199.074 18.9212C198.709 33.0611 191.174 43.0022 176.47 48.7445C166.645 51.1343 165.036 52.2297 171.641 52.0305C185.117 53.3582 194.046 57.2915 198.427 63.8304C203.837 72.0952 205.414 80.5925 203.157 89.322C199.041 101.703 189.797 108.789 175.425 110.582C157.634 111.08 145.917 110.665 140.274 109.337L140.224 104.458C142.614 103.396 144.141 99.4291 144.805 92.5583C145.402 69.2241 146.232 44.5954 147.294 18.6723C146.066 6.82263 151.46 1.42889 163.476 2.49104ZM155.758 15.3364L155.559 41.326C175.972 39.8655 187.108 32.2313 188.967 18.4233C187.507 12.1168 182.262 9.0963 173.234 9.36184L165.467 10.4572C158.995 11.121 155.758 12.7475 155.758 15.3364ZM157.352 61.6895L155.559 98.1346C175.674 99.6614 187.341 95.7115 190.56 86.2849C192.386 76.7256 189.548 69.9543 182.047 65.9713C174.777 63.0171 166.546 61.5899 157.352 61.6895ZM238.487 2.98892L242.47 2.6404C244.528 4.20044 248.229 4.91408 253.573 4.78131L327.807 5.77707C333.217 5.90984 336.371 5.17961 337.267 3.58638L340.503 4.13406C341.897 10.2746 341.665 15.0045 339.806 18.3238L335.773 18.7221C333.682 16.3322 325.517 15.3364 311.277 15.7348L257.755 15.9339C248.494 15.8675 242.852 16.6475 240.827 18.274L237.192 17.328C237.059 9.92611 237.491 5.14642 238.487 2.98892ZM269.405 44.612L273.388 44.2635C275.446 45.8235 279.147 46.5372 284.491 46.4044L298.532 47.7985C303.942 47.9313 307.095 47.201 307.991 45.6078L311.228 46.1555C312.622 52.296 312.389 57.0259 310.531 60.3452L306.498 60.7435C304.407 58.3536 298.465 57.2915 288.673 57.557C279.413 57.4906 273.77 58.2707 271.745 59.8971L268.111 58.9511C267.978 51.5492 268.41 46.7695 269.405 44.612ZM341.947 105.653L337.964 106.051C335.873 104.524 332.155 103.86 326.811 104.059L252.627 103.761C247.183 103.661 244.03 104.408 243.167 106.001L239.931 105.453C238.47 98.0184 238.653 92.6412 240.478 89.322L244.461 88.9237C246.619 91.2804 250.287 92.3259 255.465 92.0604L322.53 92.9566C331.823 92.9234 337.466 92.077 339.458 90.4174L343.092 91.3633C343.291 98.732 342.91 103.495 341.947 105.653ZM380.563 61.1418C380.563 53.4412 381.725 46.8193 384.048 41.2762C386.372 35.6999 389.458 31.5509 393.309 28.8291C396.296 26.6716 399.383 25.5929 402.569 25.5929C407.747 25.5929 412.394 28.2316 416.51 33.5092C421.655 40.0481 424.227 48.9104 424.227 60.0962C424.227 67.9296 423.099 74.5847 420.842 80.0614C418.585 85.5381 415.697 89.5212 412.179 92.0106C408.693 94.4668 405.324 95.6949 402.072 95.6949C395.632 95.6949 390.272 91.8944 385.99 84.2934C382.372 77.8873 380.563 70.1701 380.563 61.1418ZM390.321 62.3865C390.321 71.6803 391.467 79.2648 393.757 85.1398C395.649 90.0854 398.47 92.5583 402.221 92.5583C404.013 92.5583 405.872 91.7617 407.797 90.1684C409.722 88.542 411.183 85.8368 412.179 82.0529C413.705 76.3438 414.469 68.2947 414.469 57.9055C414.469 50.2049 413.672 43.7822 412.079 38.6374C410.884 34.8203 409.341 32.1151 407.449 30.5219C406.088 29.4266 404.445 28.8789 402.52 28.8789C400.263 28.8789 398.254 29.8913 396.495 31.916C394.105 34.6709 392.479 39.0025 391.616 44.9108C390.753 50.819 390.321 56.6442 390.321 62.3865ZM527.22 2.69019H528.564L528.813 16.6309L524.88 17.1786C523.187 14.4237 502.093 12.7143 461.599 12.0504V13.3947C461.599 16.9463 468.386 25.1116 481.962 37.8906C491.156 47.6823 498.11 54.1548 502.823 57.3081C503.885 58.3038 503.952 59.6979 503.022 61.4903L489.629 74.4851C483.422 83.0819 477.381 90.3012 471.506 96.143C470.312 98.5329 470.76 99.8606 472.851 100.126L518.108 101.022C523.784 101.421 527.137 100.74 528.166 98.981L530.555 99.0308L529.809 113.37L526.523 113.021C526.158 111.196 522.141 110.482 514.474 110.88C506.84 111.312 495.007 111.08 478.975 110.183C467.557 110.183 458.528 111.08 451.89 112.872L449.251 107.047L484.501 64.9257C486.26 62.6686 486.26 60.4116 484.501 58.1545C466.511 39.7992 454.744 25.8086 449.201 16.1829C447.641 11.2372 448.006 7.05498 450.297 3.63617L516.366 6.67327C521.212 6.40773 524.83 5.08004 527.22 2.69019ZM565.437 95.8941V94.0519C569.752 93.9855 573.768 92.9898 577.486 91.0646C581.204 89.1063 584.788 85.7041 588.24 80.858C591.725 76.0119 594.149 70.6846 595.509 64.8759C590.298 68.2283 585.585 69.9045 581.37 69.9045C576.623 69.9045 572.557 68.079 569.171 64.4278C565.786 60.7435 564.093 55.8642 564.093 49.79C564.093 43.8818 565.786 38.6208 569.171 34.0071C573.254 28.3976 578.581 25.5929 585.153 25.5929C590.697 25.5929 595.443 27.8831 599.393 32.4637C604.239 38.1395 606.662 45.1431 606.662 53.4744C606.662 60.9758 604.82 67.9794 601.136 74.4851C597.451 80.9576 592.323 86.3347 585.751 90.6165C580.407 94.1349 574.582 95.8941 568.275 95.8941H565.437ZM596.306 61.1916C596.903 56.8766 597.202 53.4246 597.202 50.8356C597.202 47.6159 596.655 44.1473 595.559 40.4298C594.464 36.6791 592.904 33.8079 590.879 31.8164C588.888 29.8249 586.614 28.8291 584.058 28.8291C581.104 28.8291 578.515 30.1568 576.291 32.8122C574.067 35.4676 572.955 39.4174 572.955 44.6618C572.955 51.6654 574.432 57.1421 577.386 61.092C579.544 63.9465 582.199 65.3738 585.353 65.3738C586.879 65.3738 588.688 65.0087 590.78 64.2785C592.871 63.5482 594.713 62.5193 596.306 61.1916ZM637.66 3.78554C642.407 2.78977 646.855 3.03871 651.004 4.53236L650.556 8.96353C649.029 11.1542 648.381 18.971 648.614 32.4139C648.215 35.7995 649.46 36.4135 652.348 34.256L698.8 10.7061C705.273 7.61925 708.576 5.08004 708.708 3.0885L711.347 2.93914C714.069 3.73575 716.027 5.44515 717.222 8.06734L715.828 13.2453C712.31 13.6436 709.322 14.7224 706.866 16.4816L652.995 44.6618C649.776 46.1555 650.307 47.7985 654.588 49.5909C692.826 68.9088 715.513 83.7457 722.649 94.1017C723.877 95.4958 725.437 96.475 727.329 97.0392L729.122 99.5784C727.495 103.097 724.475 105.188 720.06 105.852L717.969 104.557C717.405 102.068 715.214 99.1801 711.397 95.8941C696.726 82.584 677.358 70.668 653.294 60.146C650.672 58.5528 649.427 59.2 649.56 62.0878L647.469 94.749C647.402 98.9312 648.581 102.45 651.004 105.304L650.605 108.64C646.224 109.901 641.477 110.001 636.366 108.939L635.569 105.005C637.196 102.084 638.208 93.5374 638.606 79.3643C639.005 65.158 639.204 49.6904 639.204 32.9615C639.735 18.3901 639.237 9.85972 637.71 7.3703L637.66 3.78554ZM765.547 39.8323C767.472 35.285 769.895 31.7832 772.816 29.327C775.77 26.8376 779.438 25.5929 783.819 25.5929C789.229 25.5929 793.379 27.3521 796.266 30.8704C798.457 33.4926 799.552 36.2974 799.552 39.2847C799.552 44.1971 796.465 49.2755 790.292 54.5199C794.441 56.1463 797.577 58.4698 799.702 61.4903C801.826 64.5108 802.888 68.0624 802.888 72.145C802.888 77.9869 801.029 83.0487 797.312 87.3305C792.466 92.9068 785.446 95.6949 776.251 95.6949C771.704 95.6949 768.6 95.1307 766.941 94.0021C765.314 92.8736 764.501 91.6621 764.501 90.3676C764.501 89.405 764.883 88.5586 765.646 87.8284C766.443 87.0981 767.389 86.733 768.484 86.733C769.314 86.733 770.161 86.8658 771.024 87.1313C771.588 87.2973 772.866 87.9113 774.857 88.9735C776.849 90.0025 778.226 90.6165 778.99 90.8157C780.218 91.1808 781.529 91.3633 782.923 91.3633C786.309 91.3633 789.246 90.0523 791.736 87.4301C794.258 84.8079 795.519 81.7044 795.519 78.1196C795.519 75.4974 794.939 72.9416 793.777 70.4522C792.914 68.5934 791.968 67.1828 790.939 66.2202C789.512 64.8925 787.553 63.6976 785.064 62.6354C782.574 61.5401 780.035 60.9924 777.446 60.9924H775.853V59.4988C778.475 59.1668 781.097 58.2209 783.72 56.6608C786.375 55.1008 788.3 53.2254 789.495 51.0347C790.69 48.844 791.287 46.4376 791.287 43.8154C791.287 40.3966 790.209 37.6417 788.051 35.5505C785.927 33.4262 783.271 32.3641 780.085 32.3641C774.94 32.3641 770.642 35.119 767.19 40.629L765.547 39.8323ZM863.261 3.9349L865.303 2.34167L875.758 2.69019L876.754 5.97623C875.161 7.53626 875.227 9.9593 876.953 13.2453C890.628 40.6622 901.117 61.5899 908.42 76.0285C915.755 90.4672 921.68 98.2507 926.194 99.3793V103.562L914.046 109.437L911.108 107.246C911.241 104.292 899.192 78.435 874.962 29.6755C872.904 24.8626 871.045 25.1614 869.385 30.5717C851.561 78.3686 844.591 103.578 848.474 106.2L847.578 110.432L831.745 106.35L832.542 100.574C836.326 98.5827 845.968 72.5101 861.469 22.3566C863.826 12.3657 864.423 6.22517 863.261 3.9349ZM988.26 6.32475L988.21 2.83956L1001.95 2.78977L1002.3 6.12559C1000.01 7.75201 999.363 11.6687 1000.36 17.8757C1001.35 24.0494 1014.17 40.1809 1038.8 66.27C1040.42 67.6973 1041.9 67.6309 1043.23 66.0708C1048.77 58.2707 1055.51 46.6368 1063.44 31.1692C1071.37 15.7016 1074.01 7.3703 1071.36 6.17538L1071.41 2.98892L1085.05 2.73998L1084.9 7.12136C1082.81 8.54863 1082.51 13.9922 1084 23.452C1093.43 39.7494 1101.31 56.8102 1107.65 74.6344C1113.99 92.4255 1118.44 101.255 1121 101.122L1121.84 105.205C1118.95 107.959 1113.38 109.868 1105.11 110.93L1103.17 107.893C1105.06 104.142 1103.21 95.3962 1097.6 81.6546C1091.99 67.8798 1085.63 55.5323 1078.53 44.612C1076.47 40.7285 1072.83 43.1018 1067.62 51.7318C1061.62 62.7848 1054.38 73.1242 1045.92 82.75C1044.22 86.2683 1041.48 86.9488 1037.7 84.7913L1001.16 42.1226C999.33 37.7412 997.206 37.7744 994.783 42.2222C978.452 78.9328 971.681 98.4167 974.469 100.674L972.826 103.562L956.993 99.4789L956.744 94.9481C960.694 93.8196 967.399 79.0988 976.859 50.7858C986.318 22.4728 990.119 7.65244 988.26 6.32475ZM-533.413 205.609L-516.983 197.593H-515.34V254.601C-515.34 258.385 -515.19 260.741 -514.892 261.671C-514.56 262.6 -513.896 263.314 -512.9 263.811C-511.904 264.309 -509.88 264.591 -506.826 264.658V266.5H-532.218V264.658C-529.031 264.591 -526.974 264.326 -526.044 263.861C-525.115 263.363 -524.468 262.716 -524.102 261.92C-523.737 261.09 -523.555 258.65 -523.555 254.601V218.155C-523.555 213.243 -523.721 210.09 -524.053 208.696C-524.285 207.634 -524.716 206.854 -525.347 206.356C-525.945 205.858 -526.675 205.609 -527.538 205.609C-528.766 205.609 -530.475 206.123 -532.666 207.152L-533.413 205.609ZM-451.182 174.69H-436.047L-436.096 177.429C-438.154 180.715 -439.515 187.403 -440.179 197.493L-439.283 249.97C-439.283 266.633 -438.204 276.059 -436.047 278.25L-435.599 281.636L-452.228 282.333L-452.128 278.2C-450.137 274.35 -449.506 266.069 -450.236 253.356L-450.585 197.145C-449.855 187.585 -450.087 180.914 -451.282 177.13L-451.182 174.69ZM-445.656 186.291C-437.789 186.291 -431.134 189.029 -425.691 194.506C-420.247 199.983 -417.525 206.621 -417.525 214.421C-417.525 222.155 -420.264 228.76 -425.74 234.237C-431.217 239.681 -437.856 242.402 -445.656 242.402C-453.39 242.402 -459.995 239.681 -465.472 234.237C-470.948 228.76 -473.687 222.155 -473.687 214.421C-473.687 206.621 -470.965 199.983 -465.521 194.506C-460.078 189.029 -453.456 186.291 -445.656 186.291ZM-445.706 196.597C-450.552 196.597 -454.684 198.307 -458.103 201.725C-461.489 205.111 -463.181 209.227 -463.181 214.073C-463.181 218.886 -461.489 223.002 -458.103 226.42C-454.684 229.806 -450.552 231.499 -445.706 231.499C-440.893 231.499 -436.793 229.806 -433.408 226.42C-429.989 223.002 -428.28 218.886 -428.28 214.073C-428.28 209.227 -429.972 205.111 -433.358 201.725C-436.744 198.307 -440.86 196.597 -445.706 196.597ZM-380.503 211.832C-378.578 207.285 -376.154 203.783 -373.234 201.327C-370.279 198.838 -366.612 197.593 -362.23 197.593C-356.82 197.593 -352.671 199.352 -349.783 202.87C-347.593 205.493 -346.497 208.297 -346.497 211.285C-346.497 216.197 -349.584 221.276 -355.758 226.52C-351.609 228.146 -348.472 230.47 -346.348 233.49C-344.224 236.511 -343.161 240.062 -343.161 244.145C-343.161 249.987 -345.02 255.049 -348.738 259.331C-353.584 264.907 -360.604 267.695 -369.798 267.695C-374.346 267.695 -377.449 267.131 -379.109 266.002C-380.735 264.874 -381.548 263.662 -381.548 262.368C-381.548 261.405 -381.167 260.559 -380.403 259.828C-379.606 259.098 -378.661 258.733 -377.565 258.733C-376.735 258.733 -375.889 258.866 -375.026 259.131C-374.462 259.297 -373.184 259.911 -371.192 260.974C-369.201 262.002 -367.823 262.617 -367.06 262.816C-365.832 263.181 -364.521 263.363 -363.127 263.363C-359.741 263.363 -356.803 262.052 -354.314 259.43C-351.791 256.808 -350.53 253.704 -350.53 250.12C-350.53 247.497 -351.111 244.942 -352.273 242.452C-353.136 240.593 -354.082 239.183 -355.111 238.22C-356.538 236.893 -358.496 235.698 -360.986 234.635C-363.475 233.54 -366.014 232.992 -368.603 232.992H-370.196V231.499C-367.574 231.167 -364.952 230.221 -362.33 228.661C-359.675 227.101 -357.749 225.225 -356.554 223.035C-355.36 220.844 -354.762 218.438 -354.762 215.815C-354.762 212.397 -355.841 209.642 -357.998 207.551C-360.123 205.426 -362.778 204.364 -365.964 204.364C-371.109 204.364 -375.408 207.119 -378.86 212.629L-380.503 211.832ZM-309.823 174.69C-308.628 176.117 -304.645 176.732 -297.874 176.532L-243.306 178.524C-235.207 178.723 -230.427 177.893 -228.967 176.035L-226.527 175.935L-227.722 191.618L-230.46 191.768C-231.821 189.677 -235.771 188.548 -242.31 188.382L-297.027 186.341C-297.426 207.849 -298.538 232.578 -300.363 260.525C-300.728 270.649 -299.202 276.839 -295.783 279.097L-295.882 281.735L-314.155 281.337L-314.553 278.2C-310.935 275.512 -308.943 261.604 -308.578 236.478L-307.234 188.382C-307.765 184.731 -310.122 182.856 -314.304 182.756L-312.91 174.541L-309.823 174.69ZM-136.38 177.13V174.292C-126.522 174.557 -120.381 175.122 -117.958 175.985L-118.058 179.918C-120.05 181.013 -120.913 184.781 -120.647 191.22L-121.095 263.264C-120.763 270.699 -119.552 275.213 -117.461 276.806L-117.909 280.789L-134.936 281.088L-135.335 277.304C-133.907 275.91 -133.194 273.753 -133.194 270.832L-134.837 232.495C-134.604 230.636 -135.351 229.557 -137.077 229.258L-178.899 229.009C-181.256 229.009 -182.285 230.237 -181.986 232.694C-182.252 261.571 -181.24 276.856 -178.949 278.549L-179.547 281.735L-195.977 282.034L-196.923 278.947C-194.965 276.823 -194.118 266.251 -194.384 247.232C-194.649 228.213 -194.616 213.027 -194.284 201.676C-193.919 190.324 -194.55 183.636 -196.176 181.611L-195.728 178.225C-188.426 177.595 -182.667 177.976 -178.451 179.37L-179.049 183.503C-181.505 184.532 -182.634 194.506 -182.434 213.426C-182.468 215.716 -181.24 216.911 -178.75 217.01L-136.43 217.558C-134.77 217.591 -133.791 216.761 -133.492 215.069L-134.09 184.698C-134.355 180.98 -135.119 178.458 -136.38 177.13ZM-41.0055 197.593V199.435C-45.3869 199.867 -48.9716 200.746 -51.7598 202.074C-54.5147 203.368 -57.2531 205.36 -59.9749 208.048C-62.6634 210.737 -64.9039 213.741 -66.6963 217.06C-68.4555 220.346 -69.9326 224.263 -71.1275 228.81C-66.3478 225.524 -61.5515 223.881 -56.7386 223.881C-52.1249 223.881 -48.1252 225.74 -44.7396 229.457C-41.354 233.175 -39.6612 237.955 -39.6612 243.797C-39.6612 249.439 -41.3706 254.584 -44.7894 259.231C-48.9053 264.874 -54.3488 267.695 -61.12 267.695C-65.7337 267.695 -69.6504 266.168 -72.8701 263.114C-79.1766 257.173 -82.3299 249.472 -82.3299 240.013C-82.3299 233.972 -81.1184 228.229 -78.6953 222.786C-76.2723 217.342 -72.8203 212.513 -68.3393 208.297C-63.8252 204.082 -59.5102 201.244 -55.3943 199.784C-51.2785 198.323 -47.4448 197.593 -43.8932 197.593H-41.0055ZM-71.9739 232.445C-72.5713 236.926 -72.8701 240.544 -72.8701 243.299C-72.8701 246.485 -72.2892 249.954 -71.1275 253.704C-69.9326 257.422 -68.1734 260.376 -65.8499 262.567C-64.1571 264.127 -62.0992 264.907 -59.6761 264.907C-56.7884 264.907 -54.216 263.546 -51.9589 260.824C-49.6687 258.102 -48.5235 254.219 -48.5235 249.174C-48.5235 243.498 -49.6521 238.585 -51.9092 234.436C-54.1662 230.287 -57.3693 228.213 -61.5183 228.213C-62.7796 228.213 -64.1405 228.478 -65.601 229.009C-67.0282 229.54 -69.1525 230.686 -71.9739 232.445ZM-5.07818 198.987H31.118V200.879L8.61363 267.894H3.03733L23.2016 207.102H4.63056C0.879832 207.102 -1.79215 207.551 -3.38538 208.447C-6.17353 209.974 -8.414 212.33 -10.1068 215.517L-11.5507 214.969L-5.07818 198.987ZM57.5357 174.989L61.5188 174.64C63.5767 176.2 67.2776 176.914 72.6216 176.781L146.856 177.777C152.266 177.91 155.42 177.18 156.316 175.586L159.552 176.134C160.946 182.275 160.714 187.005 158.855 190.324L154.822 190.722C152.731 188.332 144.566 187.336 130.326 187.735L76.8038 187.934C67.5432 187.868 61.9005 188.648 59.8758 190.274L56.2412 189.328C56.1084 181.926 56.5399 177.146 57.5357 174.989ZM88.4543 216.612L92.4374 216.264C94.4953 217.824 98.1962 218.537 103.54 218.404L117.581 219.799C122.991 219.931 126.144 219.201 127.04 217.608L130.277 218.155C131.671 224.296 131.438 229.026 129.58 232.345L125.547 232.743C123.456 230.354 117.514 229.291 107.722 229.557C98.4618 229.491 92.8191 230.271 90.7944 231.897L87.1598 230.951C87.027 223.549 87.4585 218.77 88.4543 216.612ZM160.996 277.653L157.013 278.051C154.922 276.524 151.204 275.86 145.86 276.059L71.6756 275.761C66.2321 275.661 63.0788 276.408 62.2158 278.001L58.9796 277.453C57.5191 270.018 57.7017 264.641 59.5273 261.322L63.5103 260.924C65.6678 263.28 69.3356 264.326 74.5136 264.06L141.579 264.957C150.872 264.923 156.515 264.077 158.507 262.417L162.141 263.363C162.34 270.732 161.959 275.495 160.996 277.653ZM200.707 174.84C203.993 175.503 207.877 175.952 212.358 176.184L325.875 177.727C330.423 177.827 333.692 177.395 335.684 176.433L338.472 176.383C339.368 179.404 339.169 183.818 337.874 189.627L334.787 189.826C333.526 187.702 331.402 186.573 328.415 186.44L298.193 186.341L299.288 266.251C299.554 271.23 300.267 274.947 301.429 277.404L301.13 280.74C297.38 281.735 293.413 281.636 289.231 280.441L288.833 275.163C290.625 273.338 291.505 270.433 291.472 266.45L289.032 195.502L289.082 186.191L227.742 185.096C225.552 185.229 224.241 186.225 223.809 188.083L218.83 267.546C218.465 272.226 219.494 275.479 221.917 277.304L220.872 281.038C215.03 282.233 210.001 281.785 205.786 279.694L205.835 275.96C207.263 274.632 208.159 272.11 208.524 268.392L215.046 187.088C215.08 185.229 214.283 184.1 212.656 183.702C206.781 183.768 202.417 184.515 199.562 185.942L196.326 185.395C195.928 180.283 196.243 176.665 197.272 174.541L200.707 174.84ZM376.341 267.894V266.052C380.656 265.986 384.672 264.99 388.39 263.065C392.107 261.106 395.692 257.704 399.144 252.858C402.629 248.012 405.052 242.685 406.413 236.876C401.202 240.228 396.489 241.905 392.273 241.905C387.527 241.905 383.461 240.079 380.075 236.428C376.689 232.743 374.997 227.864 374.997 221.79C374.997 215.882 376.689 210.621 380.075 206.007C384.158 200.398 389.485 197.593 396.057 197.593C401.6 197.593 406.347 199.883 410.297 204.464C415.143 210.14 417.566 217.143 417.566 225.474C417.566 232.976 415.723 239.979 412.039 246.485C408.355 252.958 403.227 258.335 396.654 262.617C391.311 266.135 385.485 267.894 379.179 267.894H376.341ZM407.21 233.192C407.807 228.877 408.106 225.425 408.106 222.836C408.106 219.616 407.558 216.147 406.463 212.43C405.367 208.679 403.807 205.808 401.783 203.816C399.791 201.825 397.517 200.829 394.962 200.829C392.008 200.829 389.419 202.157 387.195 204.812C384.971 207.468 383.859 211.417 383.859 216.662C383.859 223.665 385.336 229.142 388.29 233.092C390.448 235.947 393.103 237.374 396.256 237.374C397.783 237.374 399.592 237.009 401.683 236.278C403.774 235.548 405.616 234.519 407.21 233.192ZM464.297 174.491H474.006C491.266 173.163 499.896 178.64 499.896 190.921C498.834 203.833 484.594 215.201 457.177 225.026L456.58 263.911C456.713 269.952 458.073 274.317 460.662 277.005L458.82 281.088C452.647 282.582 446.738 282.665 441.096 281.337L441.046 276.458C443.436 275.396 444.963 271.429 445.626 264.558C446.224 241.224 447.054 216.595 448.116 190.672C446.888 178.823 452.281 173.429 464.297 174.491ZM456.58 187.336L456.381 213.326C476.661 209.011 487.797 201.377 489.789 190.423C488.328 184.117 483.084 181.096 474.056 181.362L466.289 182.457C459.816 183.121 456.58 184.747 456.58 187.336ZM574.31 198.987L570.426 207.451H550.112L545.681 216.512C554.477 217.807 561.448 221.076 566.592 226.321C571.007 230.835 573.214 236.146 573.214 242.253C573.214 245.805 572.484 249.091 571.023 252.111C569.596 255.132 567.787 257.704 565.597 259.828C563.406 261.953 560.966 263.662 558.278 264.957C554.461 266.782 550.544 267.695 546.528 267.695C542.478 267.695 539.524 267.015 537.665 265.654C535.84 264.26 534.927 262.733 534.927 261.073C534.927 260.144 535.309 259.331 536.072 258.633C536.835 257.903 537.798 257.538 538.96 257.538C539.823 257.538 540.57 257.671 541.2 257.936C541.864 258.202 542.976 258.882 544.536 259.978C547.025 261.704 549.548 262.567 552.104 262.567C555.987 262.567 559.39 261.106 562.311 258.185C565.265 255.231 566.742 251.646 566.742 247.431C566.742 243.348 565.431 239.548 562.808 236.03C560.186 232.478 556.568 229.74 551.955 227.814C548.337 226.321 543.408 225.458 537.167 225.225L550.112 198.987H574.31ZM604.661 177.877C605.092 180.93 620.991 182.109 652.358 181.412C683.758 180.715 701.084 179.785 704.337 178.623L706.528 178.574L705.034 192.813L702.744 192.664C701.018 191.303 698.064 190.788 693.881 191.12L661.021 191.718L660.872 265.803C660.473 270.616 661.834 274.134 664.954 276.358V279.345C657.386 280.872 650.3 280.922 643.695 279.495V276.458C647.213 275.263 648.889 271.728 648.723 265.853L647.578 192.116L628.509 191.718C613.075 190.988 605.225 191.552 604.959 193.411L601.872 193.46L601.922 178.225L604.661 177.877ZM755.997 232.495C750.653 228.113 747.201 224.595 745.641 221.939C744.115 219.284 743.351 216.529 743.351 213.675C743.351 209.293 745.044 205.526 748.43 202.373C751.815 199.186 756.313 197.593 761.922 197.593C767.366 197.593 771.747 199.07 775.066 202.024C778.386 204.978 780.045 208.347 780.045 212.131C780.045 214.654 779.149 217.226 777.357 219.848C775.564 222.47 771.83 225.557 766.154 229.109C771.996 233.623 775.863 237.175 777.755 239.764C780.278 243.149 781.539 246.717 781.539 250.468C781.539 255.215 779.73 259.281 776.112 262.666C772.494 266.019 767.747 267.695 761.872 267.695C755.466 267.695 750.471 265.687 746.886 261.671C744.032 258.451 742.604 254.933 742.604 251.115C742.604 248.128 743.6 245.174 745.592 242.253C747.616 239.299 751.085 236.046 755.997 232.495ZM763.814 227.167C767.797 223.582 770.32 220.761 771.382 218.703C772.444 216.612 772.975 214.255 772.975 211.633C772.975 208.148 771.996 205.426 770.038 203.468C768.079 201.476 765.407 200.481 762.022 200.481C758.636 200.481 755.881 201.46 753.757 203.418C751.633 205.376 750.57 207.667 750.57 210.289C750.57 212.015 751.002 213.741 751.865 215.467C752.761 217.193 754.022 218.836 755.649 220.396L763.814 227.167ZM758.337 234.387C755.583 236.71 753.541 239.249 752.213 242.004C750.886 244.726 750.222 247.68 750.222 250.866C750.222 255.148 751.384 258.584 753.707 261.173C756.064 263.728 759.051 265.006 762.669 265.006C766.254 265.006 769.125 263.994 771.282 261.969C773.44 259.945 774.519 257.488 774.519 254.601C774.519 252.211 773.888 250.07 772.627 248.178C770.27 244.66 765.507 240.062 758.337 234.387ZM837.81 178.574C839.569 180.3 843.403 181.262 849.311 181.461H944.506C950.215 181.229 951.062 183.735 947.045 188.979C941.668 194.025 931.694 202.157 917.123 213.376C902.584 224.562 883.283 239.581 859.219 258.434C854.24 261.588 854.24 263.43 859.219 263.961L935.295 263.712C939.312 264.044 941.934 263.579 943.162 262.318L945.004 264.21C946.531 267.662 946.348 272.558 944.456 278.897L940.424 279.893C938.897 277.669 936.225 276.441 932.408 276.209L874.603 276.557H838.059C832.482 276.159 829.296 274.3 828.499 270.981C827.57 268.525 831.818 263.446 841.245 255.746C849.543 249.273 875.516 229.142 919.164 195.352C920.127 194.058 919.496 193.444 917.272 193.51C906.949 194.606 882.885 195.103 845.079 195.004C840.465 193.942 836.582 194.108 833.428 195.502L831.088 194.506C830.955 188.166 832.3 182.656 835.121 177.976L837.81 178.574ZM1030.07 253.505L1025.34 266.5H985.512V264.658C997.229 253.97 1005.48 245.24 1010.26 238.469C1015.04 231.698 1017.43 225.508 1017.43 219.898C1017.43 215.616 1016.12 212.098 1013.49 209.343C1010.87 206.588 1007.73 205.211 1004.08 205.211C1000.76 205.211 997.776 206.19 995.121 208.148C992.499 210.073 990.557 212.911 989.296 216.662H987.454C988.283 210.521 990.408 205.808 993.827 202.522C997.279 199.236 1001.58 197.593 1006.72 197.593C1012.2 197.593 1016.76 199.352 1020.41 202.87C1024.1 206.389 1025.94 210.538 1025.94 215.318C1025.94 218.736 1025.14 222.155 1023.55 225.574C1021.09 230.951 1017.11 236.644 1011.6 242.651C1003.34 251.68 998.175 257.123 996.117 258.982H1013.74C1017.33 258.982 1019.83 258.849 1021.26 258.584C1022.72 258.318 1024.03 257.787 1025.19 256.99C1026.36 256.161 1027.37 254.999 1028.23 253.505H1030.07ZM1113.1 174.69C1141.78 176.682 1158.79 188.365 1164.13 209.741C1166.92 216.512 1168.05 224.645 1167.52 234.138C1164.56 262.384 1147.45 278.101 1116.19 281.287L1106.28 281.337C1087.76 280.905 1073.35 272.641 1063.06 256.542C1058.25 249.041 1055.48 238.934 1054.75 226.221C1054.48 213.608 1059.66 201.543 1070.28 190.025C1081.6 179.105 1095.87 173.993 1113.1 174.69ZM1066.6 223.931C1066.33 250.086 1079.56 265.322 1106.28 269.637H1117.23C1134.76 267.114 1146.59 259.165 1152.73 245.788C1155.49 241.34 1156.86 235.415 1156.86 228.014C1156.43 202.953 1143.22 188.847 1117.23 185.693H1111.76C1084.94 185.76 1069.88 198.506 1066.6 223.931ZM1096.27 218.205C1103.47 221.06 1109.86 222.354 1115.44 222.089C1121.05 221.823 1126.13 220.579 1130.68 218.355L1129.78 225.225L1130.53 236.826C1125.12 232.677 1120.1 230.603 1115.49 230.603C1110.88 230.569 1104.83 232.312 1097.37 235.83L1098.41 225.375L1096.27 218.205ZM1245.37 197.593V199.435C1240.99 199.867 1237.4 200.746 1234.61 202.074C1231.86 203.368 1229.12 205.36 1226.4 208.048C1223.71 210.737 1221.47 213.741 1219.68 217.06C1217.92 220.346 1216.44 224.263 1215.25 228.81C1220.03 225.524 1224.82 223.881 1229.63 223.881C1234.25 223.881 1238.25 225.74 1241.63 229.457C1245.02 233.175 1246.71 237.955 1246.71 243.797C1246.71 249.439 1245 254.584 1241.58 259.231C1237.47 264.874 1232.02 267.695 1225.25 267.695C1220.64 267.695 1216.72 266.168 1213.5 263.114C1207.2 257.173 1204.04 249.472 1204.04 240.013C1204.04 233.972 1205.25 228.229 1207.68 222.786C1210.1 217.342 1213.55 212.513 1218.03 208.297C1222.55 204.082 1226.86 201.244 1230.98 199.784C1235.09 198.323 1238.93 197.593 1242.48 197.593H1245.37ZM1214.4 232.445C1213.8 236.926 1213.5 240.544 1213.5 243.299C1213.5 246.485 1214.08 249.954 1215.25 253.704C1216.44 257.422 1218.2 260.376 1220.52 262.567C1222.22 264.127 1224.27 264.907 1226.7 264.907C1229.58 264.907 1232.16 263.546 1234.41 260.824C1236.7 258.102 1237.85 254.219 1237.85 249.174C1237.85 243.498 1236.72 238.585 1234.46 234.436C1232.21 230.287 1229 228.213 1224.85 228.213C1223.59 228.213 1222.23 228.478 1220.77 229.009C1219.34 229.54 1217.22 230.686 1214.4 232.445ZM1373.35 174.79C1404.49 176.549 1421.88 188.15 1425.53 209.592V220.496L1421.2 270.483L1449.33 271.28C1450.99 271.612 1453.03 271.213 1455.45 270.085L1458.69 270.632C1460.02 274.383 1460.05 278.383 1458.79 282.631L1456.15 283.826C1454.16 282.2 1449.3 281.387 1441.56 281.387L1416.37 280.54C1410.46 281.105 1407.92 278.615 1408.75 273.072L1412.89 221.292L1412.49 211.434C1409.43 195.07 1394.26 186.756 1366.98 186.49C1342.39 186.092 1325.64 195.253 1316.74 213.973C1312.26 223.566 1311.55 234.436 1314.6 246.585L1322.87 267.048C1324.83 270.832 1324.25 273.437 1321.13 274.864H1277.61L1270.89 274.217C1270.56 268.442 1271.27 264.857 1273.03 263.463L1276.52 263.264C1277.94 265.355 1281.39 266.251 1286.87 265.952L1299.87 266.102L1308.78 265.006L1301.51 242.253C1300.02 236.478 1299.75 230.785 1300.71 225.176C1303 208.513 1312.08 194.539 1327.95 183.254C1338.83 176.549 1353.97 173.728 1373.35 174.79ZM1522.05 178.325L1522 174.84L1535.74 174.79L1536.09 178.126C1533.8 179.752 1533.15 183.669 1534.15 189.876C1535.15 196.049 1547.96 212.181 1572.59 238.27C1574.21 239.697 1575.69 239.631 1577.02 238.071C1582.56 230.271 1589.3 218.637 1597.23 203.169C1605.17 187.702 1607.8 179.37 1605.15 178.175L1605.2 174.989L1618.84 174.74L1618.69 179.121C1616.6 180.549 1616.3 185.992 1617.79 195.452C1627.22 211.749 1635.1 228.81 1641.44 246.634C1647.78 264.426 1652.23 273.255 1654.79 273.122L1655.63 277.205C1652.75 279.96 1647.17 281.868 1638.91 282.93L1636.96 279.893C1638.86 276.142 1637 267.396 1631.39 253.655C1625.78 239.88 1619.42 227.532 1612.32 216.612C1610.26 212.729 1606.63 215.102 1601.41 223.732C1595.41 234.785 1588.17 245.124 1579.71 254.75C1578.01 258.268 1575.28 258.949 1571.49 256.791L1534.95 214.123C1533.12 209.741 1531 209.774 1528.57 214.222C1512.24 250.933 1505.47 270.417 1508.26 272.674L1506.62 275.562L1490.78 271.479L1490.54 266.948C1494.49 265.82 1501.19 251.099 1510.65 222.786C1520.11 194.473 1523.91 179.652 1522.05 178.325ZM1689.77 174.69H1693.4L1709.39 194.855L1760.02 256.493C1764.63 263.629 1768.07 267.064 1770.33 266.799L1769.78 247.68C1770.01 201.078 1768.78 177.744 1766.09 177.678L1766.79 174.391L1782.67 174.79L1783.47 177.877C1781.71 178.972 1780.83 182.275 1780.83 187.785L1780.73 263.314C1780.47 270.682 1781.16 275.545 1782.82 277.902L1781.83 282.134C1777.28 283.395 1772.58 283.329 1767.74 281.934C1762.89 278.549 1757.51 272.79 1751.61 264.658C1746.06 257.389 1735.94 245.805 1721.24 229.906C1710.31 216.33 1703.25 207.7 1700.03 204.016C1698.17 203.086 1697.44 204.016 1697.83 206.804L1697.04 236.378C1697.74 260.409 1699.34 272.823 1701.87 273.62L1702.07 279.097L1685.14 279.893L1684.94 273.869C1687.1 272.11 1687.83 265.023 1687.13 252.609C1686.47 240.162 1686.5 224.877 1687.23 206.754C1687.99 188.598 1687.3 178.59 1685.14 176.732C1685.8 175.371 1687.35 174.69 1689.77 174.69ZM1862.61 241.606V248.676H1853.55V266.5H1845.34V248.676H1816.76V242.303L1848.08 197.593H1853.55V241.606H1862.61ZM1845.34 241.606V208.098L1821.64 241.606H1845.34ZM1908.5 174.491H1918.21C1935.47 173.163 1944.1 178.64 1944.1 190.921C1943.73 205.061 1936.2 215.002 1921.49 220.744C1911.67 223.134 1910.06 224.23 1916.66 224.031C1930.14 225.358 1939.07 229.291 1943.45 235.83C1948.86 244.095 1950.44 252.592 1948.18 261.322C1944.06 273.703 1934.82 280.789 1920.45 282.582C1902.66 283.08 1890.94 282.665 1885.3 281.337L1885.25 276.458C1887.64 275.396 1889.16 271.429 1889.83 264.558C1890.43 241.224 1891.26 216.595 1892.32 190.672C1891.09 178.823 1896.48 173.429 1908.5 174.491ZM1900.78 187.336L1900.58 213.326C1921 211.866 1932.13 204.231 1933.99 190.423C1932.53 184.117 1927.29 181.096 1918.26 181.362L1910.49 182.457C1904.02 183.121 1900.78 184.747 1900.78 187.336ZM1902.38 233.689L1900.58 270.135C1920.7 271.661 1932.36 267.712 1935.58 258.285C1937.41 248.726 1934.57 241.954 1927.07 237.971C1919.8 235.017 1911.57 233.59 1902.38 233.689ZM-543.868 347.989L-539.885 347.64C-537.827 349.2 -534.126 349.914 -528.783 349.781L-454.548 350.777C-449.138 350.91 -445.984 350.18 -445.088 348.586L-441.852 349.134C-440.458 355.275 -440.69 360.005 -442.549 363.324L-446.582 363.722C-448.673 361.332 -456.838 360.336 -471.078 360.735L-524.6 360.934C-533.861 360.868 -539.504 361.648 -541.528 363.274L-545.163 362.328C-545.296 354.926 -544.864 350.146 -543.868 347.989ZM-512.95 389.612L-508.967 389.264C-506.909 390.824 -503.208 391.537 -497.864 391.404L-483.824 392.799C-478.413 392.931 -475.26 392.201 -474.364 390.608L-471.128 391.156C-469.733 397.296 -469.966 402.026 -471.825 405.345L-475.857 405.744C-477.949 403.354 -483.89 402.292 -493.682 402.557C-502.942 402.491 -508.585 403.271 -510.61 404.897L-514.244 403.951C-514.377 396.549 -513.946 391.77 -512.95 389.612ZM-440.408 450.653L-444.391 451.051C-446.482 449.524 -450.2 448.86 -455.544 449.059L-529.729 448.761C-535.172 448.661 -538.325 449.408 -539.188 451.001L-542.425 450.454C-543.885 443.018 -543.702 437.641 -541.877 434.322L-537.894 433.924C-535.736 436.28 -532.069 437.326 -526.891 437.06L-459.826 437.957C-450.532 437.923 -444.889 437.077 -442.898 435.417L-439.263 436.363C-439.064 443.732 -439.446 448.495 -440.408 450.653ZM-401.792 406.142C-401.792 398.441 -400.63 391.819 -398.307 386.276C-395.984 380.7 -392.897 376.551 -389.046 373.829C-386.059 371.672 -382.972 370.593 -379.786 370.593C-374.608 370.593 -369.961 373.232 -365.845 378.509C-360.7 385.048 -358.128 393.91 -358.128 405.096C-358.128 412.93 -359.256 419.585 -361.513 425.061C-363.77 430.538 -366.658 434.521 -370.177 437.011C-373.662 439.467 -377.031 440.695 -380.284 440.695C-386.723 440.695 -392.083 436.894 -396.365 429.293C-399.983 422.887 -401.792 415.17 -401.792 406.142ZM-392.034 407.387C-392.034 416.68 -390.889 424.265 -388.598 430.14C-386.706 435.085 -383.885 437.558 -380.134 437.558C-378.342 437.558 -376.483 436.762 -374.558 435.168C-372.633 433.542 -371.172 430.837 -370.177 427.053C-368.65 421.344 -367.886 413.295 -367.886 402.906C-367.886 395.205 -368.683 388.782 -370.276 383.637C-371.471 379.82 -373.015 377.115 -374.906 375.522C-376.267 374.427 -377.91 373.879 -379.836 373.879C-382.093 373.879 -384.101 374.891 -385.86 376.916C-388.25 379.671 -389.876 384.003 -390.739 389.911C-391.602 395.819 -392.034 401.644 -392.034 407.387ZM-255.135 347.69H-253.791L-253.542 361.631L-257.476 362.179C-259.168 359.424 -280.262 357.714 -320.757 357.05V358.395C-320.757 361.946 -313.969 370.112 -300.393 382.891C-291.199 392.682 -284.245 399.155 -279.532 402.308C-278.47 403.304 -278.403 404.698 -279.333 406.49L-292.726 419.485C-298.933 428.082 -304.974 435.301 -310.849 441.143C-312.044 443.533 -311.596 444.861 -309.504 445.126L-264.247 446.022C-258.571 446.421 -255.218 445.74 -254.189 443.981L-251.8 444.031L-252.546 458.37L-255.833 458.021C-256.198 456.196 -260.214 455.482 -267.881 455.88C-275.516 456.312 -287.349 456.08 -303.38 455.183C-314.799 455.183 -323.827 456.08 -330.465 457.872L-333.104 452.047L-297.854 409.926C-296.095 407.669 -296.095 405.412 -297.854 403.155C-315.844 384.799 -327.611 370.809 -333.154 361.183C-334.714 356.237 -334.349 352.055 -332.059 348.636L-265.989 351.673C-261.143 351.408 -257.525 350.08 -255.135 347.69ZM-216.918 440.894V439.052C-212.603 438.986 -208.587 437.99 -204.869 436.065C-201.152 434.106 -197.567 430.704 -194.115 425.858C-190.63 421.012 -188.207 415.685 -186.846 409.876C-192.057 413.228 -196.77 414.905 -200.986 414.905C-205.732 414.905 -209.798 413.079 -213.184 409.428C-216.569 405.744 -218.262 400.864 -218.262 394.79C-218.262 388.882 -216.569 383.621 -213.184 379.007C-209.101 373.398 -203.774 370.593 -197.202 370.593C-191.659 370.593 -186.912 372.883 -182.962 377.464C-178.116 383.14 -175.693 390.143 -175.693 398.474C-175.693 405.976 -177.535 412.979 -181.22 419.485C-184.904 425.958 -190.032 431.335 -196.604 435.617C-201.948 439.135 -207.773 440.894 -214.08 440.894H-216.918ZM-186.049 406.192C-185.452 401.877 -185.153 398.425 -185.153 395.836C-185.153 392.616 -185.701 389.147 -186.796 385.43C-187.891 381.679 -189.451 378.808 -191.476 376.816C-193.468 374.825 -195.741 373.829 -198.297 373.829C-201.251 373.829 -203.84 375.157 -206.064 377.812C-208.288 380.468 -209.4 384.417 -209.4 389.662C-209.4 396.665 -207.923 402.142 -204.969 406.092C-202.811 408.947 -200.156 410.374 -197.003 410.374C-195.476 410.374 -193.667 410.009 -191.576 409.278C-189.484 408.548 -187.642 407.519 -186.049 406.192ZM-144.695 348.786C-139.948 347.79 -135.501 348.039 -131.352 349.532L-131.8 353.964C-133.326 356.154 -133.974 363.971 -133.741 377.414C-134.14 380.8 -132.895 381.414 -130.007 379.256L-83.5547 355.706C-77.0822 352.619 -73.7795 350.08 -73.6468 348.089L-71.008 347.939C-68.2862 348.736 -66.3279 350.445 -65.133 353.067L-66.527 358.245C-70.0454 358.644 -73.0327 359.722 -75.4889 361.482L-129.36 389.662C-132.58 391.156 -132.049 392.799 -127.767 394.591C-89.5293 413.909 -66.8424 428.746 -59.706 439.102C-58.4779 440.496 -56.9179 441.475 -55.0259 442.039L-53.2335 444.578C-54.8599 448.097 -57.8804 450.188 -62.295 450.852L-64.3861 449.557C-64.9504 447.068 -67.1411 444.18 -70.9582 440.894C-85.6292 427.584 -104.997 415.668 -129.061 405.146C-131.683 403.553 -132.928 404.2 -132.795 407.088L-134.887 439.749C-134.953 443.931 -133.775 447.45 -131.352 450.304L-131.75 453.64C-136.131 454.901 -140.878 455.001 -145.989 453.939L-146.786 450.005C-145.16 447.084 -144.147 438.537 -143.749 424.364C-143.351 410.158 -143.151 394.69 -143.151 377.962C-142.62 363.39 -143.118 354.86 -144.645 352.37L-144.695 348.786ZM-16.8083 384.832C-14.8832 380.285 -12.4601 376.783 -9.53923 374.327C-6.58511 371.838 -2.91737 370.593 1.46401 370.593C6.87435 370.593 11.0234 372.352 13.9111 375.87C16.1018 378.493 17.1971 381.297 17.1971 384.285C17.1971 389.197 14.1103 394.276 7.93651 399.52C12.0855 401.146 15.2222 403.47 17.3465 406.49C19.4708 409.511 20.533 413.062 20.533 417.145C20.533 422.987 18.6742 428.049 14.9567 432.331C10.1106 437.907 3.09043 440.695 -6.10383 440.695C-10.6512 440.695 -13.7546 440.131 -15.4143 439.002C-17.0407 437.874 -17.8539 436.662 -17.8539 435.368C-17.8539 434.405 -17.4722 433.559 -16.7088 432.828C-15.9121 432.098 -14.9662 431.733 -13.8708 431.733C-13.041 431.733 -12.1946 431.866 -11.3316 432.131C-10.7673 432.297 -9.48944 432.911 -7.4979 433.974C-5.50636 435.003 -4.12888 435.617 -3.36546 435.816C-2.13735 436.181 -0.826254 436.363 0.567821 436.363C3.95343 436.363 6.89095 435.052 9.38037 432.43C11.903 429.808 13.1643 426.704 13.1643 423.12C13.1643 420.497 12.5834 417.942 11.4217 415.452C10.5587 413.593 9.61272 412.183 8.58375 411.22C7.15649 409.893 5.19814 408.698 2.70872 407.635C0.219303 406.54 -2.31991 405.992 -4.9089 405.992H-6.50213V404.499C-3.87994 404.167 -1.25775 403.221 1.36444 401.661C4.01982 400.101 5.94497 398.225 7.13989 396.035C8.33481 393.844 8.93227 391.438 8.93227 388.815C8.93227 385.397 7.85352 382.642 5.69603 380.551C3.57172 378.426 0.91634 377.364 -2.27012 377.364C-7.41492 377.364 -11.7133 380.119 -15.1653 385.629L-16.8083 384.832ZM80.9064 348.935L82.9477 347.342L93.4033 347.69L94.399 350.976C92.8058 352.536 92.8722 354.959 94.5982 358.245C108.273 385.662 118.762 406.59 126.064 421.029C133.4 435.467 139.325 443.251 143.839 444.379V448.562L131.691 454.437L128.753 452.246C128.886 449.292 116.837 423.435 92.6067 374.676C90.5487 369.863 88.69 370.161 87.0304 375.572C69.2061 423.369 62.2357 448.578 66.1192 451.2L65.223 455.432L49.3903 451.35L50.1869 445.574C53.9709 443.583 63.6132 417.51 79.114 367.357C81.4707 357.366 82.0681 351.225 80.9064 348.935ZM205.905 351.325L205.855 347.84L219.597 347.79L219.945 351.126C217.655 352.752 217.008 356.669 218.004 362.876C219 369.049 231.812 385.181 256.44 411.27C258.067 412.697 259.544 412.631 260.872 411.071C266.415 403.271 273.153 391.637 281.086 376.169C289.019 360.702 291.657 352.37 289.002 351.175L289.052 347.989L302.694 347.74L302.544 352.121C300.453 353.549 300.155 358.992 301.648 368.452C311.075 384.749 318.958 401.81 325.298 419.634C331.637 437.426 336.085 446.255 338.641 446.122L339.487 450.205C336.6 452.96 331.023 454.868 322.759 455.93L320.817 452.893C322.709 449.142 320.85 440.396 315.241 426.655C309.631 412.88 303.275 400.532 296.172 389.612C294.114 385.729 290.479 388.102 285.268 396.732C279.26 407.785 272.024 418.124 263.56 427.75C261.867 431.268 259.129 431.949 255.345 429.791L218.8 387.123C216.975 382.741 214.85 382.774 212.427 387.222C196.097 423.933 189.326 443.417 192.114 445.674L190.471 448.562L174.638 444.479L174.389 439.948C178.339 438.82 185.044 424.099 194.504 395.786C203.963 367.473 207.764 352.652 205.905 351.325ZM391.596 347.69H406.732L406.682 350.429C404.624 353.715 403.263 360.403 402.599 370.493L403.495 422.97C403.495 439.633 404.574 449.059 406.732 451.25L407.18 454.636L390.55 455.333L390.65 451.2C392.642 447.35 393.272 439.069 392.542 426.356L392.193 370.145C392.924 360.585 392.691 353.914 391.496 350.13L391.596 347.69ZM397.122 359.291C404.989 359.291 411.644 362.029 417.088 367.506C422.531 372.983 425.253 379.621 425.253 387.421C425.253 395.155 422.515 401.76 417.038 407.237C411.561 412.681 404.923 415.402 397.122 415.402C389.389 415.402 382.783 412.681 377.307 407.237C371.83 401.76 369.092 395.155 369.092 387.421C369.092 379.621 371.813 372.983 377.257 367.506C382.7 362.029 389.322 359.291 397.122 359.291ZM397.073 369.597C392.227 369.597 388.094 371.307 384.675 374.725C381.29 378.111 379.597 382.227 379.597 387.073C379.597 391.886 381.29 396.002 384.675 399.42C388.094 402.806 392.227 404.499 397.073 404.499C401.886 404.499 405.985 402.806 409.37 399.42C412.789 396.002 414.499 391.886 414.499 387.073C414.499 382.227 412.806 378.111 409.42 374.725C406.035 371.307 401.919 369.597 397.073 369.597ZM462.276 384.832C464.201 380.285 466.624 376.783 469.545 374.327C472.499 371.838 476.167 370.593 480.548 370.593C485.958 370.593 490.107 372.352 492.995 375.87C495.186 378.493 496.281 381.297 496.281 384.285C496.281 389.197 493.194 394.276 487.02 399.52C491.17 401.146 494.306 403.47 496.43 406.49C498.555 409.511 499.617 413.062 499.617 417.145C499.617 422.987 497.758 428.049 494.041 432.331C489.195 437.907 482.174 440.695 472.98 440.695C468.433 440.695 465.329 440.131 463.67 439.002C462.043 437.874 461.23 436.662 461.23 435.368C461.23 434.405 461.612 433.559 462.375 432.828C463.172 432.098 464.118 431.733 465.213 431.733C466.043 431.733 466.889 431.866 467.752 432.131C468.317 432.297 469.595 432.911 471.586 433.974C473.578 435.003 474.955 435.617 475.719 435.816C476.947 436.181 478.258 436.363 479.652 436.363C483.037 436.363 485.975 435.052 488.464 432.43C490.987 429.808 492.248 426.704 492.248 423.12C492.248 420.497 491.667 417.942 490.506 415.452C489.643 413.593 488.697 412.183 487.668 411.22C486.24 409.893 484.282 408.698 481.793 407.635C479.303 406.54 476.764 405.992 474.175 405.992H472.582V404.499C475.204 404.167 477.826 403.221 480.448 401.661C483.104 400.101 485.029 398.225 486.224 396.035C487.419 393.844 488.016 391.438 488.016 388.815C488.016 385.397 486.938 382.642 484.78 380.551C482.656 378.426 480 377.364 476.814 377.364C471.669 377.364 467.371 380.119 463.919 385.629L462.276 384.832ZM532.955 347.69C534.15 349.118 538.133 349.732 544.904 349.532L599.473 351.524C607.571 351.723 612.351 350.893 613.812 349.035L616.251 348.935L615.056 364.618L612.318 364.768C610.957 362.677 607.007 361.548 600.468 361.382L545.751 359.341C545.353 380.849 544.241 405.578 542.415 433.525C542.05 443.649 543.577 449.839 546.996 452.097L546.896 454.735L528.624 454.337L528.225 451.2C531.843 448.512 533.835 434.604 534.2 409.478L535.544 361.382C535.013 357.731 532.656 355.856 528.474 355.756L529.868 347.541L532.955 347.69ZM706.398 350.13V347.292C716.256 347.557 722.397 348.122 724.82 348.985L724.72 352.918C722.729 354.013 721.866 357.781 722.131 364.22L721.683 436.264C722.015 443.699 723.227 448.213 725.318 449.806L724.87 453.789L707.842 454.088L707.444 450.304C708.871 448.91 709.585 446.753 709.585 443.832L707.942 405.495C708.174 403.636 707.427 402.557 705.701 402.258L663.879 402.009C661.522 402.009 660.493 403.237 660.792 405.694C660.526 434.571 661.539 449.856 663.829 451.549L663.232 454.735L646.801 455.034L645.855 451.947C647.814 449.823 648.66 439.251 648.395 420.232C648.129 401.213 648.162 386.027 648.494 374.676C648.859 363.324 648.229 356.636 646.602 354.611L647.05 351.225C654.353 350.595 660.112 350.976 664.327 352.37L663.73 356.503C661.273 357.532 660.145 367.506 660.344 386.426C660.311 388.716 661.539 389.911 664.028 390.01L706.348 390.558C708.008 390.591 708.987 389.761 709.286 388.069L708.688 357.698C708.423 353.98 707.66 351.458 706.398 350.13ZM801.773 370.593V372.435C797.391 372.867 793.807 373.746 791.019 375.074C788.264 376.368 785.525 378.36 782.803 381.048C780.115 383.737 777.874 386.741 776.082 390.06C774.323 393.346 772.846 397.263 771.651 401.81C776.431 398.524 781.227 396.881 786.04 396.881C790.653 396.881 794.653 398.74 798.039 402.457C801.424 406.175 803.117 410.955 803.117 416.797C803.117 422.439 801.408 427.584 797.989 432.231C793.873 437.874 788.43 440.695 781.658 440.695C777.045 440.695 773.128 439.168 769.908 436.114C763.602 430.173 760.448 422.472 760.448 413.013C760.448 406.972 761.66 401.229 764.083 395.786C766.506 390.342 769.958 385.513 774.439 381.297C778.953 377.082 783.268 374.244 787.384 372.784C791.5 371.323 795.334 370.593 798.885 370.593H801.773ZM770.804 405.445C770.207 409.926 769.908 413.544 769.908 416.299C769.908 419.485 770.489 422.954 771.651 426.704C772.846 430.422 774.605 433.376 776.928 435.567C778.621 437.127 780.679 437.907 783.102 437.907C785.99 437.907 788.562 436.546 790.819 433.824C793.11 431.102 794.255 427.219 794.255 422.174C794.255 416.498 793.126 411.585 790.869 407.436C788.612 403.287 785.409 401.213 781.26 401.213C779.999 401.213 778.638 401.478 777.177 402.009C775.75 402.54 773.626 403.686 770.804 405.445ZM837.7 371.987H873.896V373.879L851.392 440.894H845.816L865.98 380.102H847.409C843.658 380.102 840.986 380.551 839.393 381.447C836.605 382.974 834.364 385.33 832.672 388.517L831.228 387.969L837.7 371.987ZM900.314 347.989L904.297 347.64C906.355 349.2 910.056 349.914 915.4 349.781L989.634 350.777C995.045 350.91 998.198 350.18 999.094 348.586L1002.33 349.134C1003.72 355.275 1003.49 360.005 1001.63 363.324L997.601 363.722C995.509 361.332 987.344 360.336 973.105 360.735L919.582 360.934C910.321 360.868 904.679 361.648 902.654 363.274L899.02 362.328C898.887 354.926 899.318 350.146 900.314 347.989ZM931.233 389.612L935.216 389.264C937.274 390.824 940.975 391.537 946.319 391.404L960.359 392.799C965.769 392.931 968.922 392.201 969.819 390.608L973.055 391.156C974.449 397.296 974.217 402.026 972.358 405.345L968.325 405.744C966.234 403.354 960.292 402.292 950.501 402.557C941.24 402.491 935.597 403.271 933.573 404.897L929.938 403.951C929.805 396.549 930.237 391.77 931.233 389.612ZM1003.77 450.653L999.791 451.051C997.7 449.524 993.983 448.86 988.639 449.059L914.454 448.761C909.01 448.661 905.857 449.408 904.994 451.001L901.758 450.454C900.297 443.018 900.48 437.641 902.306 434.322L906.289 433.924C908.446 436.28 912.114 437.326 917.292 437.06L984.357 437.957C993.651 437.923 999.293 437.077 1001.28 435.417L1004.92 436.363C1005.12 443.732 1004.74 448.495 1003.77 450.653ZM1043.49 347.84C1046.77 348.503 1050.66 348.952 1055.14 349.184L1168.65 350.727C1173.2 350.827 1176.47 350.395 1178.46 349.433L1181.25 349.383C1182.15 352.404 1181.95 356.818 1180.65 362.627L1177.57 362.826C1176.3 360.702 1174.18 359.573 1171.19 359.44L1140.97 359.341L1142.07 439.251C1142.33 444.23 1143.05 447.947 1144.21 450.404L1143.91 453.74C1140.16 454.735 1136.19 454.636 1132.01 453.441L1131.61 448.163C1133.4 446.338 1134.28 443.433 1134.25 439.45L1131.81 368.502L1131.86 359.191L1070.52 358.096C1068.33 358.229 1067.02 359.225 1066.59 361.083L1061.61 440.546C1061.24 445.226 1062.27 448.479 1064.7 450.304L1063.65 454.038C1057.81 455.233 1052.78 454.785 1048.56 452.694L1048.61 448.96C1050.04 447.632 1050.94 445.11 1051.3 441.392L1057.82 360.088C1057.86 358.229 1057.06 357.1 1055.43 356.702C1049.56 356.768 1045.19 357.515 1042.34 358.942L1039.1 358.395C1038.71 353.283 1039.02 349.665 1040.05 347.541L1043.49 347.84ZM1219.12 440.894V439.052C1223.43 438.986 1227.45 437.99 1231.17 436.065C1234.89 434.106 1238.47 430.704 1241.92 425.858C1245.41 421.012 1247.83 415.685 1249.19 409.876C1243.98 413.228 1239.27 414.905 1235.05 414.905C1230.3 414.905 1226.24 413.079 1222.85 409.428C1219.47 405.744 1217.77 400.864 1217.77 394.79C1217.77 388.882 1219.47 383.621 1222.85 379.007C1226.94 373.398 1232.26 370.593 1238.84 370.593C1244.38 370.593 1249.12 372.883 1253.07 377.464C1257.92 383.14 1260.34 390.143 1260.34 398.474C1260.34 405.976 1258.5 412.979 1254.82 419.485C1251.13 425.958 1246 431.335 1239.43 435.617C1234.09 439.135 1228.26 440.894 1221.96 440.894H1219.12ZM1249.99 406.192C1250.59 401.877 1250.88 398.425 1250.88 395.836C1250.88 392.616 1250.34 389.147 1249.24 385.43C1248.15 381.679 1246.59 378.808 1244.56 376.816C1242.57 374.825 1240.3 373.829 1237.74 373.829C1234.79 373.829 1232.2 375.157 1229.97 377.812C1227.75 380.468 1226.64 384.417 1226.64 389.662C1226.64 396.665 1228.11 402.142 1231.07 406.092C1233.23 408.947 1235.88 410.374 1239.03 410.374C1240.56 410.374 1242.37 410.009 1244.46 409.278C1246.55 408.548 1248.39 407.519 1249.99 406.192ZM1307.08 347.491H1316.78C1334.04 346.163 1342.67 351.64 1342.67 363.921C1341.61 376.833 1327.37 388.201 1299.96 398.026L1299.36 436.911C1299.49 442.952 1300.85 447.317 1303.44 450.005L1301.6 454.088C1295.42 455.582 1289.52 455.665 1283.87 454.337L1283.82 449.458C1286.21 448.396 1287.74 444.429 1288.4 437.558C1289 414.224 1289.83 389.595 1290.89 363.672C1289.67 351.823 1295.06 346.429 1307.08 347.491ZM1299.36 360.336L1299.16 386.326C1319.44 382.011 1330.58 374.377 1332.57 363.423C1331.11 357.117 1325.86 354.096 1316.83 354.362L1309.07 355.457C1302.59 356.121 1299.36 357.747 1299.36 360.336ZM1417.09 371.987L1413.2 380.451H1392.89L1388.46 389.512C1397.26 390.807 1404.23 394.076 1409.37 399.321C1413.79 403.835 1415.99 409.146 1415.99 415.253C1415.99 418.805 1415.26 422.091 1413.8 425.111C1412.37 428.132 1410.57 430.704 1408.37 432.828C1406.18 434.953 1403.74 436.662 1401.06 437.957C1397.24 439.782 1393.32 440.695 1389.31 440.695C1385.26 440.695 1382.3 440.015 1380.44 438.654C1378.62 437.26 1377.71 435.733 1377.71 434.073C1377.71 433.144 1378.09 432.331 1378.85 431.633C1379.61 430.903 1380.58 430.538 1381.74 430.538C1382.6 430.538 1383.35 430.671 1383.98 430.936C1384.64 431.202 1385.75 431.882 1387.31 432.978C1389.8 434.704 1392.33 435.567 1394.88 435.567C1398.77 435.567 1402.17 434.106 1405.09 431.185C1408.04 428.231 1409.52 424.647 1409.52 420.431C1409.52 416.348 1408.21 412.548 1405.59 409.03C1402.96 405.478 1399.35 402.74 1394.73 400.814C1391.11 399.321 1386.19 398.458 1379.95 398.225L1392.89 371.987H1417.09ZM1447.44 350.877C1447.87 353.93 1463.77 355.109 1495.14 354.412C1526.54 353.715 1543.86 352.785 1547.12 351.624L1549.31 351.574L1547.81 365.813L1545.52 365.664C1543.8 364.303 1540.84 363.788 1536.66 364.12L1503.8 364.718L1503.65 438.803C1503.25 443.616 1504.61 447.134 1507.73 449.358V452.345C1500.16 453.872 1493.08 453.922 1486.47 452.495V449.458C1489.99 448.263 1491.67 444.728 1491.5 438.853L1490.36 365.116L1471.29 364.718C1455.85 363.988 1448 364.552 1447.74 366.411L1444.65 366.46L1444.7 351.225L1447.44 350.877ZM1598.78 405.495C1593.43 401.113 1589.98 397.595 1588.42 394.939C1586.89 392.284 1586.13 389.529 1586.13 386.675C1586.13 382.293 1587.82 378.526 1591.21 375.373C1594.59 372.186 1599.09 370.593 1604.7 370.593C1610.14 370.593 1614.53 372.07 1617.84 375.024C1621.16 377.978 1622.82 381.347 1622.82 385.131C1622.82 387.654 1621.93 390.226 1620.13 392.848C1618.34 395.471 1614.61 398.557 1608.93 402.109C1614.77 406.623 1618.64 410.175 1620.53 412.764C1623.06 416.149 1624.32 419.717 1624.32 423.468C1624.32 428.215 1622.51 432.281 1618.89 435.666C1615.27 439.019 1610.53 440.695 1604.65 440.695C1598.24 440.695 1593.25 438.687 1589.66 434.671C1586.81 431.451 1585.38 427.933 1585.38 424.115C1585.38 421.128 1586.38 418.174 1588.37 415.253C1590.39 412.299 1593.86 409.046 1598.78 405.495ZM1606.59 400.167C1610.58 396.582 1613.1 393.761 1614.16 391.703C1615.22 389.612 1615.75 387.255 1615.75 384.633C1615.75 381.148 1614.77 378.426 1612.82 376.468C1610.86 374.476 1608.19 373.481 1604.8 373.481C1601.41 373.481 1598.66 374.46 1596.54 376.418C1594.41 378.376 1593.35 380.667 1593.35 383.289C1593.35 385.015 1593.78 386.741 1594.64 388.467C1595.54 390.193 1596.8 391.836 1598.43 393.396L1606.59 400.167ZM1601.12 407.387C1598.36 409.71 1596.32 412.249 1594.99 415.004C1593.66 417.726 1593 420.68 1593 423.866C1593 428.148 1594.16 431.584 1596.49 434.173C1598.84 436.729 1601.83 438.006 1605.45 438.006C1609.03 438.006 1611.9 436.994 1614.06 434.969C1616.22 432.945 1617.3 430.488 1617.3 427.601C1617.3 425.211 1616.67 423.07 1615.4 421.178C1613.05 417.66 1608.29 413.062 1601.12 407.387ZM1680.59 351.574C1682.35 353.3 1686.18 354.262 1692.09 354.461H1787.28C1792.99 354.229 1793.84 356.735 1789.82 361.98C1784.45 367.025 1774.47 375.157 1759.9 386.376C1745.36 397.562 1726.06 412.581 1702 431.434C1697.02 434.588 1697.02 436.43 1702 436.961L1778.07 436.712C1782.09 437.044 1784.71 436.579 1785.94 435.318L1787.78 437.21C1789.31 440.662 1789.13 445.558 1787.23 451.897L1783.2 452.893C1781.68 450.669 1779 449.441 1775.19 449.209L1717.38 449.557H1680.84C1675.26 449.159 1672.07 447.3 1671.28 443.981C1670.35 441.525 1674.6 436.446 1684.02 428.746C1692.32 422.273 1718.29 402.142 1761.94 368.352C1762.9 367.058 1762.27 366.444 1760.05 366.51C1749.73 367.606 1725.66 368.103 1687.86 368.004C1683.24 366.942 1679.36 367.108 1676.21 368.502L1673.87 367.506C1673.73 361.166 1675.08 355.656 1677.9 350.976L1680.59 351.574ZM1872.85 426.505L1868.12 439.5H1828.29V437.658C1840.01 426.97 1848.26 418.24 1853.04 411.469C1857.81 404.698 1860.2 398.508 1860.2 392.898C1860.2 388.616 1858.89 385.098 1856.27 382.343C1853.65 379.588 1850.51 378.211 1846.86 378.211C1843.54 378.211 1840.55 379.19 1837.9 381.148C1835.28 383.073 1833.34 385.911 1832.07 389.662H1830.23C1831.06 383.521 1833.19 378.808 1836.61 375.522C1840.06 372.236 1844.36 370.593 1849.5 370.593C1854.98 370.593 1859.54 372.352 1863.19 375.87C1866.88 379.389 1868.72 383.538 1868.72 388.318C1868.72 391.736 1867.92 395.155 1866.33 398.574C1863.87 403.951 1859.89 409.644 1854.38 415.651C1846.11 424.68 1840.95 430.123 1838.9 431.982H1856.52C1860.11 431.982 1862.61 431.849 1864.04 431.584C1865.5 431.318 1866.81 430.787 1867.97 429.99C1869.13 429.161 1870.15 427.999 1871.01 426.505H1872.85ZM-486.96 519.69C-458.282 521.682 -441.271 533.365 -435.927 554.741C-433.139 561.513 -432.01 569.645 -432.542 579.138C-435.496 607.384 -452.606 623.101 -483.873 626.287L-493.781 626.337C-512.303 625.906 -526.708 617.641 -536.998 601.542C-541.81 594.041 -544.582 583.934 -545.312 571.221C-545.578 558.608 -540.4 546.543 -529.778 535.025C-518.46 524.105 -504.187 518.993 -486.96 519.69ZM-533.463 568.931C-533.728 595.086 -520.501 610.322 -493.781 614.637H-482.828C-465.302 612.114 -453.469 604.165 -447.329 590.788C-444.574 586.34 -443.196 580.416 -443.196 573.014C-443.628 547.953 -456.838 533.847 -482.828 530.693H-488.305C-515.124 530.76 -530.177 543.506 -533.463 568.931ZM-503.789 563.205C-496.586 566.06 -490.197 567.354 -484.62 567.089C-479.011 566.823 -473.932 565.579 -469.385 563.355L-470.281 570.225L-469.534 581.826C-474.945 577.677 -479.957 575.603 -484.57 575.603C-489.184 575.569 -495.225 577.312 -502.693 580.83L-501.648 570.375L-503.789 563.205ZM-354.692 542.593V544.435C-359.074 544.867 -362.659 545.746 -365.447 547.074C-368.202 548.368 -370.94 550.36 -373.662 553.048C-376.35 555.737 -378.591 558.741 -380.383 562.06C-382.142 565.346 -383.619 569.263 -384.814 573.81C-380.035 570.524 -375.238 568.881 -370.426 568.881C-365.812 568.881 -361.812 570.74 -358.427 574.458C-355.041 578.175 -353.348 582.955 -353.348 588.797C-353.348 594.439 -355.057 599.584 -358.476 604.231C-362.592 609.874 -368.036 612.695 -374.807 612.695C-379.421 612.695 -383.337 611.168 -386.557 608.114C-392.863 602.173 -396.017 594.472 -396.017 585.013C-396.017 578.972 -394.805 573.229 -392.382 567.786C-389.959 562.342 -386.507 557.513 -382.026 553.297C-377.512 549.082 -373.197 546.244 -369.081 544.784C-364.965 543.323 -361.132 542.593 -357.58 542.593H-354.692ZM-385.661 577.445C-386.258 581.926 -386.557 585.544 -386.557 588.299C-386.557 591.485 -385.976 594.954 -384.814 598.704C-383.619 602.422 -381.86 605.376 -379.537 607.567C-377.844 609.127 -375.786 609.907 -373.363 609.907C-370.475 609.907 -367.903 608.546 -365.646 605.824C-363.356 603.102 -362.21 599.219 -362.21 594.174C-362.21 588.498 -363.339 583.585 -365.596 579.436C-367.853 575.287 -371.056 573.213 -375.205 573.213C-376.467 573.213 -377.827 573.478 -379.288 574.009C-380.715 574.54 -382.839 575.686 -385.661 577.445ZM-226.706 519.79C-195.572 521.549 -178.179 533.15 -174.528 554.592V565.496L-178.86 615.483L-150.729 616.28C-149.07 616.612 -147.028 616.213 -144.605 615.085L-141.369 615.633C-140.041 619.383 -140.008 623.383 -141.269 627.632L-143.908 628.826C-145.9 627.2 -150.762 626.387 -158.496 626.387L-183.689 625.54C-189.597 626.105 -192.137 623.615 -191.307 618.072L-187.174 566.292L-187.573 556.434C-190.626 540.07 -205.795 531.756 -233.079 531.49C-257.675 531.092 -274.42 540.253 -283.316 558.973C-287.797 568.566 -288.51 579.436 -285.457 591.585L-277.192 612.048C-275.233 615.832 -275.814 618.437 -278.934 619.865H-322.449L-329.171 619.217C-329.503 613.442 -328.789 609.857 -327.03 608.463L-323.545 608.264C-322.117 610.355 -318.665 611.251 -313.189 610.952L-300.194 611.102L-291.282 610.006L-298.551 587.253C-300.045 581.478 -300.31 575.785 -299.348 570.176C-297.057 553.513 -287.979 539.539 -272.113 528.254C-261.226 521.549 -246.091 518.728 -226.706 519.79ZM-78.0082 523.325L-78.058 519.84L-64.3164 519.79L-63.9679 523.126C-66.2582 524.752 -66.9054 528.669 -65.9096 534.876C-64.9139 541.049 -52.1017 557.181 -27.473 583.27C-25.8466 584.697 -24.3695 584.631 -23.0418 583.071C-17.4987 575.271 -10.7607 563.637 -2.82773 548.169C5.10522 532.702 7.74401 524.37 5.08862 523.175L5.13841 519.989L18.7804 519.74L18.6311 524.121C16.54 525.549 16.2412 530.992 17.7349 540.452C27.1615 556.749 35.0446 573.81 41.3844 591.635C47.7241 609.426 52.1719 618.255 54.7277 618.122L55.5741 622.205C52.6863 624.96 47.11 626.868 38.8452 627.93L36.9034 624.893C38.7954 621.142 36.9366 612.396 31.3271 598.655C25.7176 584.88 19.3613 572.532 12.2582 561.612C10.2002 557.729 6.56568 560.102 1.35449 568.732C-4.65331 579.785 -11.8892 590.124 -20.3533 599.75C-22.0461 603.268 -24.7844 603.949 -28.5683 601.791L-65.113 559.123C-66.9386 554.741 -69.0629 554.774 -71.4859 559.222C-87.8165 595.933 -94.5878 615.417 -91.7996 617.674L-93.4426 620.562L-109.275 616.479L-109.524 611.948C-105.574 610.82 -98.8696 596.099 -89.4098 567.786C-79.95 539.473 -76.1495 524.652 -78.0082 523.325ZM89.709 519.69H93.3436L109.326 539.855L159.96 601.493C164.574 608.629 168.01 612.064 170.267 611.799L169.719 592.68C169.951 546.078 168.723 522.744 166.035 522.678L166.732 519.392L182.614 519.79L183.411 522.877C181.652 523.972 180.772 527.275 180.772 532.785L180.672 608.314C180.407 615.682 181.104 620.545 182.764 622.902L181.768 627.134C177.22 628.395 172.524 628.329 167.678 626.934C162.832 623.549 157.454 617.79 151.546 609.658C146.003 602.389 135.879 590.805 121.175 574.906C110.255 561.33 103.185 552.7 99.9654 549.016C98.1067 548.086 97.3764 549.016 97.7747 551.804L96.9781 581.378C97.6752 605.409 99.285 617.823 101.808 618.62L102.007 624.097L85.0787 624.893L84.8795 618.869C87.037 617.11 87.7673 610.023 87.0702 597.609C86.4064 585.162 86.4396 569.877 87.1698 551.754C87.9332 533.598 87.2362 523.59 85.0787 521.732C85.7425 520.371 87.286 519.69 89.709 519.69ZM262.554 586.606V593.676H253.493V611.5H245.278V593.676H216.699V587.303L248.016 542.593H253.493V586.606H262.554ZM245.278 586.606V553.098L221.579 586.606H245.278ZM308.439 519.491H318.148C335.408 518.163 344.038 523.64 344.038 535.921C343.673 550.061 336.138 560.002 321.434 565.745C311.609 568.134 309.999 569.23 316.605 569.031C330.081 570.358 339.009 574.292 343.391 580.83C348.801 589.095 350.378 597.593 348.121 606.322C344.005 618.703 334.761 625.789 320.389 627.582C302.598 628.08 290.881 627.665 285.238 626.337L285.188 621.458C287.578 620.396 289.105 616.429 289.769 609.558C290.366 586.224 291.196 561.595 292.258 535.672C291.03 523.823 296.424 518.429 308.439 519.491ZM300.722 532.337L300.523 558.326C320.936 556.866 332.072 549.231 333.931 535.423C332.471 529.117 327.226 526.096 318.198 526.362L310.431 527.457C303.958 528.121 300.722 529.748 300.722 532.337ZM302.315 578.69L300.523 615.135C320.638 616.661 332.305 612.712 335.524 603.285C337.35 593.726 334.512 586.954 327.01 582.971C319.741 580.017 311.51 578.59 302.315 578.69ZM383.451 519.989L387.434 519.64C389.492 521.201 393.193 521.914 398.536 521.781L472.771 522.777C478.181 522.91 481.335 522.18 482.231 520.586L485.467 521.134C486.861 527.275 486.629 532.005 484.77 535.324L480.737 535.722C478.646 533.332 470.481 532.337 456.241 532.735L402.719 532.934C393.458 532.868 387.815 533.648 385.791 535.274L382.156 534.328C382.023 526.926 382.455 522.146 383.451 519.989ZM414.369 561.612L418.352 561.264C420.41 562.824 424.111 563.537 429.455 563.404L443.495 564.799C448.906 564.931 452.059 564.201 452.955 562.608L456.191 563.156C457.586 569.296 457.353 574.026 455.494 577.345L451.462 577.744C449.37 575.354 443.429 574.292 433.637 574.557C424.377 574.491 418.734 575.271 416.709 576.897L413.075 575.951C412.942 568.549 413.373 563.77 414.369 561.612ZM486.911 622.653L482.928 623.051C480.837 621.524 477.119 620.86 471.775 621.059L397.591 620.761C392.147 620.661 388.994 621.408 388.131 623.001L384.894 622.454C383.434 615.018 383.617 609.641 385.442 606.322L389.425 605.924C391.583 608.28 395.25 609.326 400.428 609.06L467.493 609.957C476.787 609.923 482.43 609.077 484.421 607.417L488.056 608.363C488.255 615.732 487.873 620.495 486.911 622.653ZM525.527 578.142C525.527 570.441 526.689 563.819 529.012 558.276C531.336 552.7 534.422 548.551 538.273 545.829C541.26 543.672 544.347 542.593 547.533 542.593C552.711 542.593 557.358 545.232 561.474 550.509C566.619 557.048 569.191 565.91 569.191 577.096C569.191 584.93 568.063 591.585 565.806 597.061C563.549 602.538 560.661 606.521 557.143 609.011C553.657 611.467 550.288 612.695 547.035 612.695C540.596 612.695 535.236 608.894 530.954 601.293C527.336 594.887 525.527 587.17 525.527 578.142ZM535.285 579.387C535.285 588.68 536.431 596.265 538.721 602.14C540.613 607.086 543.434 609.558 547.185 609.558C548.977 609.558 550.836 608.762 552.761 607.168C554.686 605.542 556.147 602.837 557.143 599.053C558.669 593.344 559.433 585.295 559.433 574.906C559.433 567.205 558.636 560.782 557.043 555.637C555.848 551.82 554.305 549.115 552.413 547.522C551.052 546.427 549.409 545.879 547.484 545.879C545.226 545.879 543.218 546.891 541.459 548.916C539.069 551.671 537.443 556.003 536.58 561.911C535.717 567.819 535.285 573.644 535.285 579.387ZM672.184 519.69H673.528L673.777 533.631L669.843 534.179C668.151 531.424 647.057 529.714 606.562 529.05V530.395C606.562 533.946 613.35 542.112 626.926 554.891C636.12 564.682 643.074 571.155 647.787 574.308C648.849 575.304 648.916 576.698 647.986 578.49L634.593 591.485C628.386 600.082 622.345 607.301 616.47 613.143C615.275 615.533 615.723 616.861 617.815 617.126L663.072 618.022C668.748 618.421 672.101 617.74 673.13 615.981L675.519 616.031L674.773 630.37L671.487 630.021C671.121 628.196 667.105 627.482 659.438 627.88C651.803 628.312 639.97 628.08 623.939 627.183C612.52 627.183 603.492 628.08 596.854 629.872L594.215 624.047L629.465 581.926C631.224 579.669 631.224 577.412 629.465 575.155C611.475 556.799 599.708 542.809 594.165 533.183C592.605 528.237 592.97 524.055 595.26 520.636L661.33 523.673C666.176 523.408 669.794 522.08 672.184 519.69ZM710.401 612.894V611.052C714.716 610.986 718.732 609.99 722.45 608.065C726.167 606.106 729.752 602.704 733.204 597.858C736.689 593.012 739.112 587.685 740.473 581.876C735.262 585.228 730.549 586.905 726.333 586.905C721.587 586.905 717.521 585.079 714.135 581.428C710.75 577.744 709.057 572.864 709.057 566.79C709.057 560.882 710.75 555.621 714.135 551.007C718.218 545.398 723.545 542.593 730.117 542.593C735.66 542.593 740.407 544.883 744.357 549.464C749.203 555.14 751.626 562.143 751.626 570.474C751.626 577.976 749.784 584.979 746.099 591.485C742.415 597.958 737.287 603.335 730.715 607.617C725.371 611.135 719.546 612.894 713.239 612.894H710.401ZM741.27 578.192C741.867 573.877 742.166 570.425 742.166 567.836C742.166 564.616 741.618 561.147 740.523 557.43C739.428 553.679 737.868 550.808 735.843 548.816C733.851 546.825 731.578 545.829 729.022 545.829C726.068 545.829 723.479 547.157 721.255 549.812C719.031 552.468 717.919 556.418 717.919 561.662C717.919 568.665 719.396 574.142 722.35 578.092C724.508 580.947 727.163 582.374 730.316 582.374C731.843 582.374 733.652 582.009 735.743 581.279C737.835 580.548 739.677 579.519 741.27 578.192ZM782.624 520.786C787.371 519.79 791.818 520.039 795.968 521.532L795.519 525.964C793.993 528.154 793.345 535.971 793.578 549.414C793.179 552.8 794.424 553.414 797.312 551.256L843.764 527.706C850.237 524.619 853.54 522.08 853.672 520.089L856.311 519.939C859.033 520.736 860.991 522.445 862.186 525.067L860.792 530.245C857.274 530.644 854.286 531.722 851.83 533.482L797.959 561.662C794.739 563.156 795.27 564.799 799.552 566.591C837.79 585.909 860.477 600.746 867.613 611.102C868.841 612.496 870.401 613.475 872.293 614.039L874.086 616.578C872.459 620.097 869.439 622.188 865.024 622.852L862.933 621.557C862.369 619.068 860.178 616.18 856.361 612.894C841.69 599.584 822.322 587.668 798.258 577.146C795.636 575.553 794.391 576.2 794.524 579.088L792.433 611.749C792.366 615.931 793.544 619.45 795.968 622.304L795.569 625.64C791.188 626.901 786.441 627.001 781.33 625.939L780.533 622.005C782.16 619.085 783.172 610.538 783.57 596.364C783.969 582.158 784.168 566.691 784.168 549.962C784.699 535.39 784.201 526.86 782.674 524.37L782.624 520.786ZM910.511 556.832C912.436 552.285 914.859 548.783 917.78 546.327C920.734 543.838 924.402 542.593 928.783 542.593C934.193 542.593 938.342 544.352 941.23 547.87C943.421 550.493 944.516 553.297 944.516 556.285C944.516 561.197 941.429 566.276 935.256 571.52C939.405 573.146 942.541 575.47 944.666 578.49C946.79 581.511 947.852 585.062 947.852 589.145C947.852 594.987 945.993 600.049 942.276 604.331C937.43 609.907 930.409 612.695 921.215 612.695C916.668 612.695 913.564 612.131 911.905 611.002C910.278 609.874 909.465 608.662 909.465 607.368C909.465 606.405 909.847 605.559 910.61 604.828C911.407 604.098 912.353 603.733 913.448 603.733C914.278 603.733 915.124 603.866 915.987 604.131C916.552 604.297 917.83 604.911 919.821 605.974C921.813 607.003 923.19 607.617 923.954 607.816C925.182 608.181 926.493 608.363 927.887 608.363C931.272 608.363 934.21 607.052 936.699 604.43C939.222 601.808 940.483 598.704 940.483 595.12C940.483 592.498 939.902 589.942 938.741 587.452C937.878 585.594 936.932 584.183 935.903 583.22C934.476 581.893 932.517 580.698 930.028 579.635C927.538 578.54 924.999 577.992 922.41 577.992H920.817V576.499C923.439 576.167 926.061 575.221 928.683 573.661C931.339 572.101 933.264 570.225 934.459 568.035C935.654 565.844 936.251 563.438 936.251 560.815C936.251 557.397 935.173 554.642 933.015 552.551C930.891 550.426 928.235 549.364 925.049 549.364C919.904 549.364 915.606 552.119 912.154 557.629L910.511 556.832ZM1008.23 520.935L1010.27 519.342L1020.72 519.69L1021.72 522.976C1020.12 524.536 1020.19 526.959 1021.92 530.245C1035.59 557.662 1046.08 578.59 1053.38 593.029C1060.72 607.467 1066.64 615.251 1071.16 616.379V620.562L1059.01 626.437L1056.07 624.246C1056.2 621.292 1044.16 595.435 1019.93 546.676C1017.87 541.863 1016.01 542.161 1014.35 547.572C996.525 595.369 989.555 620.578 993.438 623.2L992.542 627.432L976.709 623.35L977.506 617.574C981.29 615.583 990.932 589.51 1006.43 539.357C1008.79 529.366 1009.39 523.225 1008.23 520.935ZM1133.22 523.325L1133.17 519.84L1146.92 519.79L1147.26 523.126C1144.97 524.752 1144.33 528.669 1145.32 534.876C1146.32 541.049 1159.13 557.181 1183.76 583.27C1185.39 584.697 1186.86 584.631 1188.19 583.071C1193.73 575.271 1200.47 563.637 1208.4 548.169C1216.34 532.702 1218.98 524.37 1216.32 523.175L1216.37 519.989L1230.01 519.74L1229.86 524.121C1227.77 525.549 1227.47 530.992 1228.97 540.452C1238.39 556.749 1246.28 573.81 1252.62 591.635C1258.96 609.426 1263.4 618.255 1265.96 618.122L1266.81 622.205C1263.92 624.96 1258.34 626.868 1250.08 627.93L1248.14 624.893C1250.03 621.142 1248.17 612.396 1242.56 598.655C1236.95 584.88 1230.59 572.532 1223.49 561.612C1221.43 557.729 1217.8 560.102 1212.59 568.732C1206.58 579.785 1199.34 590.124 1190.88 599.75C1189.19 603.268 1186.45 603.949 1182.66 601.791L1146.12 559.123C1144.29 554.741 1142.17 554.774 1139.75 559.222C1123.42 595.933 1116.64 615.417 1119.43 617.674L1117.79 620.562L1101.96 616.479L1101.71 611.948C1105.66 610.82 1112.36 596.099 1121.82 567.786C1131.28 539.473 1135.08 524.652 1133.22 523.325Z" fill="url(#paint0_linear_2517_27055)"/>
<defs>
<linearGradient id="paint0_linear_2517_27055" x1="1852.39" y1="93.2502" x2="-363.375" y2="714.25" gradientUnits="userSpaceOnUse">
<stop offset="0.228575" stop-color="white" stop-opacity="0.13"/>
<stop offset="0.332604" stop-color="white" stop-opacity="0.0368448"/>
<stop offset="0.558982" stop-color="white" stop-opacity="0.0923"/>
<stop offset="0.668701" stop-color="white"/>
<stop offset="0.726045" stop-color="white" stop-opacity="0.38"/>
<stop offset="0.813863" stop-color="white" stop-opacity="0.0765752"/>
<stop offset="0.884367" stop-color="white" stop-opacity="0"/>
<stop offset="0.967581" stop-color="white" stop-opacity="0.1"/>
</linearGradient>
</defs>
</svg>
