<svg width="134" height="112" viewBox="0 0 134 112" fill="none" xmlns="http://www.w3.org/2000/svg">
<path d="M90.1057 61.3141C94.9289 75.4242 87.4003 90.7726 73.2901 95.5957C59.18 100.419 43.8315 92.8903 39.0084 78.7801C34.1853 64.67 41.7139 49.3215 55.8241 44.4984C69.9342 39.6753 85.2826 47.2039 90.1057 61.3141Z" fill="#121212"/>
<path fill-rule="evenodd" clip-rule="evenodd" d="M72.2214 92.4693C84.6049 88.2364 91.2122 74.7662 86.9793 62.3827C82.7464 49.9993 69.2762 43.3919 56.8927 47.6248C44.5093 51.8577 37.9019 65.328 42.1348 77.7114C46.3677 90.0949 59.838 96.7022 72.2214 92.4693ZM73.2901 95.5957C87.4003 90.7726 94.9289 75.4242 90.1057 61.3141C85.2826 47.2039 69.9342 39.6753 55.8241 44.4984C41.7139 49.3215 34.1853 64.67 39.0084 78.7801C43.8315 92.8903 59.18 100.419 73.2901 95.5957Z" fill="#45A9A7"/>
<path d="M74.3251 54.9104C71.2178 53.0178 67.598 52.1405 63.9691 52.4005C60.3401 52.6604 56.8823 54.0446 54.0765 56.3606C51.2706 58.6767 49.2561 61.8094 48.3131 65.3234C47.3701 68.8373 47.5454 72.5577 48.8147 75.9674C50.084 79.377 52.3842 82.3065 55.3954 84.3484C58.4067 86.3903 61.9793 87.4432 65.6166 87.3607C69.2539 87.2781 72.7752 86.0643 75.6907 83.888C78.6062 81.7116 80.7712 78.6809 81.8846 75.2172L74.6035 72.8768C73.9766 74.8272 72.7575 76.5337 71.1158 77.7592C69.4741 78.9847 67.4913 79.6682 65.4432 79.7147C63.395 79.7611 61.3833 79.1682 59.6877 78.0185C57.9921 76.8687 56.6969 75.2192 55.9822 73.2992C55.2675 71.3793 55.1687 69.2843 55.6997 67.3057C56.2307 65.327 57.3651 63.563 58.945 62.2588C60.525 60.9547 62.472 60.1752 64.5155 60.0289C66.5589 59.8825 68.5971 60.3765 70.3468 61.4422L74.3251 54.9104Z" fill="white"/>
<path d="M74.3251 54.9104C71.1357 52.9678 67.4087 52.0962 63.6886 52.4228C59.9686 52.7494 56.4505 54.2572 53.6484 56.7257L58.704 62.4644C60.2818 61.0744 62.2628 60.2254 64.3575 60.0415C66.4523 59.8576 68.5509 60.3484 70.3468 61.4422L74.3251 54.9104Z" fill="url(#paint0_linear_2250_13549)"/>
<path fill-rule="evenodd" clip-rule="evenodd" d="M65.9678 62.7783C66.313 62.7838 66.5884 63.0682 66.5828 63.4134L66.465 70.747C66.4595 71.0922 66.1751 71.3676 65.8299 71.3621L63.9547 71.332C63.6094 71.3264 63.3341 71.0421 63.3396 70.6968L63.4574 63.3632C63.4629 63.018 63.7473 62.7426 64.0925 62.7482L65.9678 62.7783Z" fill="#4CB3AD"/>
<g clip-path="url(#clip0_2250_13549)">
<path fill-rule="evenodd" clip-rule="evenodd" d="M106.301 15.8661C106.691 16.2567 106.691 16.8898 106.301 17.2803L97.7696 25.8116C97.3791 26.2021 96.7459 26.2021 96.3554 25.8116L92.6991 22.1553C92.3086 21.7648 92.3086 21.1317 92.6991 20.7411C93.0897 20.3506 93.7228 20.3506 94.1134 20.7411L97.0625 23.6903L104.887 15.8661C105.277 15.4756 105.91 15.4756 106.301 15.8661Z" fill="white"/>
<path fill-rule="evenodd" clip-rule="evenodd" d="M99.5 6.60449C91.9751 6.60449 85.875 12.7046 85.875 20.2295C85.875 27.7544 91.9751 33.8545 99.5 33.8545C107.025 33.8545 113.125 27.7544 113.125 20.2295C113.125 12.7046 107.025 6.60449 99.5 6.60449ZM83.875 20.2295C83.875 11.6 90.8706 4.60449 99.5 4.60449C108.129 4.60449 115.125 11.6 115.125 20.2295C115.125 28.8589 108.129 35.8545 99.5 35.8545C90.8706 35.8545 83.875 28.8589 83.875 20.2295Z" fill="white"/>
</g>
<g opacity="0.7" clip-path="url(#clip1_2250_13549)">
<path fill-rule="evenodd" clip-rule="evenodd" d="M25.9572 96.7336C26.1246 97.1124 25.9532 97.5553 25.5743 97.7227L19.6319 100.348C19.2531 100.516 18.8102 100.344 18.6428 99.9652L17.5176 97.4185C17.3502 97.0396 17.5216 96.5968 17.9005 96.4294C18.2794 96.262 18.7222 96.4334 18.8896 96.8123L19.7118 98.673L24.9681 96.3506C25.347 96.1832 25.7898 96.3547 25.9572 96.7336Z" fill="white"/>
<path fill-rule="evenodd" clip-rule="evenodd" d="M24.074 91.0439C20.4044 89.6233 16.2779 91.4464 14.8573 95.1161C13.4366 98.7857 15.2598 102.912 18.9295 104.333C22.5991 105.753 26.7256 103.93 28.1462 100.261C29.5669 96.591 27.7437 92.4645 24.074 91.0439ZM13.4584 94.5746C15.1782 90.1324 20.1734 87.9254 24.6156 89.6451C29.0578 91.3648 31.2648 96.36 29.5451 100.802C27.8253 105.244 22.8301 107.451 18.3879 105.732C13.9457 104.012 11.7387 99.0168 13.4584 94.5746Z" fill="white"/>
</g>
<path fill-rule="evenodd" clip-rule="evenodd" d="M0.872646 29.8838L8.21421 28.3619L14.5995 34.0102L19.4014 26.0427L22.5337 25.3933L16.3872 35.5918L27.5332 45.4512L20.1916 46.9732L13.2358 40.8203L8.00487 49.4996L4.87252 50.149L11.4482 39.2388L0.872646 29.8838ZM3.03069 30.4577L12.7346 39.0416L6.91023 48.7053L7.37397 48.6091L12.9991 39.2758L20.479 45.8923L25.3751 44.8773L15.1008 35.7889L20.496 26.837L20.0323 26.9331L14.8363 35.5548L7.92678 29.4427L3.03069 30.4577ZM3.79136 30.6601L7.82511 29.8239L24.614 44.6748L20.5803 45.511L3.79136 30.6601ZM5.94944 31.234L20.8677 44.4302L22.4559 44.1009L7.53769 30.9047L5.94944 31.234Z" fill="white"/>
<path d="M129.503 78.0109C128.23 76.7016 126.772 75.5382 125.153 74.5714C125.124 74.5534 125.086 74.5559 125.059 74.5789C124.699 74.8802 124.271 75.2895 123.955 75.6189C122.197 74.6223 120.34 73.9114 118.404 73.4934C118.392 73.0284 118.335 72.4435 118.268 71.9783C118.262 71.9439 118.236 71.9172 118.203 71.91C116.353 71.5474 114.491 71.4399 112.668 71.5645C112.652 71.5652 112.637 71.5705 112.625 71.5802C107.66 75.1209 105.025 79.42 103.697 84.1539C103.69 84.177 103.695 84.2032 103.707 84.2234C105.194 86.5579 106.848 88.2626 108.585 89.638C108.613 89.6599 108.651 89.661 108.681 89.6425C109.395 89.1776 110.071 88.6584 110.701 88.0813C110.738 88.0476 110.737 87.9903 110.7 87.9573C110.137 87.4516 109.626 86.9026 109.155 86.321C109.118 86.2744 109.141 86.2039 109.198 86.1877C109.362 86.1402 109.527 86.0888 109.688 86.0342C109.717 86.0242 109.749 86.032 109.77 86.0536C113.043 89.4061 117.345 91.0534 121.973 90.7262C122.003 90.7234 122.033 90.7391 122.048 90.7663C122.131 90.914 122.22 91.0638 122.311 91.2092C122.343 91.2591 122.313 91.3271 122.255 91.337C121.513 91.4622 120.769 91.5228 120.011 91.5214C119.962 91.5215 119.923 91.5647 119.928 91.6146C120.02 92.4669 120.176 93.305 120.388 94.1243C120.397 94.1588 120.427 94.1837 120.462 94.1861C122.684 94.3264 125.053 94.1623 127.719 93.4184C127.743 93.4117 127.762 93.3957 127.772 93.3741C130.303 88.2823 130.707 83.1723 129.523 78.0521C129.522 78.036 129.514 78.0218 129.503 78.0109ZM112.776 84.4386C111.58 83.9805 111.019 82.4946 111.54 81.1333C112.061 79.772 113.452 79.0337 114.668 79.4992C115.893 79.9683 116.441 81.4603 115.904 82.8045C115.383 84.1658 113.992 84.9041 112.776 84.4386ZM120.845 87.5281C119.648 87.07 119.087 85.584 119.608 84.2228C120.129 82.8615 121.52 82.1232 122.736 82.5886C123.961 83.0577 124.509 84.5497 123.972 85.8939C123.451 87.2552 122.07 87.9972 120.845 87.5281Z" fill="white"/>
<defs>
<linearGradient id="paint0_linear_2250_13549" x1="45.5245" y1="62.3122" x2="77.9142" y2="71.8379" gradientUnits="userSpaceOnUse">
<stop stop-color="#80FFD9"/>
<stop offset="0.978741" stop-color="#01476E"/>
</linearGradient>
<clipPath id="clip0_2250_13549">
<rect width="39" height="39" fill="white" transform="translate(80 0.729492)"/>
</clipPath>
<clipPath id="clip1_2250_13549">
<rect width="21" height="21" fill="white" transform="translate(15.5 84.1055) rotate(21.163)"/>
</clipPath>
</defs>
</svg>
