<svg width="107" height="32" viewBox="0 0 107 32" fill="none" xmlns="http://www.w3.org/2000/svg">
<path d="M75.2726 2.38379V11.5754H73.0555V4.4573H73.0016L70.946 5.71397V3.79306L73.2125 2.38379H75.2726Z" fill="#38C8AD"/>
<path d="M65.2314 11.7995C64.4295 11.7995 63.7383 11.6095 63.1579 11.2295C62.5774 10.8466 62.1301 10.2975 61.8159 9.58241C61.5018 8.86431 61.3462 8.0011 61.3492 6.99277C61.3522 5.98444 61.5092 5.12871 61.8204 4.42557C62.1346 3.71944 62.5804 3.18236 63.1579 2.81434C63.7383 2.44332 64.4295 2.25781 65.2314 2.25781C66.0333 2.25781 66.7244 2.44332 67.3049 2.81434C67.8883 3.18236 68.3372 3.71944 68.6513 4.42557C68.9655 5.1317 69.1211 5.98743 69.1181 6.99277C69.1181 8.00409 68.961 8.8688 68.6468 9.5869C68.3327 10.305 67.8853 10.854 67.3049 11.234C66.7274 11.611 66.0362 11.7995 65.2314 11.7995ZM65.2314 9.98185C65.7101 9.98185 66.0976 9.738 66.3938 9.25029C66.69 8.75959 66.8366 8.00708 66.8336 6.99277C66.8336 6.32853 66.7663 5.78098 66.6317 5.35012C66.497 4.91627 66.31 4.59313 66.0707 4.38069C65.8313 4.16825 65.5515 4.06203 65.2314 4.06203C64.7556 4.06203 64.3712 4.3029 64.0779 4.78462C63.7847 5.26335 63.6366 5.9994 63.6336 6.99277C63.6306 7.66599 63.6949 8.22401 63.8266 8.66683C63.9612 9.10966 64.1497 9.44029 64.3921 9.65871C64.6345 9.87414 64.9142 9.98185 65.2314 9.98185Z" fill="#38C8AD"/>
<path d="M56.0718 2.38379V11.5754H54.1868L50.529 6.27049H50.4706V11.5754H48.249V2.38379H50.161L53.7784 7.67976H53.8547V2.38379L56.0718 2.38379Z" fill="#38C8AD"/>
<path d="M46.32 6.97931C46.32 7.99063 46.1255 8.84786 45.7366 9.55099C45.3476 10.2541 44.821 10.7882 44.1568 11.1532C43.4955 11.5183 42.7535 11.7008 41.9307 11.7008C41.1048 11.7008 40.3613 11.5168 39.7001 11.1488C39.0388 10.7807 38.5137 10.2466 38.1247 9.5465C37.7388 8.84337 37.5458 7.98763 37.5458 6.97931C37.5458 5.96798 37.7388 5.11075 38.1247 4.40762C38.5137 3.70448 39.0388 3.1704 39.7001 2.80536C40.3613 2.44033 41.1048 2.25781 41.9307 2.25781C42.7535 2.25781 43.4955 2.44033 44.1568 2.80536C44.821 3.1704 45.3476 3.70448 45.7366 4.40762C46.1255 5.11075 46.32 5.96798 46.32 6.97931ZM44.049 6.97931C44.049 6.38089 43.9638 5.87523 43.7932 5.46232C43.6257 5.04942 43.3833 4.73675 43.0662 4.52431C42.752 4.31187 42.3735 4.20565 41.9307 4.20565C41.4908 4.20565 41.1123 4.31187 40.7952 4.52431C40.478 4.73675 40.2342 5.04942 40.0636 5.46232C39.896 5.87523 39.8123 6.38089 39.8123 6.97931C39.8123 7.57772 39.896 8.08338 40.0636 8.49629C40.2342 8.90919 40.478 9.22186 40.7952 9.4343C41.1123 9.64674 41.4908 9.75296 41.9307 9.75296C42.3735 9.75296 42.752 9.64674 43.0662 9.4343C43.3833 9.22186 43.6257 8.90919 43.7932 8.49629C43.9638 8.08338 44.049 7.57772 44.049 6.97931Z" fill="#38C8AD"/>
<path d="M33.6376 5.13918C33.6076 4.81005 33.4745 4.55423 33.2381 4.37171C33.0047 4.1862 32.6711 4.09345 32.2373 4.09345C31.95 4.09345 31.7107 4.13085 31.5192 4.20565C31.3277 4.28045 31.1841 4.38368 31.0883 4.51533C30.9926 4.64399 30.9432 4.7921 30.9402 4.95966C30.9342 5.09729 30.9611 5.21847 31.021 5.32319C31.0838 5.42792 31.1736 5.52067 31.2903 5.60146C31.41 5.67925 31.5536 5.74807 31.7211 5.80791C31.8887 5.86775 32.0772 5.92011 32.2866 5.96499L33.0765 6.14452C33.5313 6.24326 33.9323 6.37491 34.2794 6.53947C34.6294 6.70403 34.9227 6.90002 35.159 7.12741C35.3984 7.35481 35.5794 7.61662 35.7021 7.91283C35.8248 8.20905 35.8876 8.54117 35.8906 8.90919C35.8876 9.48966 35.741 9.98784 35.4508 10.4037C35.1605 10.8196 34.7431 11.1383 34.1986 11.3597C33.657 11.5811 33.0032 11.6918 32.2373 11.6918C31.4683 11.6918 30.7981 11.5766 30.2266 11.3462C29.6551 11.1158 29.2108 10.7658 28.8936 10.296C28.5765 9.82626 28.4134 9.23234 28.4044 8.51424H30.5318C30.5497 8.81045 30.629 9.0573 30.7697 9.25478C30.9103 9.45225 31.1033 9.60186 31.3486 9.70359C31.597 9.80532 31.8842 9.85618 32.2103 9.85618C32.5095 9.85618 32.7639 9.81579 32.9733 9.73501C33.1858 9.65422 33.3488 9.54202 33.4625 9.3984C33.5762 9.25478 33.6346 9.09021 33.6376 8.90471C33.6346 8.73116 33.5807 8.58306 33.476 8.46038C33.3713 8.33471 33.2097 8.227 32.9913 8.13724C32.7758 8.04448 32.5006 7.95921 32.1655 7.88142L31.205 7.65701C30.4091 7.47449 29.7823 7.17977 29.3245 6.77285C28.8667 6.36294 28.6393 5.8094 28.6423 5.11225C28.6393 4.54376 28.7919 4.04558 29.1001 3.61771C29.4083 3.18984 29.8346 2.85623 30.3792 2.61686C30.9237 2.3775 31.5446 2.25781 32.2418 2.25781C32.9539 2.25781 33.5717 2.37899 34.0953 2.62135C34.6219 2.86072 35.0304 3.19732 35.3206 3.63117C35.6108 4.06503 35.7589 4.56769 35.7649 5.13918L33.6376 5.13918Z" fill="#38C8AD"/>
<path d="M20.5589 11.5754H18.1713L21.2726 2.38379L24.2302 2.38379L27.3315 11.5754L24.9438 11.5754L22.785 4.69965H22.7132L20.5589 11.5754ZM20.2403 7.95802L25.2311 7.95802V9.64555H20.2403V7.95802Z" fill="#38C8AD"/>
<path d="M10.1384 11.5754L10.1384 2.38379L16.5475 2.38379V4.18801L12.36 4.18801V6.07302L16.2198 6.07302V7.88172L12.36 7.88172V9.77122H16.5475V11.5754H10.1384Z" fill="#38C8AD"/>
<path d="M6.13145 5.13918C6.10153 4.81005 5.96839 4.55423 5.73201 4.37171C5.49863 4.1862 5.16501 4.09345 4.73116 4.09345C4.44392 4.09345 4.20456 4.13085 4.01306 4.20565C3.82157 4.28045 3.67795 4.38368 3.58221 4.51533C3.48646 4.64399 3.43709 4.7921 3.4341 4.95966C3.42811 5.09729 3.45504 5.21847 3.51488 5.32319C3.57772 5.42792 3.66748 5.52067 3.78417 5.60146C3.90385 5.67925 4.04747 5.74807 4.21503 5.80791C4.38259 5.86775 4.57109 5.92011 4.78053 5.96499L5.57044 6.14452C6.02523 6.24326 6.42617 6.37491 6.77325 6.53947C7.12333 6.70403 7.41655 6.90002 7.65292 7.12741C7.89229 7.35481 8.07331 7.61662 8.19598 7.91283C8.31866 8.20905 8.38149 8.54117 8.38449 8.90919C8.38149 9.48966 8.23488 9.98784 7.94465 10.4037C7.65442 10.8196 7.23702 11.1383 6.69247 11.3597C6.1509 11.5811 5.49713 11.6918 4.73116 11.6918C3.9622 11.6918 3.29197 11.5766 2.72049 11.3462C2.149 11.1158 1.70468 10.7658 1.38752 10.296C1.07036 9.82626 0.907292 9.23234 0.898315 8.51424H3.02568C3.04363 8.81045 3.12292 9.0573 3.26355 9.25478C3.40418 9.45225 3.59717 9.60186 3.84252 9.70359C4.09086 9.80532 4.3781 9.85618 4.70423 9.85618C5.00344 9.85618 5.25777 9.81579 5.46721 9.73501C5.67965 9.65422 5.84272 9.54202 5.95642 9.3984C6.07012 9.25478 6.12846 9.09021 6.13145 8.90471C6.12846 8.73116 6.0746 8.58306 5.96988 8.46038C5.86516 8.33471 5.70359 8.227 5.48517 8.13724C5.26974 8.04448 4.99446 7.95921 4.65935 7.88142L3.6989 7.65701C2.903 7.47449 2.27617 7.17977 1.81838 6.77285C1.36059 6.36294 1.13319 5.8094 1.13619 5.11225C1.13319 4.54376 1.28579 4.04558 1.59397 3.61771C1.90216 3.18984 2.32853 2.85623 2.87308 2.61686C3.41764 2.3775 4.0385 2.25781 4.73565 2.25781C5.44776 2.25781 6.06563 2.37899 6.58924 2.62135C7.11585 2.86072 7.52426 3.19732 7.8145 3.63117C8.10473 4.06503 8.25283 4.56769 8.25882 5.13918L6.13145 5.13918Z" fill="#38C8AD"/>
<path d="M75.833 1.25098V10.4426H73.6159V3.32448H73.562L71.5065 4.58115V2.66024L73.773 1.25098L75.833 1.25098Z" fill="#278C79"/>
<path d="M65.7918 10.6667C64.9899 10.6667 64.2988 10.4767 63.7183 10.0967C63.1378 9.71375 62.6905 9.1647 62.3764 8.4496C62.0622 7.7315 61.9066 6.86829 61.9096 5.85996C61.9126 4.85163 62.0697 3.99589 62.3808 3.29276C62.695 2.58663 63.1408 2.04955 63.7183 1.68153C64.2988 1.31051 64.9899 1.125 65.7918 1.125C66.5937 1.125 67.2848 1.31051 67.8653 1.68153C68.4488 2.04955 68.8976 2.58663 69.2117 3.29276C69.5259 3.99889 69.6815 4.85462 69.6785 5.85996C69.6785 6.87128 69.5214 7.73599 69.2073 8.45408C68.8931 9.17218 68.4458 9.72123 67.8653 10.1012C67.2878 10.4782 66.5967 10.6667 65.7918 10.6667ZM65.7918 8.84904C66.2705 8.84904 66.658 8.60519 66.9542 8.11748C67.2504 7.62678 67.3971 6.87427 67.3941 5.85996C67.3941 5.19572 67.3267 4.64817 67.1921 4.21731C67.0575 3.78346 66.8704 3.46031 66.6311 3.24788C66.3917 3.03544 66.112 2.92922 65.7918 2.92922C65.3161 2.92922 64.9316 3.17008 64.6384 3.65181C64.3451 4.13054 64.197 4.86659 64.194 5.85996C64.191 6.53317 64.2554 7.0912 64.387 7.53402C64.5217 7.97685 64.7102 8.30747 64.9525 8.52589C65.1949 8.74132 65.4746 8.84904 65.7918 8.84904Z" fill="#278C79"/>
<path d="M56.6322 1.25098V10.4426H54.7472L51.0894 5.13768H51.0311V10.4426H48.8094V1.25098L50.7214 1.25098L54.3388 6.54695H54.4151V1.25098L56.6322 1.25098Z" fill="#278C79"/>
<path d="M46.8805 5.84649C46.8805 6.85781 46.686 7.71504 46.297 8.41818C45.908 9.12132 45.3814 9.6554 44.7172 10.0204C44.0559 10.3855 43.3139 10.568 42.4911 10.568C41.6653 10.568 40.9217 10.384 40.2605 10.0159C39.5992 9.64792 39.0741 9.11384 38.6852 8.41369C38.2992 7.71055 38.1062 6.85482 38.1062 5.84649C38.1062 4.83517 38.2992 3.97794 38.6852 3.27481C39.0741 2.57167 39.5992 2.03758 40.2605 1.67255C40.9217 1.30752 41.6653 1.125 42.4911 1.125C43.3139 1.125 44.0559 1.30752 44.7172 1.67255C45.3814 2.03758 45.908 2.57167 46.297 3.27481C46.686 3.97794 46.8805 4.83517 46.8805 5.84649ZM44.6095 5.84649C44.6095 5.24808 44.5242 4.74242 44.3536 4.32951C44.1861 3.91661 43.9437 3.60393 43.6266 3.3915C43.3124 3.17906 42.9339 3.07284 42.4911 3.07284C42.0512 3.07284 41.6728 3.17906 41.3556 3.3915C41.0384 3.60393 40.7946 3.91661 40.624 4.32951C40.4565 4.74242 40.3727 5.24808 40.3727 5.84649C40.3727 6.44491 40.4565 6.95057 40.624 7.36347C40.7946 7.77638 41.0384 8.08905 41.3556 8.30149C41.6728 8.51393 42.0512 8.62015 42.4911 8.62015C42.9339 8.62015 43.3124 8.51393 43.6266 8.30149C43.9437 8.08905 44.1861 7.77638 44.3536 7.36347C44.5242 6.95057 44.6095 6.44491 44.6095 5.84649Z" fill="#278C79"/>
<path d="M34.198 4.00637C34.1681 3.67724 34.0349 3.42142 33.7985 3.2389C33.5652 3.05339 33.2315 2.96064 32.7977 2.96064C32.5105 2.96064 32.2711 2.99804 32.0796 3.07284C31.8881 3.14764 31.7445 3.25087 31.6487 3.38252C31.553 3.51118 31.5036 3.65929 31.5006 3.82684C31.4946 3.96448 31.5216 4.08566 31.5814 4.19038C31.6442 4.2951 31.734 4.38786 31.8507 4.46864C31.9704 4.54644 32.114 4.61525 32.2816 4.6751C32.4491 4.73494 32.6376 4.7873 32.8471 4.83218L33.637 5.0117C34.0918 5.11044 34.4927 5.24209 34.8398 5.40666C35.1899 5.57122 35.4831 5.7672 35.7195 5.9946C35.9588 6.222 36.1398 6.4838 36.2625 6.78002C36.3852 7.07624 36.448 7.40836 36.451 7.77638C36.448 8.35684 36.3014 8.85502 36.0112 9.27092C35.7209 9.68682 35.3036 10.0055 34.759 10.2269C34.2174 10.4483 33.5637 10.559 32.7977 10.559C32.0287 10.559 31.3585 10.4438 30.787 10.2134C30.2155 9.98304 29.7712 9.63296 29.454 9.16321C29.1369 8.69345 28.9738 8.09952 28.9648 7.38143H31.0922C31.1102 7.67764 31.1895 7.92449 31.3301 8.12196C31.4707 8.31944 31.6637 8.46905 31.909 8.57078C32.1574 8.67251 32.4446 8.72337 32.7708 8.72337C33.07 8.72337 33.3243 8.68298 33.5337 8.60219C33.7462 8.52141 33.9092 8.4092 34.0229 8.26558C34.1366 8.12196 34.195 7.9574 34.198 7.77189C34.195 7.59835 34.1411 7.45024 34.0364 7.32757C33.9317 7.2019 33.7701 7.09419 33.5517 7.00443C33.3363 6.91167 33.061 6.8264 32.7259 6.7486L31.7654 6.5242C30.9695 6.34168 30.3427 6.04696 29.8849 5.64004C29.4271 5.23013 29.1997 4.67659 29.2027 3.97944C29.1997 3.41094 29.3523 2.91276 29.6605 2.4849C29.9687 2.05703 30.3951 1.72342 30.9396 1.48405C31.4842 1.24468 32.105 1.125 32.8022 1.125C33.5143 1.125 34.1322 1.24618 34.6558 1.48854C35.1824 1.7279 35.5908 2.06451 35.881 2.49836C36.1713 2.93221 36.3194 3.43488 36.3253 4.00637L34.198 4.00637Z" fill="#278C79"/>
<path d="M21.1194 10.4426H18.7317L21.833 1.25098L24.7906 1.25098L27.8919 10.4426L25.5042 10.4426L23.3455 3.56684H23.2737L21.1194 10.4426ZM20.8007 6.82521L25.7915 6.82521V8.51274H20.8007V6.82521Z" fill="#278C79"/>
<path d="M10.6989 10.4426L10.6989 1.25098L17.1079 1.25098V3.0552L12.9205 3.0552V4.9402L16.7802 4.9402V6.74891L12.9205 6.74891V8.63841H17.1079V10.4426H10.6989Z" fill="#278C79"/>
<path d="M6.69188 4.00637C6.66196 3.67724 6.52881 3.42142 6.29244 3.2389C6.05905 3.05339 5.72544 2.96064 5.29159 2.96064C5.00435 2.96064 4.76498 2.99804 4.57349 3.07284C4.382 3.14764 4.23838 3.25087 4.14263 3.38252C4.04688 3.51118 3.99752 3.65929 3.99452 3.82684C3.98854 3.96448 4.01547 4.08566 4.07531 4.19038C4.13814 4.2951 4.2279 4.38786 4.3446 4.46864C4.46428 4.54644 4.6079 4.61525 4.77545 4.6751C4.94301 4.73494 5.13151 4.7873 5.34096 4.83218L6.13086 5.0117C6.58566 5.11044 6.9866 5.24209 7.33368 5.40666C7.68375 5.57122 7.97697 5.7672 8.21335 5.9946C8.45271 6.222 8.63373 6.4838 8.75641 6.78002C8.87908 7.07624 8.94192 7.40836 8.94491 7.77638C8.94192 8.35684 8.79531 8.85502 8.50507 9.27092C8.21484 9.68682 7.79745 10.0055 7.25289 10.2269C6.71133 10.4483 6.05756 10.559 5.29159 10.559C4.52262 10.559 3.8524 10.4438 3.28091 10.2134C2.70943 9.98304 2.2651 9.63296 1.94794 9.16321C1.63078 8.69345 1.46772 8.09952 1.45874 7.38143H3.5861C3.60406 7.67764 3.68335 7.92449 3.82397 8.12196C3.9646 8.31944 4.15759 8.46905 4.40294 8.57078C4.65128 8.67251 4.93852 8.72337 5.26466 8.72337C5.56387 8.72337 5.81819 8.68298 6.02764 8.60219C6.24007 8.52141 6.40314 8.4092 6.51684 8.26558C6.63054 8.12196 6.68889 7.9574 6.69188 7.77189C6.68889 7.59835 6.63503 7.45024 6.53031 7.32757C6.42558 7.2019 6.26401 7.09419 6.04559 7.00443C5.83016 6.91167 5.55489 6.8264 5.21978 6.7486L4.25932 6.5242C3.46343 6.34168 2.83659 6.04696 2.3788 5.64004C1.92102 5.23013 1.69362 4.67659 1.69661 3.97944C1.69362 3.41094 1.84621 2.91276 2.1544 2.4849C2.46258 2.05703 2.88895 1.72342 3.43351 1.48405C3.97807 1.24468 4.59892 1.125 5.29608 1.125C6.00819 1.125 6.62605 1.24618 7.14966 1.48854C7.67627 1.7279 8.08469 2.06451 8.37492 2.49836C8.66515 2.93221 8.81326 3.43488 8.81924 4.00637L6.69188 4.00637Z" fill="#278C79"/>
<path d="M76.041 1.0957V10.2874H73.8239V3.16921H73.77L71.7145 4.42588V2.50497L73.981 1.0957L76.041 1.0957Z" fill="white"/>
<path d="M65.9998 10.5115C65.1979 10.5115 64.5068 10.3215 63.9263 9.94146C63.3458 9.55848 62.8985 9.00943 62.5844 8.29432C62.2702 7.57623 62.1146 6.71301 62.1176 5.70468C62.1206 4.69635 62.2777 3.84062 62.5888 3.13748C62.903 2.43135 63.3488 1.89428 63.9263 1.52625C64.5068 1.15524 65.1979 0.969727 65.9998 0.969727C66.8017 0.969727 67.4929 1.15524 68.0733 1.52625C68.6568 1.89428 69.1056 2.43135 69.4198 3.13748C69.7339 3.84361 69.8895 4.69935 69.8865 5.70468C69.8865 6.716 69.7294 7.58071 69.4153 8.29881C69.1011 9.01691 68.6538 9.56596 68.0733 9.94595C67.4958 10.323 66.8047 10.5115 65.9998 10.5115ZM65.9998 8.69377C66.4785 8.69377 66.866 8.44991 67.1622 7.9622C67.4584 7.4715 67.6051 6.719 67.6021 5.70468C67.6021 5.04044 67.5347 4.49289 67.4001 4.06204C67.2655 3.62818 67.0785 3.30504 66.8391 3.0926C66.5997 2.88017 66.32 2.77395 65.9998 2.77395C65.5241 2.77395 65.1396 3.01481 64.8464 3.49653C64.5531 3.97527 64.405 4.71132 64.402 5.70468C64.3991 6.3779 64.4634 6.93592 64.595 7.37875C64.7297 7.82158 64.9182 8.1522 65.1605 8.37062C65.4029 8.58605 65.6827 8.69377 65.9998 8.69377Z" fill="white"/>
<path d="M56.8402 1.0957V10.2874H54.9552L51.2974 4.98241H51.2391V10.2874H49.0175V1.0957L50.9294 1.0957L54.5468 6.39167H54.6231V1.0957L56.8402 1.0957Z" fill="white"/>
<path d="M47.0885 5.69122C47.0885 6.70254 46.894 7.55977 46.505 8.26291C46.116 8.96604 45.5894 9.50013 44.9252 9.86516C44.2639 10.2302 43.5219 10.4127 42.6991 10.4127C41.8733 10.4127 41.1298 10.2287 40.4685 9.86067C39.8073 9.49265 39.2821 8.95856 38.8932 8.25842C38.5072 7.55528 38.3142 6.69955 38.3142 5.69122C38.3142 4.6799 38.5072 3.82267 38.8932 3.11953C39.2821 2.41639 39.8073 1.88231 40.4685 1.51728C41.1298 1.15224 41.8733 0.969727 42.6991 0.969727C43.5219 0.969727 44.2639 1.15224 44.9252 1.51728C45.5894 1.88231 46.116 2.41639 46.505 3.11953C46.894 3.82267 47.0885 4.6799 47.0885 5.69122ZM44.8175 5.69122C44.8175 5.0928 44.7322 4.58714 44.5617 4.17424C44.3941 3.76133 44.1517 3.44866 43.8346 3.23622C43.5204 3.02379 43.1419 2.91757 42.6991 2.91757C42.2593 2.91757 41.8808 3.02379 41.5636 3.23622C41.2464 3.44866 41.0026 3.76133 40.832 4.17424C40.6645 4.58714 40.5807 5.0928 40.5807 5.69122C40.5807 6.28963 40.6645 6.79529 40.832 7.2082C41.0026 7.62111 41.2464 7.93378 41.5636 8.14622C41.8808 8.35865 42.2593 8.46487 42.6991 8.46487C43.1419 8.46487 43.5204 8.35865 43.8346 8.14622C44.1517 7.93378 44.3941 7.62111 44.5617 7.2082C44.7322 6.79529 44.8175 6.28963 44.8175 5.69122Z" fill="white"/>
<path d="M34.406 3.85109C34.3761 3.52197 34.2429 3.26614 34.0065 3.08363C33.7732 2.89812 33.4395 2.80536 33.0057 2.80536C32.7185 2.80536 32.4791 2.84277 32.2876 2.91757C32.0961 2.99237 31.9525 3.0956 31.8567 3.22725C31.761 3.35591 31.7116 3.50401 31.7086 3.67157C31.7027 3.8092 31.7296 3.93038 31.7894 4.03511C31.8523 4.13983 31.942 4.23258 32.0587 4.31337C32.1784 4.39116 32.322 4.45998 32.4896 4.51982C32.6571 4.57966 32.8456 4.63203 33.0551 4.67691L33.845 4.85643C34.2998 4.95517 34.7007 5.08682 35.0478 5.25138C35.3979 5.41595 35.6911 5.61193 35.9275 5.83933C36.1668 6.06672 36.3478 6.32853 36.4705 6.62475C36.5932 6.92096 36.656 7.25308 36.659 7.62111C36.656 8.20157 36.5094 8.69975 36.2192 9.11565C35.929 9.53155 35.5116 9.8502 34.967 10.0716C34.4254 10.293 33.7717 10.4037 33.0057 10.4037C32.2367 10.4037 31.5665 10.2885 30.995 10.0582C30.4235 9.82776 29.9792 9.47769 29.6621 9.00793C29.3449 8.53818 29.1818 7.94425 29.1729 7.22615H31.3002C31.3182 7.52237 31.3975 7.76921 31.5381 7.96669C31.6787 8.16417 31.8717 8.31377 32.1171 8.4155C32.3654 8.51723 32.6526 8.5681 32.9788 8.5681C33.278 8.5681 33.5323 8.52771 33.7417 8.44692C33.9542 8.36613 34.1173 8.25393 34.231 8.11031C34.3447 7.96669 34.403 7.80213 34.406 7.61662C34.403 7.44308 34.3491 7.29497 34.2444 7.1723C34.1397 7.04663 33.9781 6.93891 33.7597 6.84915C33.5443 6.7564 33.269 6.67112 32.9339 6.59333L31.9734 6.36892C31.1775 6.18641 30.5507 5.89169 30.0929 5.48477C29.6351 5.07485 29.4077 4.52132 29.4107 3.82417C29.4077 3.25567 29.5603 2.75749 29.8685 2.32962C30.1767 1.90176 30.6031 1.56814 31.1476 1.32878C31.6922 1.08941 32.313 0.969727 33.0102 0.969727C33.7223 0.969727 34.3402 1.09091 34.8638 1.33326C35.3904 1.57263 35.7988 1.90924 36.089 2.34309C36.3793 2.77694 36.5274 3.27961 36.5334 3.85109L34.406 3.85109Z" fill="white"/>
<path d="M21.3274 10.2874H18.9397L22.041 1.0957L24.9986 1.0957L28.0999 10.2874L25.7123 10.2874L23.5535 3.41157H23.4817L21.3274 10.2874ZM21.0087 6.66994L25.9995 6.66994V8.35747H21.0087V6.66994Z" fill="white"/>
<path d="M10.9069 10.2874L10.9069 1.0957L17.3159 1.0957V2.89992L13.1285 2.89992V4.78493L16.9883 4.78493V6.59364L13.1285 6.59364V8.48313H17.3159V10.2874H10.9069Z" fill="white"/>
<path d="M6.89989 3.85109C6.86996 3.52197 6.73682 3.26614 6.50044 3.08363C6.26706 2.89812 5.93345 2.80536 5.4996 2.80536C5.21236 2.80536 4.97299 2.84277 4.7815 2.91757C4.59 2.99237 4.44638 3.0956 4.35064 3.22725C4.25489 3.35591 4.20552 3.50401 4.20253 3.67157C4.19655 3.8092 4.22348 3.93038 4.28332 4.03511C4.34615 4.13983 4.43591 4.23258 4.5526 4.31337C4.67229 4.39116 4.81591 4.45998 4.98346 4.51982C5.15102 4.57966 5.33952 4.63203 5.54896 4.67691L6.33887 4.85643C6.79367 4.95517 7.1946 5.08682 7.54169 5.25138C7.89176 5.41595 8.18498 5.61193 8.42136 5.83933C8.66072 6.06672 8.84174 6.32853 8.96442 6.62475C9.08709 6.92096 9.14993 7.25308 9.15292 7.62111C9.14993 8.20157 9.00331 8.69975 8.71308 9.11565C8.42285 9.53155 8.00546 9.8502 7.4609 10.0716C6.91933 10.293 6.26557 10.4037 5.4996 10.4037C4.73063 10.4037 4.06041 10.2885 3.48892 10.0582C2.91744 9.82776 2.47311 9.47769 2.15595 9.00793C1.83879 8.53818 1.67572 7.94425 1.66675 7.22615H3.79411C3.81207 7.52237 3.89136 7.76921 4.03198 7.96669C4.17261 8.16417 4.3656 8.31377 4.61095 8.4155C4.85929 8.51723 5.14653 8.5681 5.47267 8.5681C5.77187 8.5681 6.0262 8.52771 6.23564 8.44692C6.44808 8.36613 6.61115 8.25393 6.72485 8.11031C6.83855 7.96669 6.89689 7.80213 6.89989 7.61662C6.89689 7.44308 6.84304 7.29497 6.73831 7.1723C6.63359 7.04663 6.47202 6.93891 6.2536 6.84915C6.03817 6.7564 5.7629 6.67112 5.42779 6.59333L4.46733 6.36892C3.67144 6.18641 3.0446 5.89169 2.58681 5.48477C2.12902 5.07485 1.90163 4.52132 1.90462 3.82417C1.90163 3.25567 2.05422 2.75749 2.36241 2.32962C2.67059 1.90176 3.09696 1.56814 3.64152 1.32878C4.18607 1.08941 4.80693 0.969727 5.50408 0.969727C6.2162 0.969727 6.83406 1.09091 7.35767 1.33326C7.88428 1.57263 8.2927 1.90924 8.58293 2.34309C8.87316 2.77694 9.02127 3.27961 9.02725 3.85109L6.89989 3.85109Z" fill="white"/>
<path d="M101.609 21.7552C101.647 21.3289 101.544 20.9951 101.299 20.754C101.053 20.5086 100.64 20.3858 100.058 20.3858C99.6882 20.3858 99.3781 20.4289 99.1284 20.515C98.8829 20.6011 98.6913 20.7196 98.5535 20.8703C98.42 21.021 98.336 21.1954 98.3016 21.3935C98.2628 21.5485 98.265 21.6906 98.308 21.8198C98.3554 21.9446 98.4437 22.0588 98.5729 22.1621C98.7064 22.2655 98.8808 22.358 99.0961 22.4399C99.3157 22.5217 99.5762 22.5949 99.8776 22.6595L100.911 22.892C101.617 23.047 102.209 23.2516 102.687 23.5056C103.17 23.7554 103.549 24.0525 103.824 24.397C104.1 24.7415 104.281 25.1269 104.367 25.5532C104.457 25.9795 104.459 26.4446 104.373 26.9484C104.227 27.8182 103.889 28.5546 103.359 29.1574C102.829 29.7603 102.138 30.2189 101.286 30.5332C100.433 30.8476 99.447 31.0048 98.3274 31.0048C97.182 31.0048 96.2088 30.8347 95.4079 30.4945C94.6112 30.15 94.0342 29.6246 93.6768 28.9184C93.3237 28.2079 93.2376 27.3015 93.4184 26.1991H96.8289C96.7772 26.6039 96.8203 26.9441 96.9581 27.2197C97.0959 27.4953 97.3176 27.7041 97.6234 27.8462C97.9291 27.9883 98.3102 28.0594 98.7666 28.0594C99.1542 28.0594 99.4858 28.012 99.7614 27.9173C100.037 27.8225 100.254 27.6912 100.414 27.5233C100.573 27.3553 100.67 27.1637 100.704 26.9484C100.739 26.7503 100.704 26.5737 100.601 26.4187C100.498 26.2637 100.31 26.1238 100.039 25.9989C99.7678 25.874 99.3953 25.7599 98.9217 25.6565L97.6557 25.3723C96.5318 25.114 95.6834 24.6877 95.1107 24.0934C94.538 23.4992 94.3356 22.6853 94.5036 21.6518C94.6414 20.8078 94.988 20.0715 95.5435 19.4428C96.1033 18.8098 96.8138 18.3189 97.675 17.9701C98.5406 17.617 99.4987 17.4404 100.549 17.4404C101.617 17.4404 102.511 17.6191 103.23 17.9765C103.953 18.334 104.472 18.8356 104.787 19.4815C105.105 20.1275 105.191 20.8853 105.045 21.7552H101.609Z" fill="#A3A1E2"/>
<path d="M81.1187 30.8495L83.3148 17.6211H92.8486L92.3577 20.5148H86.4152L86.0535 22.7885H91.5051L91.0142 25.6822H85.5626L85.2009 27.9558H91.1175L90.6266 30.8495H81.1187Z" fill="#A3A1E2"/>
<path d="M69.4292 20.5148L69.9201 17.6211H81.4175L80.9266 20.5148H76.9477L75.2425 30.8495H71.7028L73.4081 20.5148H69.4292Z" fill="#A3A1E2"/>
<path d="M58.1693 30.8495H54.2938L60.8564 17.6211H65.7654L67.9357 30.8495H64.0601L62.7683 21.2641H62.665L58.1693 30.8495ZM58.3244 25.6305H65.6104L65.1453 28.3175H57.8593L58.3244 25.6305Z" fill="#A3A1E2"/>
<path d="M41.86 30.8495L44.0561 17.6211H49.7661C50.7479 17.6211 51.5768 17.7998 52.2528 18.1572C52.9289 18.5146 53.4155 19.0292 53.7126 19.701C54.0098 20.3727 54.0808 21.178 53.9258 22.1167C53.7708 23.0641 53.4284 23.8628 52.8988 24.5131C52.3734 25.159 51.7038 25.6499 50.89 25.9858C50.0804 26.3173 49.1718 26.4831 48.1642 26.4831H44.7537L45.2188 23.6927H47.9058C48.3278 23.6927 48.6981 23.6411 49.0168 23.5377C49.3354 23.4301 49.5938 23.2621 49.7919 23.0339C49.99 22.8014 50.1192 22.4956 50.1794 22.1167C50.2397 21.7378 50.2096 21.4299 50.089 21.193C49.9684 20.9519 49.7682 20.7753 49.4883 20.6634C49.2084 20.5471 48.8618 20.489 48.4484 20.489H47.1824L45.4513 30.8495H41.86ZM50.6187 24.7779L52.9181 30.8495H49.0168L46.7948 24.7779H50.6187Z" fill="#A3A1E2"/>
<path d="M41.0414 22.582H37.4501C37.476 22.2762 37.4587 22.0006 37.3984 21.7552C37.3382 21.5097 37.2348 21.2987 37.0884 21.1222C36.942 20.9413 36.7504 20.8035 36.5135 20.7088C36.2767 20.6141 35.9946 20.5667 35.6674 20.5667C35.0387 20.5667 34.4767 20.7239 33.9815 21.0382C33.4863 21.3483 33.0751 21.7939 32.7478 22.3753C32.4206 22.9523 32.188 23.6413 32.0502 24.4422C31.9297 25.2173 31.9253 25.8611 32.0373 26.3735C32.1536 26.8859 32.3796 27.2692 32.7155 27.5233C33.0557 27.7773 33.4971 27.9043 34.0397 27.9043C34.4014 27.9043 34.7329 27.8613 35.0344 27.7752C35.3401 27.689 35.6114 27.5663 35.8482 27.407C36.0894 27.2434 36.2939 27.0496 36.4619 26.8257C36.6341 26.5974 36.7654 26.3455 36.8559 26.0699H40.473C40.3352 26.6297 40.0898 27.2024 39.7367 27.7881C39.3836 28.3694 38.9271 28.9055 38.3673 29.3964C37.8075 29.883 37.1487 30.277 36.3908 30.5785C35.6329 30.8799 34.7803 31.0306 33.833 31.0306C32.5928 31.0306 31.5227 30.7593 30.6227 30.2167C29.7271 29.6742 29.0768 28.8818 28.6721 27.8398C28.2716 26.7977 28.1919 25.5274 28.4331 24.0288C28.6742 22.582 29.15 21.3698 29.8606 20.3923C30.5711 19.4148 31.4344 18.6784 32.4507 18.1832C33.4669 17.688 34.5478 17.4404 35.6932 17.4404C36.5587 17.4404 37.3339 17.5545 38.0185 17.7828C38.7075 18.011 39.2867 18.3447 39.7561 18.7839C40.2297 19.2189 40.5785 19.755 40.8024 20.3923C41.0264 21.0296 41.106 21.7595 41.0414 22.582Z" fill="#A3A1E2"/>
<path d="M26.187 24.468C25.9458 25.9063 25.4679 27.112 24.753 28.0852C24.0382 29.0584 23.1705 29.7926 22.15 30.2878C21.1294 30.783 20.0378 31.0306 18.8752 31.0306C17.635 31.0306 16.5585 30.7615 15.6456 30.2232C14.7327 29.6849 14.0674 28.8969 13.6497 27.8591C13.232 26.8214 13.148 25.5532 13.3978 24.0547C13.6303 22.6164 14.104 21.4064 14.8188 20.4246C15.5336 19.4428 16.4056 18.7 17.4348 18.1962C18.4639 17.6923 19.5641 17.4404 20.7354 17.4404C21.967 17.4404 23.037 17.7117 23.9456 18.2543C24.8585 18.7969 25.5217 19.5913 25.9351 20.6377C26.3528 21.6841 26.4367 22.9609 26.187 24.468ZM22.5698 24.0547C22.6904 23.2968 22.699 22.6595 22.5957 22.1427C22.4923 21.6217 22.2749 21.2298 21.9433 20.9672C21.6117 20.7002 21.166 20.5667 20.6062 20.5667C19.9689 20.5667 19.4048 20.7217 18.9139 21.0317C18.423 21.3418 18.0161 21.7875 17.6931 22.3688C17.3702 22.9501 17.1441 23.6499 17.0149 24.468C16.8771 25.2345 16.8642 25.8718 16.9762 26.38C17.0924 26.8881 17.3206 27.2692 17.6608 27.5233C18.0053 27.7773 18.4532 27.9043 19.0043 27.9043C19.633 27.9043 20.1885 27.7536 20.6708 27.4522C21.1574 27.1508 21.56 26.7137 21.8787 26.141C22.2017 25.5683 22.432 24.8728 22.5698 24.0547Z" fill="#A3A1E2"/>
<path d="M8.28216 21.7552C8.32092 21.3289 8.21757 20.9951 7.97212 20.754C7.72667 20.5086 7.31328 20.3858 6.73195 20.3858C6.36162 20.3858 6.05158 20.4289 5.80183 20.515C5.55638 20.6011 5.36475 20.7196 5.22696 20.8703C5.09347 21.021 5.0095 21.1954 4.97505 21.3935C4.93629 21.5485 4.93845 21.6906 4.98151 21.8198C5.02887 21.9446 5.11715 22.0588 5.24633 22.1621C5.37982 22.2655 5.55422 22.358 5.76953 22.4399C5.98914 22.5217 6.24966 22.5949 6.55109 22.6595L7.58457 22.892C8.29077 23.047 8.88287 23.2516 9.36085 23.5056C9.84314 23.7554 10.2221 24.0525 10.4977 24.397C10.7733 24.7415 10.9541 25.1269 11.0402 25.5532C11.1307 25.9795 11.1328 26.4446 11.0467 26.9484C10.9003 27.8182 10.5623 28.5546 10.0326 29.1574C9.50295 29.7603 8.81182 30.2189 7.9592 30.5332C7.10659 30.8476 6.12048 31.0048 5.00088 31.0048C3.85545 31.0048 2.88226 30.8347 2.08132 30.4945C1.28469 30.15 0.707665 29.6246 0.350256 28.9184C-0.00284761 28.2079 -0.0889704 27.3015 0.0918874 26.1991H3.50235C3.45067 26.6039 3.49374 26.9441 3.63153 27.2197C3.76933 27.4953 3.9911 27.7041 4.29683 27.8462C4.60257 27.9883 4.98366 28.0594 5.44011 28.0594C5.82766 28.0594 6.15924 28.012 6.43483 27.9173C6.71042 27.8225 6.92788 27.6912 7.08721 27.5233C7.24653 27.3553 7.34342 27.1637 7.37787 26.9484C7.41232 26.7503 7.37787 26.5737 7.27453 26.4187C7.17118 26.2637 6.98386 26.1238 6.71257 25.9989C6.44129 25.874 6.06881 25.7599 5.59513 25.6565L4.32913 25.3723C3.20522 25.114 2.35692 24.6877 1.7842 24.0934C1.21148 23.4992 1.00909 22.6853 1.17703 21.6518C1.31483 20.8078 1.66147 20.0715 2.21697 19.4428C2.77676 18.8098 3.48728 18.3189 4.3485 17.9701C5.21404 17.617 6.17215 17.4404 7.22285 17.4404C8.29077 17.4404 9.1843 17.6191 9.90342 17.9765C10.6269 18.334 11.1457 18.8356 11.4601 19.4815C11.7787 20.1275 11.8649 20.8853 11.7185 21.7552H8.28216Z" fill="#A3A1E2"/>
<path d="M102.745 20.6185C102.784 20.1922 102.68 19.8584 102.435 19.6173C102.189 19.3718 101.776 19.2491 101.195 19.2491C100.824 19.2491 100.514 19.2922 100.265 19.3783C100.019 19.4644 99.8275 19.5828 99.6897 19.7336C99.5562 19.8843 99.4723 20.0587 99.4378 20.2567C99.3991 20.4118 99.4012 20.5539 99.4443 20.6831C99.4916 20.8079 99.5799 20.922 99.7091 21.0254C99.8426 21.1287 100.017 21.2213 100.232 21.3031C100.452 21.385 100.712 21.4582 101.014 21.5227L102.047 21.7553C102.754 21.9103 103.346 22.1148 103.824 22.3689C104.306 22.6187 104.685 22.9158 104.96 23.2603C105.236 23.6048 105.417 23.9902 105.503 24.4165C105.593 24.8428 105.596 25.3078 105.509 25.8117C105.363 26.6815 105.025 27.4179 104.495 28.0207C103.966 28.6236 103.275 29.0822 102.422 29.3965C101.569 29.7109 100.583 29.868 99.4637 29.868C98.3182 29.868 97.345 29.698 96.5441 29.3578C95.7475 29.0133 95.1704 28.4879 94.813 27.7817C94.4599 27.0712 94.3738 26.1648 94.5547 25.0624H97.9651C97.9134 25.4672 97.9565 25.8074 98.0943 26.0829C98.2321 26.3585 98.4539 26.5674 98.7596 26.7095C99.0653 26.8516 99.4464 26.9226 99.9029 26.9226C100.29 26.9226 100.622 26.8753 100.898 26.7805C101.173 26.6858 101.391 26.5545 101.55 26.3865C101.709 26.2186 101.806 26.027 101.841 25.8117C101.875 25.6136 101.841 25.437 101.737 25.282C101.634 25.127 101.447 24.987 101.175 24.8622C100.904 24.7373 100.532 24.6232 100.058 24.5198L98.7919 24.2356C97.668 23.9772 96.8197 23.5509 96.247 22.9567C95.6742 22.3624 95.4719 21.5486 95.6398 20.5151C95.7776 19.6711 96.1242 18.9348 96.6797 18.3061C97.2395 17.6731 97.95 17.1822 98.8113 16.8334C99.6768 16.4803 100.635 16.3037 101.686 16.3037C102.754 16.3037 103.647 16.4824 104.366 16.8398C105.09 17.1972 105.609 17.6989 105.923 18.3448C106.242 18.9907 106.328 19.7486 106.181 20.6185H102.745Z" fill="#72719E"/>
<path d="M82.2549 29.7128L84.451 16.4844H93.9848L93.4939 19.3781H87.5514L87.1897 21.6517H92.6413L92.1504 24.5455H86.6988L86.3371 26.8191H92.2537L91.7628 29.7128H82.2549Z" fill="#72719E"/>
<path d="M70.5654 19.3781L71.0563 16.4844H82.5537L82.0628 19.3781H78.0839L76.3787 29.7128H72.8391L74.5443 19.3781H70.5654Z" fill="#72719E"/>
<path d="M59.3056 29.7128H55.4301L61.9926 16.4844H66.9016L69.0719 29.7128H65.1964L63.9045 20.1274H63.8012L59.3056 29.7128ZM59.4606 24.4938H66.7466L66.2815 27.1808H58.9955L59.4606 24.4938Z" fill="#72719E"/>
<path d="M42.9962 29.7128L45.1923 16.4844H50.9023C51.8841 16.4844 52.713 16.6631 53.3891 17.0205C54.0651 17.3779 54.5517 17.8925 54.8489 18.5642C55.146 19.236 55.217 20.0412 55.062 20.98C54.907 21.9273 54.5647 22.7261 54.035 23.3763C53.5097 24.0223 52.84 24.5132 52.0262 24.849C51.2166 25.1806 50.308 25.3464 49.3004 25.3464H45.8899L46.355 22.556H49.042C49.464 22.556 49.8344 22.5044 50.153 22.401C50.4717 22.2934 50.73 22.1254 50.9281 21.8972C51.1262 21.6647 51.2554 21.3589 51.3157 20.98C51.376 20.601 51.3458 20.2932 51.2252 20.0563C51.1047 19.8152 50.9044 19.6386 50.6245 19.5267C50.3446 19.4104 49.998 19.3523 49.5846 19.3523H48.3186L46.5875 29.7128H42.9962ZM51.7549 23.6412L54.0544 29.7128H50.153L47.931 23.6412H51.7549Z" fill="#72719E"/>
<path d="M42.1777 21.4452H38.5863C38.6122 21.1395 38.595 20.8639 38.5347 20.6185C38.4744 20.373 38.371 20.162 38.2246 19.9855C38.0782 19.8046 37.8866 19.6668 37.6498 19.5721C37.4129 19.4773 37.1309 19.43 36.8036 19.43C36.1749 19.43 35.613 19.5871 35.1178 19.9015C34.6225 20.2115 34.2113 20.6572 33.884 21.2385C33.5568 21.8156 33.3242 22.5045 33.1865 23.3055C33.0659 24.0806 33.0616 24.7244 33.1735 25.2368C33.2898 25.7492 33.5159 26.1325 33.8518 26.3865C34.1919 26.6406 34.6333 26.7676 35.1759 26.7676C35.5376 26.7676 35.8692 26.7246 36.1706 26.6384C36.4763 26.5523 36.7476 26.4296 36.9845 26.2703C37.2256 26.1066 37.4301 25.9129 37.5981 25.6889C37.7703 25.4607 37.9017 25.2088 37.9921 24.9332H41.6093C41.4715 25.493 41.226 26.0657 40.8729 26.6514C40.5198 27.2327 40.0634 27.7688 39.5036 28.2597C38.9438 28.7463 38.2849 29.1403 37.527 29.4417C36.7692 29.7432 35.9165 29.8939 34.9692 29.8939C33.729 29.8939 32.6589 29.6226 31.759 29.08C30.8633 28.5374 30.2131 27.7451 29.8083 26.703C29.4078 25.6609 29.3282 24.3906 29.5693 22.8921C29.8104 21.4452 30.2863 20.2331 30.9968 19.2556C31.7073 18.2781 32.5707 17.5417 33.5869 17.0465C34.6032 16.5513 35.684 16.3037 36.8294 16.3037C37.695 16.3037 38.4701 16.4178 39.1548 16.646C39.8437 16.8743 40.4229 17.208 40.8923 17.6472C41.366 18.0821 41.7148 18.6183 41.9387 19.2556C42.1626 19.8929 42.2423 20.6228 42.1777 21.4452Z" fill="#72719E"/>
<path d="M27.3232 23.3313C27.0821 24.7696 26.6041 25.9753 25.8893 26.9485C25.1745 27.9217 24.3068 28.6559 23.2862 29.1511C22.2657 29.6463 21.174 29.8939 20.0114 29.8939C18.7712 29.8939 17.6947 29.6247 16.7818 29.0865C15.8689 28.5482 15.2036 27.7602 14.7859 26.7224C14.3682 25.6846 14.2842 24.4165 14.534 22.9179C14.7665 21.4797 15.2402 20.2697 15.955 19.2879C16.6698 18.3061 17.5418 17.5633 18.571 17.0594C19.6002 16.5556 20.7004 16.3037 21.8716 16.3037C23.1032 16.3037 24.1733 16.575 25.0819 17.1176C25.9948 17.6601 26.6579 18.4546 27.0713 19.501C27.489 20.5474 27.573 21.8242 27.3232 23.3313ZM23.7061 22.9179C23.8266 22.1601 23.8352 21.5228 23.7319 21.006C23.6285 20.485 23.4111 20.0931 23.0795 19.8304C22.7479 19.5635 22.3023 19.43 21.7425 19.43C21.1051 19.43 20.541 19.585 20.0501 19.895C19.5592 20.2051 19.1523 20.6508 18.8294 21.2321C18.5064 21.8134 18.2803 22.5132 18.1511 23.3313C18.0133 24.0978 18.0004 24.7351 18.1124 25.2433C18.2286 25.7514 18.4569 26.1325 18.7971 26.3865C19.1416 26.6406 19.5894 26.7676 20.1406 26.7676C20.7693 26.7676 21.3248 26.6169 21.8071 26.3155C22.2936 26.0141 22.6963 25.577 23.0149 25.0043C23.3379 24.4315 23.5683 23.7361 23.7061 22.9179Z" fill="#72719E"/>
<path d="M9.41839 20.6185C9.45715 20.1922 9.3538 19.8584 9.10835 19.6173C8.8629 19.3718 8.44951 19.2491 7.86818 19.2491C7.49785 19.2491 7.18781 19.2922 6.93806 19.3783C6.69261 19.4644 6.50098 19.5828 6.36319 19.7336C6.2297 19.8843 6.14573 20.0587 6.11128 20.2567C6.07252 20.4118 6.07468 20.5539 6.11774 20.6831C6.1651 20.8079 6.25338 20.922 6.38256 21.0254C6.51606 21.1287 6.69045 21.2213 6.90576 21.3031C7.12537 21.385 7.38589 21.4582 7.68732 21.5227L8.7208 21.7553C9.427 21.9103 10.0191 22.1148 10.4971 22.3689C10.9794 22.6187 11.3583 22.9158 11.6339 23.2603C11.9095 23.6048 12.0904 23.9902 12.1765 24.4165C12.2669 24.8428 12.2691 25.3078 12.1829 25.8117C12.0365 26.6815 11.6985 27.4179 11.1688 28.0207C10.6392 28.6236 9.94805 29.0822 9.09543 29.3965C8.24282 29.7109 7.25671 29.868 6.13712 29.868C4.99168 29.868 4.0185 29.698 3.21755 29.3578C2.42092 29.0133 1.8439 28.4879 1.48649 27.7817C1.13338 27.0712 1.04726 26.1648 1.22812 25.0624H4.63858C4.58691 25.4672 4.62997 25.8074 4.76776 26.0829C4.90556 26.3585 5.12733 26.5674 5.43306 26.7095C5.7388 26.8516 6.11989 26.9226 6.57634 26.9226C6.96389 26.9226 7.29547 26.8753 7.57106 26.7805C7.84665 26.6858 8.06411 26.5545 8.22344 26.3865C8.38277 26.2186 8.47965 26.027 8.5141 25.8117C8.54855 25.6136 8.5141 25.437 8.41076 25.282C8.30741 25.127 8.12009 24.987 7.8488 24.8622C7.57752 24.7373 7.20504 24.6232 6.73136 24.5198L5.46536 24.2356C4.34146 23.9772 3.49315 23.5509 2.92043 22.9567C2.34771 22.3624 2.14533 21.5486 2.31326 20.5151C2.45106 19.6711 2.79771 18.9348 3.3532 18.3061C3.91299 17.6731 4.62351 17.1822 5.48473 16.8334C6.35027 16.4803 7.30838 16.3037 8.35908 16.3037C9.427 16.3037 10.3205 16.4824 11.0397 16.8398C11.7631 17.1972 12.282 17.6989 12.5963 18.3448C12.915 18.9907 13.0011 19.7486 12.8547 20.6185H9.41839Z" fill="#72719E"/>
<path d="M102.909 20.4564C102.948 20.03 102.845 19.6963 102.599 19.4552C102.354 19.2097 101.94 19.087 101.359 19.087C100.989 19.087 100.679 19.1301 100.429 19.2162C100.183 19.3023 99.9917 19.4207 99.8539 19.5714C99.7204 19.7222 99.6364 19.8966 99.602 20.0946C99.5632 20.2497 99.5654 20.3918 99.6085 20.5209C99.6558 20.6458 99.7441 20.7599 99.8733 20.8633C100.007 20.9666 100.181 21.0592 100.396 21.141C100.616 21.2228 100.877 21.296 101.178 21.3606L102.212 21.5932C102.918 21.7482 103.51 21.9527 103.988 22.2068C104.47 22.4566 104.849 22.7537 105.125 23.0982C105.4 23.4427 105.581 23.8281 105.667 24.2544C105.758 24.6807 105.76 25.1457 105.674 25.6496C105.527 26.5194 105.189 27.2557 104.66 27.8586C104.13 28.4615 103.439 28.9201 102.586 29.2344C101.734 29.5488 100.747 29.7059 99.6278 29.7059C98.4824 29.7059 97.5092 29.5358 96.7083 29.1957C95.9116 28.8512 95.3346 28.3258 94.9772 27.6196C94.6241 26.9091 94.538 26.0027 94.7188 24.9003H98.1293C98.0776 25.3051 98.1207 25.6452 98.2585 25.9208C98.3963 26.1964 98.618 26.4053 98.9238 26.5474C99.2295 26.6895 99.6106 26.7605 100.067 26.7605C100.455 26.7605 100.786 26.7132 101.062 26.6184C101.337 26.5237 101.555 26.3924 101.714 26.2244C101.873 26.0565 101.97 25.8649 102.005 25.6496C102.039 25.4515 102.005 25.2749 101.901 25.1199C101.798 24.9649 101.611 24.8249 101.34 24.7001C101.068 24.5752 100.696 24.4611 100.222 24.3577L98.9561 24.0735C97.8322 23.8151 96.9839 23.3888 96.4111 22.7946C95.8384 22.2003 95.636 21.3865 95.804 20.353C95.9418 19.509 96.2884 18.7727 96.8439 18.144C97.4037 17.511 98.1142 17.0201 98.9755 16.6713C99.841 16.3182 100.799 16.1416 101.85 16.1416C102.918 16.1416 103.811 16.3203 104.53 16.6777C105.254 17.0351 105.773 17.5368 106.087 18.1827C106.406 18.8286 106.492 19.5865 106.345 20.4564H102.909Z" fill="white"/>
<path d="M82.4191 29.5507L84.6152 16.3223H94.149L93.6581 19.216H87.7156L87.3539 21.4896H92.8055L92.3146 24.3834H86.863L86.5013 26.657H92.4179L91.927 29.5507H82.4191Z" fill="white"/>
<path d="M70.7296 19.216L71.2205 16.3223H82.7179L82.227 19.216H78.2481L76.5429 29.5507H73.0033L74.7085 19.216H70.7296Z" fill="white"/>
<path d="M59.4698 29.5507H55.5942L62.1568 16.3223H67.0658L69.2361 29.5507H65.3606L64.0687 19.9653H63.9654L59.4698 29.5507ZM59.6248 24.3317H66.9108L66.4457 27.0187H59.1597L59.6248 24.3317Z" fill="white"/>
<path d="M43.1604 29.5507L45.3565 16.3223H51.0665C52.0483 16.3223 52.8772 16.501 53.5533 16.8584C54.2293 17.2158 54.7159 17.7304 55.013 18.4021C55.3102 19.0739 55.3812 19.8791 55.2262 20.8179C55.0712 21.7652 54.7288 22.564 54.1992 23.2142C53.6738 23.8602 53.0042 24.3511 52.1904 24.6869C51.3808 25.0185 50.4722 25.1843 49.4646 25.1843H46.0541L46.5192 22.3939H49.2062C49.6282 22.3939 49.9985 22.3422 50.3172 22.2389C50.6359 22.1312 50.8942 21.9633 51.0923 21.7351C51.2904 21.5025 51.4196 21.1968 51.4799 20.8179C51.5401 20.4389 51.51 20.131 51.3894 19.8942C51.2689 19.6531 51.0686 19.4765 50.7887 19.3646C50.5088 19.2483 50.1622 19.1902 49.7488 19.1902H48.4828L46.7517 29.5507H43.1604ZM51.9191 23.4791L54.2186 29.5507H50.3172L48.0952 23.4791H51.9191Z" fill="white"/>
<path d="M42.3419 21.2831H38.7505C38.7764 20.9774 38.7591 20.7018 38.6989 20.4564C38.6386 20.2109 38.5352 19.9999 38.3888 19.8234C38.2424 19.6425 38.0508 19.5047 37.8139 19.41C37.5771 19.3152 37.2951 19.2679 36.9678 19.2679C36.3391 19.2679 35.7771 19.425 35.2819 19.7394C34.7867 20.0494 34.3755 20.4951 34.0482 21.0764C33.721 21.6535 33.4884 22.3424 33.3506 23.1434C33.2301 23.9185 33.2258 24.5623 33.3377 25.0747C33.454 25.5871 33.6801 25.9704 34.0159 26.2244C34.3561 26.4785 34.7975 26.6055 35.3401 26.6055C35.7018 26.6055 36.0334 26.5625 36.3348 26.4763C36.6405 26.3902 36.9118 26.2675 37.1486 26.1082C37.3898 25.9445 37.5943 25.7507 37.7623 25.5268C37.9345 25.2986 38.0659 25.0467 38.1563 24.7711H41.7734C41.6356 25.3309 41.3902 25.9036 41.0371 26.4893C40.684 27.0706 40.2275 27.6067 39.6677 28.0976C39.1079 28.5842 38.4491 28.9782 37.6912 29.2796C36.9333 29.5811 36.0807 29.7318 35.1334 29.7318C33.8932 29.7318 32.8231 29.4605 31.9232 28.9179C31.0275 28.3753 30.3772 27.583 29.9725 26.5409C29.572 25.4988 29.4923 24.2285 29.7335 22.73C29.9746 21.2831 30.4505 20.071 31.161 19.0935C31.8715 18.116 32.7349 17.3796 33.7511 16.8844C34.7674 16.3892 35.8482 16.1416 36.9936 16.1416C37.8592 16.1416 38.6343 16.2557 39.3189 16.4839C40.0079 16.7122 40.5871 17.0459 41.0565 17.4851C41.5301 17.92 41.8789 18.4562 42.1029 19.0935C42.3268 19.7308 42.4064 20.4607 42.3419 21.2831Z" fill="white"/>
<path d="M27.4874 23.1692C27.2463 24.6075 26.7683 25.8132 26.0535 26.7864C25.3386 27.7596 24.471 28.4938 23.4504 28.989C22.4298 29.4842 21.3382 29.7318 20.1756 29.7318C18.9354 29.7318 17.8589 29.4626 16.946 28.9244C16.0331 28.3861 15.3678 27.5981 14.9501 26.5603C14.5324 25.5225 14.4484 24.2544 14.6982 22.7558C14.9307 21.3176 15.4044 20.1076 16.1192 19.1258C16.834 18.144 17.706 17.4011 18.7352 16.8973C19.7643 16.3935 20.8646 16.1416 22.0358 16.1416C23.2674 16.1416 24.3375 16.4129 25.2461 16.9555C26.159 17.498 26.8221 18.2925 27.2355 19.3389C27.6532 20.3853 27.7372 21.6621 27.4874 23.1692ZM23.8702 22.7558C23.9908 21.9979 23.9994 21.3606 23.8961 20.8439C23.7927 20.3229 23.5753 19.931 23.2437 19.6683C22.9121 19.4013 22.4664 19.2679 21.9066 19.2679C21.2693 19.2679 20.7052 19.4229 20.2143 19.7329C19.7234 20.043 19.3165 20.4886 18.9935 21.07C18.6706 21.6513 18.4445 22.3511 18.3153 23.1692C18.1775 23.9357 18.1646 24.573 18.2766 25.0811C18.3928 25.5893 18.6211 25.9704 18.9612 26.2244C19.3057 26.4785 19.7536 26.6055 20.3048 26.6055C20.9335 26.6055 21.4889 26.4548 21.9712 26.1534C22.4578 25.8519 22.8605 25.4149 23.1791 24.8422C23.5021 24.2694 23.7324 23.574 23.8702 22.7558Z" fill="white"/>
<path d="M9.58258 20.4564C9.62133 20.03 9.51798 19.6963 9.27253 19.4552C9.02708 19.2097 8.6137 19.087 8.03237 19.087C7.66204 19.087 7.352 19.1301 7.10224 19.2162C6.85679 19.3023 6.66517 19.4207 6.52737 19.5714C6.39388 19.7222 6.30991 19.8966 6.27546 20.0946C6.23671 20.2497 6.23886 20.3918 6.28192 20.5209C6.32929 20.6458 6.41756 20.7599 6.54675 20.8633C6.68024 20.9666 6.85464 21.0592 7.06994 21.141C7.28956 21.2228 7.55008 21.296 7.85151 21.3606L8.88498 21.5932C9.59119 21.7482 10.1833 21.9527 10.6613 22.2068C11.1436 22.4566 11.5225 22.7537 11.7981 23.0982C12.0737 23.4427 12.2545 23.8281 12.3407 24.2544C12.4311 24.6807 12.4332 25.1457 12.3471 25.6496C12.2007 26.5194 11.8627 27.2557 11.333 27.8586C10.8034 28.4615 10.1122 28.9201 9.25962 29.2344C8.407 29.5488 7.4209 29.7059 6.3013 29.7059C5.15587 29.7059 4.18268 29.5358 3.38174 29.1957C2.5851 28.8512 2.00808 28.3258 1.65067 27.6196C1.29757 26.9091 1.21144 26.0027 1.3923 24.9003H4.80276C4.75109 25.3051 4.79415 25.6452 4.93195 25.9208C5.06974 26.1964 5.29151 26.4053 5.59725 26.5474C5.90298 26.6895 6.28407 26.7605 6.74053 26.7605C7.12808 26.7605 7.45965 26.7132 7.73524 26.6184C8.01084 26.5237 8.2283 26.3924 8.38762 26.2244C8.54695 26.0565 8.64384 25.8649 8.67829 25.6496C8.71274 25.4515 8.67829 25.2749 8.57494 25.1199C8.47159 24.9649 8.28428 24.8249 8.01299 24.7001C7.7417 24.5752 7.36922 24.4611 6.89555 24.3577L5.62954 24.0735C4.50564 23.8151 3.65733 23.3888 3.08461 22.7946C2.5119 22.2003 2.30951 21.3865 2.47745 20.353C2.61525 19.509 2.96189 18.7727 3.51738 18.144C4.07718 17.511 4.78769 17.0201 5.64892 16.6713C6.51445 16.3182 7.47257 16.1416 8.52327 16.1416C9.59119 16.1416 10.4847 16.3203 11.2038 16.6777C11.9273 17.0351 12.4462 17.5368 12.7605 18.1827C13.0792 18.8286 13.1653 19.5865 13.0189 20.4564H9.58258Z" fill="white"/>
</svg>
