<svg width="123" height="36" viewBox="0 0 123 36" fill="none" xmlns="http://www.w3.org/2000/svg">
<path d="M37.0329 31.5508V2.86102H49.9635C51.3104 2.86102 52.5496 3.14387 53.6811 3.70959C54.8394 4.24836 55.8362 4.98918 56.6713 5.93203C57.5064 6.84795 58.1529 7.88509 58.6108 9.04346C59.0957 10.2018 59.3382 11.3737 59.3382 12.559C59.3382 13.7443 59.1496 14.8757 58.7725 15.9532C58.3953 17.0039 57.8566 17.9602 57.1562 18.8222C56.4557 19.6573 55.6206 20.3443 54.6508 20.883L60.9545 31.5508H53.6406L48.1451 22.2973H43.6598V31.5508H37.0329ZM43.6598 16.519H49.7211C50.2598 16.519 50.7313 16.3573 51.1353 16.0341C51.5664 15.6839 51.9166 15.2124 52.186 14.6198C52.4553 14.0271 52.59 13.3402 52.59 12.559C52.59 11.7777 52.4284 11.1043 52.1051 10.5386C51.8088 9.9459 51.4317 9.48795 50.9737 9.16468C50.5158 8.84142 50.0309 8.67978 49.519 8.67978H43.6598V16.519ZM87.4995 25.732V31.5508H67.3358V2.86102H87.1358V8.67978H73.9628V14.2561H85.277V19.6304H73.9628V25.732H87.4995ZM94.7581 31.5508V2.86102H105.466C108.618 2.86102 111.245 3.50754 113.346 4.8006C115.474 6.06673 117.077 7.79081 118.154 9.97284C119.232 12.1279 119.771 14.5255 119.771 17.1655C119.771 20.0749 119.178 22.6071 117.993 24.7622C116.807 26.9173 115.137 28.5875 112.982 29.7728C110.854 30.9581 108.349 31.5508 105.466 31.5508H94.7581ZM113.023 17.1655C113.023 15.4953 112.726 14.0271 112.134 12.761C111.541 11.4679 110.679 10.4712 109.547 9.7708C108.416 9.04346 107.056 8.67978 105.466 8.67978H101.385V25.732H105.466C107.083 25.732 108.443 25.3683 109.547 24.641C110.679 23.8867 111.541 22.863 112.134 21.57C112.726 20.25 113.023 18.7818 113.023 17.1655Z" fill="white"/>
<path d="M30.4669 7.42328C28.3199 4.8449 25.4228 2.9996 22.1784 2.14395C18.9341 1.28829 15.5038 1.4648 12.3644 2.64894C9.22502 3.83307 6.53262 5.96598 4.66154 8.75111C2.79047 11.5362 1.8337 14.8352 1.92428 18.1892C2.01487 21.5433 3.14829 24.7858 5.16696 27.4658C7.18563 30.1459 9.98923 32.1304 13.1879 33.1434C16.3867 34.1563 19.8215 34.1474 23.0149 33.1179C26.2084 32.0884 29.0016 30.0894 31.0064 27.3989L25.3507 23.1847C24.2218 24.6997 22.649 25.8253 20.8508 26.405C19.0526 26.9847 17.1185 26.9897 15.3173 26.4194C13.5161 25.849 11.9374 24.7315 10.8008 23.2224C9.66406 21.7133 9.02584 19.8874 8.97483 17.9988C8.92383 16.1102 9.46257 14.2526 10.5162 12.6843C11.5697 11.116 13.0858 9.91499 14.8536 9.24822C16.6213 8.58144 18.5529 8.48205 20.3798 8.96386C22.2066 9.44567 23.8379 10.4847 25.0469 11.9366L30.4669 7.42328Z" fill="white"/>
<path d="M30.4669 7.42328C28.2632 4.77679 25.2708 2.90443 21.927 2.0798C18.5833 1.25517 15.0635 1.52149 11.8819 2.83983L14.5819 9.35571C16.3734 8.61336 18.3554 8.4634 20.2382 8.92774C22.121 9.39209 23.806 10.4464 25.0469 11.9366L30.4669 7.42328Z" fill="url(#paint0_linear_2538_12234)"/>
<path fill-rule="evenodd" clip-rule="evenodd" d="M20.8276 11.7958C21.1272 11.9036 21.2827 12.2339 21.1749 12.5335L18.8846 18.8981C18.7768 19.1977 18.4465 19.3532 18.1469 19.2453L16.5194 18.6597C16.2198 18.5519 16.0643 18.2216 16.1721 17.922L18.4625 11.5574C18.5703 11.2578 18.9005 11.1024 19.2002 11.2102L20.8276 11.7958Z" fill="#4CB3AD"/>
<defs>
<linearGradient id="paint0_linear_2538_12234" x1="3.12626" y1="5.29158" x2="28.5497" y2="23.2657" gradientUnits="userSpaceOnUse">
<stop stop-color="#80FFD9"/>
<stop offset="0.978741" stop-color="#01476E"/>
</linearGradient>
</defs>
</svg>
