<svg width="200" height="60" viewBox="0 0 200 60" fill="none" xmlns="http://www.w3.org/2000/svg">
<path d="M61.7222 52.9185V5.10213H83.2732C85.5181 5.10213 87.5834 5.57356 89.4691 6.51642C91.3997 7.41437 93.0609 8.64907 94.4528 10.2205C95.8446 11.747 96.9222 13.4756 97.6854 15.4062C98.4936 17.3368 98.8977 19.2899 98.8977 21.2654C98.8977 23.2409 98.5834 25.1266 97.9548 26.9225C97.3263 28.6736 96.4283 30.2674 95.2609 31.7042C94.0936 33.096 92.7018 34.2409 91.0854 35.1389L101.592 52.9185H89.4018L80.2426 37.496H72.7671V52.9185H61.7222ZM72.7671 27.8654H82.8691C83.7671 27.8654 84.5528 27.596 85.2263 27.0572C85.9446 26.4736 86.5283 25.6878 86.9773 24.7001C87.4263 23.7123 87.6507 22.5674 87.6507 21.2654C87.6507 19.9634 87.3814 18.8409 86.8426 17.898C86.3487 16.9103 85.7201 16.147 84.9569 15.6083C84.1936 15.0695 83.3854 14.8001 82.5324 14.8001H72.7671V27.8654ZM145.833 43.2205V52.9185H112.227V5.10213H145.227V14.8001H123.272V24.094H142.129V33.0511H123.272V43.2205H145.833ZM157.931 52.9185V5.10213H175.778C181.031 5.10213 185.409 6.17968 188.911 8.33478C192.457 10.445 195.129 13.3185 196.925 16.9552C198.721 20.547 199.619 24.5429 199.619 28.9429C199.619 33.7919 198.631 38.0123 196.655 41.6042C194.68 45.196 191.896 47.9797 188.304 49.9552C184.757 51.9307 180.582 52.9185 175.778 52.9185H157.931ZM188.372 28.9429C188.372 26.1593 187.878 23.7123 186.89 21.6021C185.902 19.447 184.466 17.7858 182.58 16.6185C180.694 15.4062 178.427 14.8001 175.778 14.8001H168.976V43.2205H175.778C178.472 43.2205 180.739 42.6144 182.58 41.4021C184.466 40.145 185.902 38.4389 186.89 36.2838C187.878 34.0838 188.372 31.6368 188.372 28.9429Z" fill="white"/>
<path d="M50.7848 12.3716C47.2064 8.07433 42.3778 4.99883 36.9706 3.57274C31.5634 2.14664 25.8462 2.44082 20.6139 4.41438C15.3816 6.38794 10.8942 9.9428 7.77576 14.5847C4.6573 19.2266 3.06269 24.7248 3.21366 30.3149C3.36463 35.905 5.25367 41.3091 8.61812 45.7759C11.9826 50.2427 16.6552 53.5502 21.9864 55.2385C27.3176 56.9268 33.0424 56.9119 38.3648 55.1961C43.6872 53.4802 48.3426 50.1486 51.6839 45.6644L42.2577 38.6407C40.3763 41.1657 37.7548 43.0417 34.7579 44.0079C31.7609 44.9741 28.5373 44.9824 25.5354 44.0318C22.5334 43.0811 19.9023 41.2187 18.0078 38.7035C16.1133 36.1883 15.0496 33.1453 14.9646 29.9975C14.8796 26.8498 15.7775 23.7538 17.5335 21.14C19.2894 18.5262 21.8162 16.5245 24.7625 15.4132C27.7087 14.3019 30.9281 14.1362 33.9728 14.9393C37.0176 15.7423 39.7365 17.4741 41.7515 19.8938L50.7848 12.3716Z" fill="white"/>
<path d="M50.7848 12.3716C47.1118 7.96081 42.1245 4.84021 36.5516 3.46583C30.9787 2.09144 25.1124 2.5353 19.8097 4.73255L24.3097 15.5923C27.2956 14.3551 30.5989 14.1052 33.7369 14.8791C36.8749 15.653 39.6832 17.4102 41.7515 19.8938L50.7848 12.3716Z" fill="url(#paint0_linear_318_13066)"/>
<path fill-rule="evenodd" clip-rule="evenodd" d="M34.7169 19.6596C35.2163 19.8392 35.4754 20.3897 35.2957 20.8891L31.4785 31.4966C31.2988 31.996 30.7484 32.2551 30.249 32.0754L27.5366 31.0993C27.0372 30.9196 26.7781 30.3692 26.9578 29.8698L30.775 19.2623C30.9547 18.7629 31.5051 18.5038 32.0045 18.6835L34.7169 19.6596Z" fill="#4CB3AD"/>
<defs>
<linearGradient id="paint0_linear_318_13066" x1="5.21696" y1="8.81879" x2="47.5894" y2="38.7756" gradientUnits="userSpaceOnUse">
<stop stop-color="#80FFD9"/>
<stop offset="0.978741" stop-color="#01476E"/>
</linearGradient>
</defs>
</svg>
