<svg width="235" height="66" viewBox="0 0 235 66" fill="none" xmlns="http://www.w3.org/2000/svg">
<path d="M195.849 3.5415V23.7903H190.964V8.10936H190.846L186.317 10.8778V6.64606L191.31 3.5415L195.849 3.5415Z" fill="#38C8AD"/>
<path d="M173.728 24.2847C171.962 24.2847 170.439 23.8661 169.16 23.029C167.882 22.1853 166.896 20.9758 166.204 19.4004C165.512 17.8185 165.169 15.9169 165.176 13.6956C165.182 11.4743 165.529 9.58912 166.214 8.04013C166.906 6.48456 167.888 5.3014 169.16 4.49065C170.439 3.67332 171.962 3.26465 173.728 3.26465C175.495 3.26465 177.017 3.67332 178.296 4.49065C179.581 5.3014 180.57 6.48456 181.262 8.04013C181.954 9.59571 182.297 11.4809 182.29 13.6956C182.29 15.9235 181.944 17.8284 181.252 19.4103C180.56 20.9923 179.575 22.2018 178.296 23.0389C177.024 23.8694 175.501 24.2847 173.728 24.2847ZM173.728 20.2804C174.783 20.2804 175.636 19.7432 176.289 18.6688C176.942 17.5878 177.265 15.9301 177.258 13.6956C177.258 12.2323 177.11 11.026 176.813 10.0769C176.516 9.12113 176.104 8.40925 175.577 7.94126C175.05 7.47327 174.434 7.23927 173.728 7.23927C172.68 7.23927 171.833 7.76988 171.187 8.8311C170.541 9.88573 170.215 11.5072 170.208 13.6956C170.202 15.1786 170.344 16.4079 170.634 17.3835C170.93 18.359 171.345 19.0874 171.879 19.5685C172.413 20.0431 173.03 20.2804 173.728 20.2804Z" fill="#38C8AD"/>
<path d="M153.55 3.5415V23.7903L149.397 23.7903L141.339 12.1038H141.211V23.7903H136.316V3.5415L140.528 3.5415L148.497 15.2083H148.665V3.5415L153.55 3.5415Z" fill="#38C8AD"/>
<path d="M132.067 13.6659C132.067 15.8938 131.638 17.7823 130.781 19.3312C129.924 20.8802 128.764 22.0568 127.301 22.8609C125.844 23.6651 124.21 24.0672 122.397 24.0672C120.578 24.0672 118.94 23.6618 117.483 22.8511C116.026 22.0403 114.87 20.8637 114.013 19.3214C113.162 17.7724 112.737 15.8872 112.737 13.6659C112.737 11.438 113.162 9.54957 114.013 8.00058C114.87 6.4516 116.026 5.27503 117.483 4.47088C118.94 3.66673 120.578 3.26465 122.397 3.26465C124.21 3.26465 125.844 3.66673 127.301 4.47088C128.764 5.27503 129.924 6.4516 130.781 8.00058C131.638 9.54957 132.067 11.438 132.067 13.6659ZM127.064 13.6659C127.064 12.3476 126.876 11.2337 126.5 10.3241C126.131 9.41444 125.597 8.72564 124.898 8.25765C124.206 7.78966 123.373 7.55566 122.397 7.55566C121.428 7.55566 120.594 7.78966 119.896 8.25765C119.197 8.72564 118.66 9.41444 118.284 10.3241C117.915 11.2337 117.73 12.3476 117.73 13.6659C117.73 14.9842 117.915 16.0981 118.284 17.0078C118.66 17.9174 119.197 18.6062 119.896 19.0742C120.594 19.5422 121.428 19.7762 122.397 19.7762C123.373 19.7762 124.206 19.5422 124.898 19.0742C125.597 18.6062 126.131 17.9174 126.5 17.0078C126.876 16.0981 127.064 14.9842 127.064 13.6659Z" fill="#38C8AD"/>
<path d="M104.128 9.61219C104.062 8.88713 103.769 8.32356 103.248 7.92149C102.734 7.51282 101.999 7.30849 101.043 7.30849C100.41 7.30849 99.8831 7.39088 99.4613 7.55566C99.0394 7.72045 98.723 7.94785 98.5121 8.23788C98.3012 8.52131 98.1924 8.84758 98.1858 9.2167C98.1727 9.51991 98.232 9.78686 98.3638 10.0176C98.5022 10.2483 98.7 10.4526 98.957 10.6306C99.2207 10.8019 99.5371 10.9535 99.9062 11.0854C100.275 11.2172 100.691 11.3325 101.152 11.4314L102.892 11.8269C103.894 12.0444 104.777 12.3344 105.542 12.697C106.313 13.0595 106.959 13.4912 107.48 13.9922C108.007 14.4931 108.406 15.0699 108.676 15.7224C108.946 16.375 109.085 17.1066 109.091 17.9174C109.085 19.1961 108.762 20.2936 108.122 21.2098C107.483 22.126 106.564 22.828 105.364 23.3158C104.171 23.8035 102.731 24.0474 101.043 24.0474C99.3492 24.0474 97.8727 23.7936 96.6138 23.2861C95.3548 22.7785 94.376 22.0074 93.6773 20.9725C92.9786 19.9376 92.6194 18.6292 92.5996 17.0473H97.2861C97.3257 17.6999 97.5003 18.2437 97.8101 18.6787C98.1199 19.1137 98.5451 19.4433 99.0856 19.6674C99.6327 19.8915 100.265 20.0036 100.984 20.0036C101.643 20.0036 102.203 19.9146 102.665 19.7366C103.133 19.5586 103.492 19.3115 103.742 18.9951C103.993 18.6787 104.121 18.3162 104.128 17.9075C104.121 17.5252 104.003 17.1989 103.772 16.9287C103.541 16.6518 103.185 16.4145 102.704 16.2168C102.23 16.0125 101.623 15.8246 100.885 15.6532L98.7692 15.1589C97.0159 14.7568 95.635 14.1075 94.6265 13.2111C93.618 12.3081 93.117 11.0887 93.1236 9.55286C93.117 8.30049 93.4532 7.20302 94.1321 6.26045C94.811 5.31788 95.7503 4.58293 96.9499 4.05562C98.1496 3.52831 99.5173 3.26465 101.053 3.26465C102.622 3.26465 103.983 3.5316 105.136 4.06551C106.297 4.59282 107.196 5.33435 107.836 6.29011C108.475 7.24587 108.801 8.35322 108.815 9.61219L104.128 9.61219Z" fill="#38C8AD"/>
<path d="M75.3166 23.7903H70.0566L76.8886 3.5415L83.4043 3.5415L90.2363 23.7903L84.9763 23.7903L80.2206 8.64326H80.0624L75.3166 23.7903ZM74.6146 15.8213L85.6091 15.8213V19.5389H74.6146V15.8213Z" fill="#38C8AD"/>
<path d="M52.3604 23.7903V3.5415L66.4792 3.5415V7.51613L57.2545 7.51613V11.6687L65.7574 11.6687V15.6532L57.2545 15.6532V19.8157H66.4792V23.7903H52.3604Z" fill="#38C8AD"/>
<path d="M43.5333 9.61219C43.4674 8.88713 43.174 8.32356 42.6533 7.92149C42.1392 7.51282 41.4042 7.30849 40.4485 7.30849C39.8157 7.30849 39.2884 7.39088 38.8666 7.55566C38.4447 7.72045 38.1283 7.94785 37.9174 8.23788C37.7065 8.52131 37.5977 8.84758 37.5911 9.2167C37.5779 9.51991 37.6373 9.78686 37.7691 10.0176C37.9075 10.2483 38.1052 10.4526 38.3623 10.6306C38.626 10.8019 38.9424 10.9535 39.3115 11.0854C39.6806 11.2172 40.0959 11.3325 40.5573 11.4314L42.2974 11.8269C43.2993 12.0444 44.1825 12.3344 44.9471 12.697C45.7183 13.0595 46.3643 13.4912 46.885 13.9922C47.4123 14.4931 47.8111 15.0699 48.0814 15.7224C48.3516 16.375 48.49 17.1066 48.4966 17.9174C48.49 19.1961 48.167 20.2936 47.5277 21.2098C46.8883 22.126 45.9688 22.828 44.7692 23.3158C43.5761 23.8035 42.1359 24.0474 40.4485 24.0474C38.7545 24.0474 37.278 23.7936 36.0191 23.2861C34.7601 22.7785 33.7813 22.0074 33.0826 20.9725C32.3839 19.9376 32.0247 18.6292 32.0049 17.0473H36.6914C36.7309 17.6999 36.9056 18.2437 37.2154 18.6787C37.5252 19.1137 37.9503 19.4433 38.4908 19.6674C39.0379 19.8915 39.6707 20.0036 40.3892 20.0036C41.0483 20.0036 41.6086 19.9146 42.07 19.7366C42.538 19.5586 42.8972 19.3115 43.1477 18.9951C43.3982 18.6787 43.5267 18.3162 43.5333 17.9075C43.5267 17.5252 43.408 17.1989 43.1773 16.9287C42.9466 16.6518 42.5907 16.4145 42.1095 16.2168C41.6349 16.0125 41.0285 15.8246 40.2903 15.6532L38.1745 15.1589C36.4211 14.7568 35.0402 14.1075 34.0317 13.2111C33.0233 12.3081 32.5223 11.0887 32.5289 9.55286C32.5223 8.30049 32.8585 7.20302 33.5374 6.26045C34.2163 5.31788 35.1556 4.58293 36.3552 4.05562C37.5549 3.52831 38.9226 3.26465 40.4584 3.26465C42.0271 3.26465 43.3883 3.5316 44.5418 4.06551C45.7019 4.59282 46.6016 5.33435 47.241 6.29011C47.8803 7.24587 48.2066 8.35322 48.2198 9.61219L43.5333 9.61219Z" fill="#38C8AD"/>
<path d="M197.082 1.04883V21.2977H192.198V5.61668H192.079L187.551 8.38508V4.15339L192.544 1.04883L197.082 1.04883Z" fill="#278C79"/>
<path d="M174.962 21.792C173.195 21.792 171.673 21.3735 170.394 20.5363C169.115 19.6926 168.13 18.4831 167.438 16.9078C166.745 15.3258 166.403 13.4242 166.409 11.2029C166.416 8.98159 166.762 7.09644 167.447 5.54746C168.14 3.99188 169.122 2.80872 170.394 1.99798C171.673 1.18064 173.195 0.771973 174.962 0.771973C176.728 0.771973 178.251 1.18064 179.529 1.99798C180.815 2.80872 181.804 3.99188 182.496 5.54746C183.188 7.10303 183.53 8.98818 183.524 11.2029C183.524 13.4308 183.178 15.3357 182.486 16.9177C181.794 18.4996 180.808 19.7091 179.529 20.5462C178.257 21.3768 176.735 21.792 174.962 21.792ZM174.962 17.7877C176.016 17.7877 176.87 17.2505 177.522 16.1761C178.175 15.0951 178.498 13.4374 178.491 11.2029C178.491 9.7396 178.343 8.53337 178.046 7.58421C177.75 6.62845 177.338 5.91658 176.811 5.44859C176.283 4.98059 175.667 4.7466 174.962 4.7466C173.914 4.7466 173.067 5.27721 172.421 6.33843C171.775 7.39305 171.448 9.01454 171.442 11.2029C171.435 12.686 171.577 13.9153 171.867 14.8908C172.164 15.8663 172.579 16.5947 173.113 17.0759C173.647 17.5504 174.263 17.7877 174.962 17.7877Z" fill="#278C79"/>
<path d="M154.783 1.04883V21.2977L150.63 21.2977L142.572 9.61108H142.444V21.2977H137.55V1.04883L141.762 1.04883L149.731 12.7156H149.899V1.04883L154.783 1.04883Z" fill="#278C79"/>
<path d="M133.3 11.1732C133.3 13.4011 132.872 15.2896 132.015 16.8386C131.158 18.3875 129.998 19.5641 128.534 20.3683C127.078 21.1724 125.443 21.5745 123.63 21.5745C121.811 21.5745 120.173 21.1691 118.717 20.3584C117.26 19.5476 116.103 18.3711 115.246 16.8287C114.396 15.2797 113.971 13.3945 113.971 11.1732C113.971 8.94533 114.396 7.05689 115.246 5.50791C116.103 3.95892 117.26 2.78236 118.717 1.9782C120.173 1.17405 121.811 0.771973 123.63 0.771973C125.443 0.771973 127.078 1.17405 128.534 1.9782C129.998 2.78236 131.158 3.95892 132.015 5.50791C132.872 7.05689 133.3 8.94533 133.3 11.1732ZM128.297 11.1732C128.297 9.85495 128.109 8.741 127.734 7.83138C127.364 6.92177 126.831 6.23296 126.132 5.76497C125.44 5.29698 124.606 5.06299 123.63 5.06299C122.661 5.06299 121.828 5.29698 121.129 5.76497C120.43 6.23296 119.893 6.92177 119.517 7.83138C119.148 8.741 118.964 9.85495 118.964 11.1732C118.964 12.4915 119.148 13.6055 119.517 14.5151C119.893 15.4247 120.43 16.1135 121.129 16.5815C121.828 17.0495 122.661 17.2835 123.63 17.2835C124.606 17.2835 125.44 17.0495 126.132 16.5815C126.831 16.1135 127.364 15.4247 127.734 14.5151C128.109 13.6055 128.297 12.4915 128.297 11.1732Z" fill="#278C79"/>
<path d="M105.361 7.11951C105.295 6.39445 105.002 5.83089 104.481 5.42881C103.967 5.02014 103.232 4.81581 102.277 4.81581C101.644 4.81581 101.117 4.8982 100.695 5.06299C100.273 5.22777 99.9564 5.45518 99.7455 5.7452C99.5346 6.02863 99.4258 6.35491 99.4192 6.72403C99.4061 7.02723 99.4654 7.29418 99.5972 7.52488C99.7356 7.75558 99.9334 7.95992 100.19 8.13789C100.454 8.30926 100.77 8.46086 101.14 8.59269C101.509 8.72452 101.924 8.83987 102.385 8.93874L104.126 9.33423C105.127 9.55175 106.011 9.84177 106.775 10.2043C107.546 10.5668 108.192 10.9986 108.713 11.4995C109.24 12.0005 109.639 12.5772 109.909 13.2298C110.18 13.8823 110.318 14.614 110.325 15.4247C110.318 16.7034 109.995 17.8009 109.356 18.7171C108.716 19.6333 107.797 20.3353 106.597 20.8231C105.404 21.3108 103.964 21.5547 102.277 21.5547C100.583 21.5547 99.1061 21.301 97.8472 20.7934C96.5882 20.2859 95.6094 19.5147 94.9107 18.4798C94.212 17.445 93.8528 16.1366 93.833 14.5546H98.5195C98.5591 15.2072 98.7337 15.751 99.0435 16.186C99.3533 16.621 99.7785 16.9506 100.319 17.1747C100.866 17.3988 101.499 17.5109 102.217 17.5109C102.876 17.5109 103.437 17.4219 103.898 17.2439C104.366 17.066 104.725 16.8188 104.976 16.5024C105.226 16.186 105.355 15.8235 105.361 15.4148C105.355 15.0325 105.236 14.7062 105.005 14.436C104.775 14.1591 104.419 13.9219 103.938 13.7241C103.463 13.5198 102.857 13.3319 102.118 13.1605L100.003 12.6662C98.2493 12.2641 96.8684 11.6149 95.8599 10.7184C94.8514 9.8154 94.3504 8.59599 94.357 7.06019C94.3504 5.80782 94.6866 4.71035 95.3655 3.76777C96.0444 2.8252 96.9837 2.09026 98.1833 1.56294C99.383 1.03563 100.751 0.771973 102.287 0.771973C103.855 0.771973 105.216 1.03892 106.37 1.57283C107.53 2.10014 108.43 2.84168 109.069 3.79744C109.708 4.75319 110.035 5.86055 110.048 7.11951L105.361 7.11951Z" fill="#278C79"/>
<path d="M76.55 21.2977H71.29L78.122 1.04883L84.6377 1.04883L91.4697 21.2977L86.2097 21.2977L81.454 6.15059H81.2958L76.55 21.2977ZM75.848 13.3286L86.8425 13.3286V17.0462H75.848V13.3286Z" fill="#278C79"/>
<path d="M53.5938 21.2977V1.04883L67.7126 1.04883V5.02345L58.4879 5.02345V9.17605L66.9908 9.17605V13.1606L58.4879 13.1606V17.323H67.7126V21.2977H53.5938Z" fill="#278C79"/>
<path d="M44.7667 7.11951C44.7008 6.39445 44.4074 5.83089 43.8867 5.42881C43.3726 5.02014 42.6376 4.81581 41.6819 4.81581C41.0491 4.81581 40.5218 4.8982 40.0999 5.06299C39.6781 5.22777 39.3617 5.45518 39.1508 5.7452C38.9399 6.02863 38.8311 6.35491 38.8245 6.72403C38.8113 7.02723 38.8706 7.29418 39.0025 7.52488C39.1409 7.75558 39.3386 7.95992 39.5957 8.13789C39.8594 8.30926 40.1758 8.46086 40.5449 8.59269C40.914 8.72452 41.3292 8.83987 41.7906 8.93874L43.5308 9.33423C44.5327 9.55175 45.4159 9.84177 46.1805 10.2043C46.9517 10.5668 47.5977 10.9986 48.1184 11.4995C48.6457 12.0005 49.0445 12.5772 49.3148 13.2298C49.585 13.8823 49.7234 14.614 49.73 15.4247C49.7234 16.7034 49.4004 17.8009 48.7611 18.7171C48.1217 19.6333 47.2022 20.3353 46.0026 20.8231C44.8095 21.3108 43.3693 21.5547 41.6819 21.5547C39.9879 21.5547 38.5114 21.301 37.2525 20.7934C35.9935 20.2859 35.0147 19.5147 34.316 18.4798C33.6173 17.445 33.2581 16.1366 33.2383 14.5546H37.9248C37.9643 15.2072 38.139 15.751 38.4488 16.186C38.7586 16.621 39.1837 16.9506 39.7242 17.1747C40.2713 17.3988 40.9041 17.5109 41.6226 17.5109C42.2817 17.5109 42.842 17.4219 43.3034 17.2439C43.7714 17.066 44.1306 16.8188 44.3811 16.5024C44.6316 16.186 44.7601 15.8235 44.7667 15.4148C44.7601 15.0325 44.6414 14.7062 44.4107 14.436C44.18 14.1591 43.8241 13.9219 43.3429 13.7241C42.8683 13.5198 42.2619 13.3319 41.5237 13.1605L39.4079 12.6662C37.6545 12.2641 36.2736 11.6149 35.2651 10.7184C34.2567 9.8154 33.7557 8.59599 33.7623 7.06019C33.7557 5.80782 34.0919 4.71035 34.7708 3.76777C35.4497 2.8252 36.389 2.09026 37.5886 1.56294C38.7883 1.03563 40.156 0.771973 41.6918 0.771973C43.2605 0.771973 44.6217 1.03892 45.7752 1.57283C46.9353 2.10014 47.835 2.84168 48.4744 3.79744C49.1137 4.75319 49.44 5.86055 49.4532 7.11951L44.7667 7.11951Z" fill="#278C79"/>
<path d="M197.543 0.705078V20.9539H192.659V5.27293H192.54L188.012 8.04133V3.80964L193.005 0.705078L197.543 0.705078Z" fill="white"/>
<path d="M175.423 21.4483C173.656 21.4483 172.133 21.0297 170.855 20.1926C169.576 19.3489 168.591 18.1394 167.898 16.564C167.206 14.9821 166.864 13.0805 166.87 10.8591C166.877 8.63784 167.223 6.75269 167.908 5.20371C168.6 3.64813 169.583 2.46497 170.855 1.65423C172.133 0.836891 173.656 0.428223 175.423 0.428223C177.189 0.428223 178.712 0.836891 179.99 1.65423C181.276 2.46497 182.264 3.64813 182.957 5.20371C183.649 6.75928 183.991 8.64443 183.985 10.8591C183.985 13.087 183.639 14.992 182.947 16.5739C182.255 18.1558 181.269 19.3654 179.99 20.2025C178.718 21.033 177.196 21.4483 175.423 21.4483ZM175.423 17.444C176.477 17.444 177.331 16.9068 177.983 15.8324C178.636 14.7514 178.959 13.0936 178.952 10.8591C178.952 9.39585 178.804 8.18962 178.507 7.24046C178.211 6.2847 177.799 5.57283 177.271 5.10484C176.744 4.63684 176.128 4.40285 175.423 4.40285C174.375 4.40285 173.528 4.93346 172.882 5.99468C172.236 7.0493 171.909 8.67079 171.903 10.8591C171.896 12.3422 172.038 13.5715 172.328 14.547C172.625 15.5226 173.04 16.2509 173.574 16.7321C174.108 17.2067 174.724 17.444 175.423 17.444Z" fill="white"/>
<path d="M155.244 0.705078V20.9539L151.091 20.9539L143.033 9.26733H142.905V20.9539H138.011V0.705078L142.223 0.705078L150.192 12.3719H150.36V0.705078L155.244 0.705078Z" fill="white"/>
<path d="M133.761 10.8295C133.761 13.0574 133.333 14.9458 132.476 16.4948C131.619 18.0438 130.459 19.2204 128.995 20.0245C127.539 20.8287 125.904 21.2307 124.091 21.2307C122.272 21.2307 120.634 20.8254 119.177 20.0146C117.721 19.2039 116.564 18.0273 115.707 16.4849C114.857 14.9359 114.432 13.0508 114.432 10.8295C114.432 8.60158 114.857 6.71314 115.707 5.16416C116.564 3.61517 117.721 2.43861 119.177 1.63445C120.634 0.830299 122.272 0.428223 124.091 0.428223C125.904 0.428223 127.539 0.830299 128.995 1.63445C130.459 2.43861 131.619 3.61517 132.476 5.16416C133.333 6.71314 133.761 8.60158 133.761 10.8295ZM128.758 10.8295C128.758 9.5112 128.57 8.39725 128.195 7.48763C127.825 6.57802 127.292 5.88921 126.593 5.42122C125.901 4.95323 125.067 4.71924 124.091 4.71924C123.122 4.71924 122.289 4.95323 121.59 5.42122C120.891 5.88921 120.354 6.57802 119.978 7.48763C119.609 8.39725 119.425 9.5112 119.425 10.8295C119.425 12.1478 119.609 13.2617 119.978 14.1713C120.354 15.081 120.891 15.7698 121.59 16.2377C122.289 16.7057 123.122 16.9397 124.091 16.9397C125.067 16.9397 125.901 16.7057 126.593 16.2377C127.292 15.7698 127.825 15.081 128.195 14.1713C128.57 13.2617 128.758 12.1478 128.758 10.8295Z" fill="white"/>
<path d="M105.822 6.77576C105.756 6.0507 105.463 5.48714 104.942 5.08506C104.428 4.67639 103.693 4.47206 102.738 4.47206C102.105 4.47206 101.577 4.55445 101.156 4.71924C100.734 4.88402 100.417 5.11143 100.206 5.40145C99.9955 5.68488 99.8868 6.01116 99.8802 6.38028C99.867 6.68348 99.9263 6.95043 100.058 7.18113C100.197 7.41183 100.394 7.61617 100.651 7.79414C100.915 7.96551 101.231 8.11711 101.601 8.24894C101.97 8.38077 102.385 8.49612 102.846 8.59499L104.586 8.99048C105.588 9.208 106.472 9.49802 107.236 9.86055C108.007 10.2231 108.653 10.6548 109.174 11.1558C109.701 11.6567 110.1 12.2335 110.37 12.886C110.641 13.5386 110.779 14.2702 110.786 15.081C110.779 16.3597 110.456 17.4572 109.817 18.3734C109.177 19.2896 108.258 19.9916 107.058 20.4793C105.865 20.9671 104.425 21.211 102.738 21.211C101.044 21.211 99.5671 20.9572 98.3081 20.4497C97.0492 19.9421 96.0703 19.1709 95.3716 18.1361C94.673 17.1012 94.3137 15.7928 94.2939 14.2109H98.9804C99.02 14.8634 99.1947 15.4072 99.5045 15.8423C99.8143 16.2773 100.239 16.6069 100.78 16.831C101.327 17.0551 101.96 17.1671 102.678 17.1671C103.337 17.1671 103.898 17.0781 104.359 16.9002C104.827 16.7222 105.186 16.475 105.437 16.1586C105.687 15.8423 105.816 15.4797 105.822 15.0711C105.816 14.6888 105.697 14.3625 105.466 14.0922C105.236 13.8154 104.88 13.5781 104.399 13.3804C103.924 13.176 103.318 12.9882 102.579 12.8168L100.464 12.3224C98.7102 11.9204 97.3293 11.2711 96.3208 10.3747C95.3123 9.47165 94.8114 8.25224 94.818 6.71644C94.8114 5.46407 95.1475 4.3666 95.8265 3.42402C96.5054 2.48145 97.4446 1.74651 98.6443 1.21919C99.8439 0.69188 101.212 0.428223 102.747 0.428223C104.316 0.428223 105.677 0.695175 106.831 1.22908C107.991 1.75639 108.891 2.49793 109.53 3.45369C110.169 4.40944 110.496 5.5168 110.509 6.77576L105.822 6.77576Z" fill="white"/>
<path d="M77.0109 20.9539H71.751L78.583 0.705078L85.0986 0.705078L91.9306 20.9539L86.6707 20.9539L81.9149 5.80684H81.7568L77.0109 20.9539ZM76.3089 12.9849L87.3034 12.9849V16.7025H76.3089V12.9849Z" fill="white"/>
<path d="M54.0547 20.9539V0.705078L68.1735 0.705078V4.6797L58.9488 4.6797V8.8323L67.4518 8.8323V12.8168L58.9488 12.8168V16.9793H68.1735V20.9539H54.0547Z" fill="white"/>
<path d="M45.2276 6.77576C45.1617 6.0507 44.8684 5.48714 44.3477 5.08506C43.8335 4.67639 43.0986 4.47206 42.1428 4.47206C41.5101 4.47206 40.9827 4.55445 40.5609 4.71924C40.139 4.88402 39.8226 5.11143 39.6117 5.40145C39.4008 5.68488 39.292 6.01116 39.2854 6.38028C39.2723 6.68348 39.3316 6.95043 39.4634 7.18113C39.6018 7.41183 39.7996 7.61617 40.0566 7.79414C40.3203 7.96551 40.6367 8.11711 41.0058 8.24894C41.3749 8.38077 41.7902 8.49612 42.2516 8.59499L43.9917 8.99048C44.9936 9.208 45.8769 9.49802 46.6415 9.86055C47.4127 10.2231 48.0586 10.6548 48.5794 11.1558C49.1067 11.6567 49.5054 12.2335 49.7757 12.886C50.0459 13.5386 50.1844 14.2702 50.191 15.081C50.1844 16.3597 49.8614 17.4572 49.222 18.3734C48.5826 19.2896 47.6631 19.9916 46.4635 20.4793C45.2705 20.9671 43.8302 21.211 42.1428 21.211C40.4488 21.211 38.9724 20.9572 37.7134 20.4497C36.4544 19.9421 35.4756 19.1709 34.7769 18.1361C34.0782 17.1012 33.719 15.7928 33.6992 14.2109H38.3857C38.4253 14.8634 38.5999 15.4072 38.9097 15.8423C39.2195 16.2773 39.6447 16.6069 40.1852 16.831C40.7323 17.0551 41.365 17.1671 42.0835 17.1671C42.7426 17.1671 43.3029 17.0781 43.7643 16.9002C44.2323 16.7222 44.5915 16.475 44.842 16.1586C45.0925 15.8423 45.221 15.4797 45.2276 15.0711C45.221 14.6888 45.1024 14.3625 44.8717 14.0922C44.641 13.8154 44.285 13.5781 43.8039 13.3804C43.3293 13.176 42.7229 12.9882 41.9846 12.8168L39.8688 12.3224C38.1155 11.9204 36.7346 11.2711 35.7261 10.3747C34.7176 9.47165 34.2166 8.25224 34.2232 6.71644C34.2166 5.46407 34.5528 4.3666 35.2317 3.42402C35.9106 2.48145 36.8499 1.74651 38.0496 1.21919C39.2492 0.69188 40.6169 0.428223 42.1527 0.428223C43.7215 0.428223 45.0826 0.695175 46.2361 1.22908C47.3962 1.75639 48.2959 2.49793 48.9353 3.45369C49.5747 4.40944 49.9009 5.5168 49.9141 6.77576L45.2276 6.77576Z" fill="white"/>
<path d="M224.355 45.0013C224.44 44.0622 224.212 43.327 223.672 42.7958C223.131 42.255 222.22 41.9847 220.94 41.9847C220.124 41.9847 219.441 42.0796 218.891 42.2693C218.35 42.459 217.928 42.7199 217.624 43.0519C217.33 43.3839 217.145 43.7681 217.069 44.2045C216.984 44.546 216.989 44.859 217.083 45.1436C217.188 45.4187 217.382 45.6701 217.667 45.8978C217.961 46.1254 218.345 46.3294 218.819 46.5096C219.303 46.6899 219.877 46.8511 220.541 46.9934L222.818 47.5057C224.374 47.8472 225.678 48.2978 226.731 48.8575C227.793 49.4077 228.628 50.0622 229.235 50.8211C229.842 51.58 230.241 52.4291 230.431 53.3682C230.63 54.3073 230.635 55.3318 230.445 56.4417C230.122 58.358 229.378 59.9801 228.211 61.3082C227.044 62.6363 225.521 63.6465 223.643 64.339C221.765 65.0315 219.593 65.3778 217.126 65.3778C214.603 65.3778 212.459 65.0031 210.694 64.2537C208.939 63.4948 207.668 62.3374 206.881 60.7817C206.103 59.2165 205.913 57.2196 206.312 54.7911H213.825C213.711 55.6828 213.806 56.4322 214.109 57.0394C214.413 57.6465 214.902 58.1066 215.575 58.4196C216.249 58.7327 217.088 58.8892 218.094 58.8892C218.947 58.8892 219.678 58.7848 220.285 58.5761C220.892 58.3674 221.371 58.0781 221.722 57.7082C222.073 57.3382 222.287 56.916 222.363 56.4417C222.438 56.0054 222.363 55.6164 222.135 55.2749C221.907 54.9334 221.495 54.6251 220.897 54.35C220.299 54.0749 219.479 53.8235 218.435 53.5959L215.646 52.9698C213.17 52.4006 211.302 51.4615 210.04 50.1524C208.778 48.8432 208.332 47.0503 208.702 44.7736C209.006 42.9143 209.77 41.2922 210.993 39.9072C212.226 38.5127 213.792 37.4313 215.689 36.6629C217.596 35.885 219.706 35.4961 222.021 35.4961C224.374 35.4961 226.342 35.8898 227.926 36.6771C229.52 37.4645 230.663 38.5696 231.356 39.9926C232.057 41.4155 232.247 43.0851 231.925 45.0013H224.355Z" fill="#A3A1E2"/>
<path d="M179.216 65.0363L184.054 35.8945H205.056L203.975 42.2693H190.884L190.087 47.278H202.097L201.015 53.6528H189.006L188.209 58.6615H201.243L200.161 65.0363H179.216Z" fill="#A3A1E2"/>
<path d="M153.465 42.2693L154.546 35.8945H179.875L178.793 42.2693H170.028L166.271 65.0363H158.474L162.23 42.2693H153.465Z" fill="#A3A1E2"/>
<path d="M128.66 65.0363H120.122L134.579 35.8945H145.393L150.175 65.0363H141.637L138.791 43.9199H138.563L128.66 65.0363ZM129.001 53.539H145.052L144.027 59.4584H127.977L129.001 53.539Z" fill="#A3A1E2"/>
<path d="M92.7305 65.0363L97.5685 35.8945H110.147C112.31 35.8945 114.136 36.2882 115.626 37.0756C117.115 37.8629 118.187 38.9965 118.841 40.4764C119.496 41.9562 119.652 43.7302 119.311 45.7982C118.969 47.8852 118.215 49.6449 117.048 51.0773C115.891 52.5002 114.416 53.5816 112.623 54.3216C110.84 55.052 108.838 55.4172 106.618 55.4172H99.1052L100.13 49.2701H106.049C106.979 49.2701 107.795 49.1563 108.497 48.9286C109.199 48.6915 109.768 48.3215 110.204 47.8188C110.641 47.3065 110.925 46.633 111.058 45.7982C111.191 44.9634 111.124 44.2851 110.859 43.7634C110.593 43.2321 110.152 42.8432 109.535 42.5966C108.919 42.3404 108.155 42.2124 107.244 42.2124H104.455L100.642 65.0363H92.7305ZM112.026 51.6607L117.091 65.0363H108.497L103.602 51.6607H112.026Z" fill="#A3A1E2"/>
<path d="M90.9268 46.8227H83.0153C83.0722 46.1492 83.0342 45.542 82.9014 45.0013C82.7686 44.4606 82.5409 43.9958 82.2184 43.6068C81.8959 43.2084 81.4737 42.9049 80.952 42.6962C80.4303 42.4875 79.8089 42.3831 79.0879 42.3831C77.703 42.3831 76.465 42.7294 75.3741 43.4219C74.2832 44.1049 73.3772 45.0867 72.6563 46.3673C71.9353 47.6385 71.4231 49.1563 71.1195 50.9207C70.8539 52.6283 70.8444 54.0465 71.091 55.1753C71.3472 56.3042 71.8452 57.1485 72.5851 57.7082C73.3345 58.2678 74.3069 58.5477 75.5021 58.5477C76.299 58.5477 77.0294 58.4528 77.6935 58.2631C78.367 58.0734 78.9646 57.803 79.4864 57.452C80.0176 57.0915 80.4682 56.6647 80.8382 56.1714C81.2176 55.6686 81.5069 55.1137 81.7062 54.5065H89.6746C89.371 55.7398 88.8303 57.0014 88.0525 58.2916C87.2746 59.5722 86.269 60.7532 85.0358 61.8347C83.8026 62.9066 82.3512 63.7746 80.6816 64.4386C79.0121 65.1027 77.1338 65.4347 75.0468 65.4347C72.3148 65.4347 69.9574 64.8371 67.9748 63.6418C66.0017 62.4465 64.5692 60.7011 63.6775 58.4054C62.7953 56.1097 62.6198 53.3113 63.151 50.0101C63.6823 46.8227 64.7305 44.1523 66.2957 41.9989C67.861 39.8455 69.763 38.2234 72.0017 37.1325C74.2405 36.0416 76.6215 35.4961 79.1449 35.4961C81.0516 35.4961 82.7591 35.7475 84.2674 36.2502C85.7852 36.753 87.0611 37.4882 88.0951 38.4558C89.1386 39.4139 89.907 40.595 90.4003 41.9989C90.8936 43.4029 91.0691 45.0108 90.9268 46.8227Z" fill="#A3A1E2"/>
<path d="M58.2037 50.9777C57.6725 54.1461 56.6195 56.8022 55.0448 58.9461C53.4701 61.09 51.5586 62.7074 49.3103 63.7983C47.0621 64.8892 44.6573 65.4347 42.096 65.4347C39.364 65.4347 36.9924 64.8418 34.9813 63.656C32.9703 62.4702 31.5046 60.7343 30.5845 58.4481C29.6643 56.1619 29.4793 53.3682 30.0295 50.067C30.5418 46.8986 31.5853 44.2329 33.16 42.0701C34.7347 39.9072 36.6557 38.2708 38.9229 37.1609C41.1901 36.051 43.6138 35.4961 46.1941 35.4961C48.9072 35.4961 51.2645 36.0937 53.2661 37.289C55.2772 38.4843 56.7381 40.2345 57.6487 42.5396C58.5689 44.8448 58.7539 47.6575 58.2037 50.9777ZM50.2352 50.067C50.5009 48.3974 50.5198 46.9934 50.2922 45.8551C50.0645 44.7072 49.5854 43.844 48.855 43.2653C48.1245 42.6772 47.1427 42.3831 45.9095 42.3831C44.5055 42.3831 43.2628 42.7246 42.1814 43.4076C41.1 44.0906 40.2035 45.0725 39.4921 46.3531C38.7806 47.6338 38.2826 49.1753 37.998 50.9777C37.6944 52.6662 37.666 54.0702 37.9126 55.1896C38.1687 56.3089 38.6715 57.1485 39.4209 57.7082C40.1798 58.2678 41.1664 58.5477 42.3806 58.5477C43.7656 58.5477 44.9893 58.2157 46.0518 57.5516C47.1237 56.8876 48.0107 55.9247 48.7127 54.6631C49.4242 53.4014 49.9317 51.8694 50.2352 50.067Z" fill="#A3A1E2"/>
<path d="M18.7599 45.0013C18.8453 44.0622 18.6176 43.327 18.0769 42.7958C17.5362 42.255 16.6255 41.9847 15.3449 41.9847C14.5291 41.9847 13.846 42.0796 13.2958 42.2693C12.7551 42.459 12.333 42.7199 12.0294 43.0519C11.7354 43.3839 11.5504 43.7681 11.4745 44.2045C11.3891 44.546 11.3938 44.859 11.4887 45.1436C11.5931 45.4187 11.7875 45.6701 12.0721 45.8978C12.3662 46.1254 12.7504 46.3294 13.2247 46.5096C13.7085 46.6899 14.2824 46.8511 14.9464 46.9934L17.2232 47.5057C18.7789 47.8472 20.0833 48.2978 21.1362 48.8575C22.1987 49.4077 23.0335 50.0622 23.6406 50.8211C24.2477 51.58 24.6461 52.4291 24.8359 53.3682C25.0351 54.3073 25.0398 55.3318 24.8501 56.4417C24.5276 58.358 23.7829 59.9801 22.6161 61.3082C21.4493 62.6363 19.9267 63.6465 18.0485 64.339C16.1702 65.0315 13.9978 65.3778 11.5314 65.3778C9.00806 65.3778 6.86416 65.0031 5.09972 64.2537C3.34476 63.4948 2.07361 62.3374 1.28625 60.7817C0.508375 59.2165 0.31865 57.2196 0.717073 54.7911H8.23018C8.11635 55.6828 8.21121 56.4322 8.51477 57.0394C8.81833 57.6465 9.30687 58.1066 9.9804 58.4196C10.6539 58.7327 11.4935 58.8892 12.499 58.8892C13.3528 58.8892 14.0832 58.7848 14.6903 58.5761C15.2974 58.3674 15.7765 58.0781 16.1275 57.7082C16.4785 57.3382 16.6919 56.916 16.7678 56.4417C16.8437 56.0054 16.7678 55.6164 16.5401 55.2749C16.3125 54.9334 15.8998 54.6251 15.3022 54.35C14.7045 54.0749 13.884 53.8235 12.8405 53.5959L10.0515 52.9698C7.57563 52.4006 5.70684 51.4615 4.44517 50.1524C3.1835 48.8432 2.73764 47.0503 3.10761 44.7736C3.41117 42.9143 4.17481 41.2922 5.39854 39.9072C6.63175 38.5127 8.19698 37.4313 10.0942 36.6629C12.001 35.885 14.1117 35.4961 16.4263 35.4961C18.7789 35.4961 20.7473 35.8898 22.3315 36.6771C23.9252 37.4645 25.0683 38.5696 25.7608 39.9926C26.4628 41.4155 26.6525 43.0851 26.33 45.0013H18.7599Z" fill="#A3A1E2"/>
<path d="M226.86 42.4964C226.945 41.5573 226.717 40.8221 226.177 40.2909C225.636 39.7502 224.725 39.4798 223.444 39.4798C222.629 39.4798 221.946 39.5747 221.395 39.7644C220.855 39.9541 220.433 40.215 220.129 40.547C219.835 40.879 219.65 41.2632 219.574 41.6996C219.489 42.0411 219.493 42.3541 219.588 42.6387C219.693 42.9138 219.887 43.1652 220.172 43.3929C220.466 43.6206 220.85 43.8245 221.324 44.0047C221.808 44.185 222.382 44.3463 223.046 44.4885L225.323 45.0008C226.879 45.3423 228.183 45.7929 229.236 46.3526C230.298 46.9028 231.133 47.5574 231.74 48.3162C232.347 49.0751 232.746 49.9242 232.935 50.8633C233.135 51.8024 233.139 52.827 232.95 53.9369C232.627 55.8531 231.882 57.4752 230.716 58.8033C229.549 60.1314 228.026 61.1417 226.148 61.8342C224.27 62.5267 222.097 62.8729 219.631 62.8729C217.108 62.8729 214.964 62.4982 213.199 61.7488C211.444 60.9899 210.173 59.8326 209.386 58.2768C208.608 56.7116 208.418 54.7147 208.817 52.2862H216.33C216.216 53.178 216.311 53.9274 216.614 54.5345C216.918 55.1416 217.406 55.6017 218.08 55.9147C218.754 56.2278 219.593 56.3843 220.599 56.3843C221.452 56.3843 222.183 56.28 222.79 56.0713C223.397 55.8626 223.876 55.5732 224.227 55.2033C224.578 54.8333 224.792 54.4112 224.867 53.9369C224.943 53.5005 224.867 53.1115 224.64 52.77C224.412 52.4285 223.999 52.1202 223.402 51.8451C222.804 51.57 221.984 51.3186 220.94 51.091L218.151 50.4649C215.675 49.8957 213.806 48.9566 212.545 47.6475C211.283 46.3384 210.837 44.5455 211.207 42.2688C211.511 40.4095 212.274 38.7873 213.498 37.4023C214.731 36.0078 216.297 34.9264 218.194 34.158C220.101 33.3801 222.211 32.9912 224.526 32.9912C226.879 32.9912 228.847 33.3849 230.431 34.1722C232.025 34.9596 233.168 36.0648 233.86 37.4877C234.562 38.9106 234.752 40.5802 234.43 42.4964H226.86Z" fill="#72719E"/>
<path d="M181.721 62.5314L186.559 33.3896H207.561L206.48 39.7644H193.389L192.592 44.7731H204.602L203.52 51.1479H191.511L190.714 56.1567H203.748L202.666 62.5314H181.721Z" fill="#72719E"/>
<path d="M155.97 39.7644L157.051 33.3896H182.379L181.298 39.7644H172.533L168.776 62.5314H160.978L164.735 39.7644H155.97Z" fill="#72719E"/>
<path d="M131.165 62.5314H122.627L137.084 33.3896H147.898L152.679 62.5314H144.142L141.296 41.415H141.068L131.165 62.5314ZM131.506 51.0341H147.557L146.532 56.9535H130.482L131.506 51.0341Z" fill="#72719E"/>
<path d="M95.2354 62.5314L100.073 33.3896H112.652C114.815 33.3896 116.641 33.7833 118.13 34.5707C119.62 35.358 120.692 36.4917 121.346 37.9715C122.001 39.4514 122.157 41.2253 121.816 43.2933C121.474 45.3803 120.72 47.14 119.553 48.5724C118.396 49.9953 116.921 51.0768 115.128 51.8167C113.345 52.5471 111.343 52.9124 109.123 52.9124H101.61L102.635 46.7653H108.554C109.484 46.7653 110.3 46.6514 111.002 46.4238C111.703 46.1866 112.273 45.8166 112.709 45.3139C113.145 44.8016 113.43 44.1281 113.563 43.2933C113.696 42.4585 113.629 41.7802 113.364 41.2585C113.098 40.7273 112.657 40.3383 112.04 40.0917C111.424 39.8356 110.66 39.7075 109.749 39.7075H106.96L103.147 62.5314H95.2354ZM114.53 49.1558L119.596 62.5314H111.002L106.107 49.1558H114.53Z" fill="#72719E"/>
<path d="M93.4317 44.3178H85.5201C85.5771 43.6443 85.5391 43.0372 85.4063 42.4964C85.2735 41.9557 85.0458 41.4909 84.7233 41.102C84.4008 40.7035 83.9786 40.4 83.4569 40.1913C82.9351 39.9826 82.3138 39.8782 81.5928 39.8782C80.2078 39.8782 78.9699 40.2245 77.879 40.917C76.788 41.6 75.8821 42.5818 75.1612 43.8625C74.4402 45.1336 73.9279 46.6514 73.6244 48.4159C73.3588 50.1234 73.3493 51.5416 73.5959 52.6704C73.852 53.7993 74.3501 54.6436 75.09 55.2033C75.8394 55.763 76.8118 56.0428 78.007 56.0428C78.8039 56.0428 79.5343 55.9479 80.1984 55.7582C80.8719 55.5685 81.4695 55.2981 81.9913 54.9471C82.5225 54.5867 82.9731 54.1598 83.343 53.6665C83.7225 53.1637 84.0118 52.6088 84.211 52.0017H92.1795C91.8759 53.2349 91.3352 54.4965 90.5573 55.7867C89.7795 57.0673 88.7739 58.2484 87.5407 59.3298C86.3075 60.4017 84.8561 61.2697 83.1865 61.9338C81.5169 62.5978 79.6387 62.9298 77.5517 62.9298C74.8197 62.9298 72.4623 62.3322 70.4797 61.1369C68.5065 59.9417 67.0741 58.1962 66.1824 55.9005C65.3002 53.6048 65.1247 50.8064 65.6559 47.5052C66.1872 44.3178 67.2354 41.6474 68.8006 39.494C70.3659 37.3407 72.2678 35.7185 74.5066 34.6276C76.7454 33.5367 79.1264 32.9912 81.6497 32.9912C83.5565 32.9912 85.264 33.2426 86.7723 33.7454C88.2901 34.2481 89.566 34.9833 90.6 35.9509C91.6435 36.909 92.4119 38.0901 92.9052 39.494C93.3985 40.898 93.574 42.5059 93.4317 44.3178Z" fill="#72719E"/>
<path d="M60.7086 48.4728C60.1773 51.6412 59.1244 54.2973 57.5497 56.4412C55.9749 58.5851 54.0635 60.2025 51.8152 61.2934C49.567 62.3844 47.1622 62.9298 44.6009 62.9298C41.8689 62.9298 39.4973 62.3369 37.4862 61.1511C35.4751 59.9654 34.0095 58.2294 33.0894 55.9432C32.1692 53.657 31.9842 50.8633 32.5344 47.5621C33.0467 44.3937 34.0902 41.728 35.6649 39.5652C37.2396 37.4023 39.1606 35.7659 41.4278 34.656C43.695 33.5462 46.1187 32.9912 48.699 32.9912C51.412 32.9912 53.7694 33.5888 55.771 34.7841C57.7821 35.9794 59.2429 37.7296 60.1536 40.0348C61.0738 42.3399 61.2588 45.1526 60.7086 48.4728ZM52.7401 47.5621C53.0057 45.8925 53.0247 44.4885 52.797 43.3502C52.5694 42.2024 52.0903 41.3391 51.3599 40.7605C50.6294 40.1723 49.6476 39.8782 48.4144 39.8782C47.0104 39.8782 45.7677 40.2197 44.6863 40.9027C43.6049 41.5858 42.7084 42.5676 41.9969 43.8482C41.2855 45.1289 40.7874 46.6704 40.5029 48.4728C40.1993 50.1613 40.1708 51.5653 40.4175 52.6847C40.6736 53.804 41.1764 54.6436 41.9258 55.2033C42.6847 55.763 43.6713 56.0428 44.8855 56.0428C46.2705 56.0428 47.4942 55.7108 48.5567 55.0467C49.6286 54.3827 50.5156 53.4199 51.2176 52.1582C51.9291 50.8965 52.4366 49.3645 52.7401 47.5621Z" fill="#72719E"/>
<path d="M21.2648 42.4964C21.3502 41.5573 21.1225 40.8221 20.5818 40.2909C20.0411 39.7502 19.1304 39.4798 17.8498 39.4798C17.0339 39.4798 16.3509 39.5747 15.8007 39.7644C15.26 39.9541 14.8379 40.215 14.5343 40.547C14.2402 40.879 14.0553 41.2632 13.9794 41.6996C13.894 42.0411 13.8987 42.3541 13.9936 42.6387C14.0979 42.9138 14.2924 43.1652 14.577 43.3929C14.8711 43.6206 15.2553 43.8245 15.7296 44.0047C16.2134 44.185 16.7873 44.3463 17.4513 44.4885L19.728 45.0008C21.2838 45.3423 22.5881 45.7929 23.6411 46.3526C24.7036 46.9028 25.5384 47.5574 26.1455 48.3162C26.7526 49.0751 27.151 49.9242 27.3407 50.8633C27.54 51.8024 27.5447 52.827 27.355 53.9369C27.0324 55.8531 26.2878 57.4752 25.121 58.8033C23.9542 60.1314 22.4316 61.1417 20.5533 61.8342C18.6751 62.5267 16.5027 62.8729 14.0363 62.8729C11.5129 62.8729 9.36905 62.4982 7.6046 61.7488C5.84965 60.9899 4.57849 59.8326 3.79113 58.2768C3.01326 56.7116 2.82353 54.7147 3.22196 52.2862H10.7351C10.6212 53.178 10.7161 53.9274 11.0197 54.5345C11.3232 55.1416 11.8118 55.6017 12.4853 55.9147C13.1588 56.2278 13.9983 56.3843 15.0039 56.3843C15.8576 56.3843 16.5881 56.28 17.1952 56.0713C17.8023 55.8626 18.2814 55.5732 18.6324 55.2033C18.9834 54.8333 19.1968 54.4112 19.2727 53.9369C19.3486 53.5005 19.2727 53.1115 19.045 52.77C18.8174 52.4285 18.4047 52.1202 17.8071 51.8451C17.2094 51.57 16.3889 51.3186 15.3454 51.091L12.5564 50.4649C10.0805 49.8957 8.21172 48.9566 6.95005 47.6475C5.68838 46.3384 5.24253 44.5455 5.61249 42.2688C5.91605 40.4095 6.67969 38.7873 7.90342 37.4023C9.13663 36.0078 10.7019 34.9264 12.5991 34.158C14.5058 33.3801 16.6165 32.9912 18.9312 32.9912C21.2838 32.9912 23.2522 33.3849 24.8364 34.1722C26.4301 34.9596 27.5732 36.0648 28.2657 37.4877C28.9676 38.9106 29.1574 40.5802 28.8348 42.4964H21.2648Z" fill="#72719E"/>
<path d="M227.217 42.139C227.302 41.1999 227.075 40.4647 226.534 39.9335C225.993 39.3927 225.083 39.1224 223.802 39.1224C222.986 39.1224 222.303 39.2172 221.753 39.407C221.212 39.5967 220.79 39.8576 220.486 40.1896C220.192 40.5216 220.007 40.9058 219.932 41.3422C219.846 41.6837 219.851 41.9967 219.946 42.2813C220.05 42.5564 220.245 42.8078 220.529 43.0355C220.823 43.2631 221.207 43.4671 221.682 43.6473C222.166 43.8276 222.739 43.9888 223.403 44.1311L225.68 44.6434C227.236 44.9849 228.54 45.4355 229.593 45.9952C230.656 46.5454 231.491 47.1999 232.098 47.9588C232.705 48.7177 233.103 49.5667 233.293 50.5059C233.492 51.445 233.497 52.4695 233.307 53.5794C232.985 55.4957 232.24 57.1178 231.073 58.4459C229.906 59.774 228.384 60.7842 226.505 61.4767C224.627 62.1692 222.455 62.5155 219.988 62.5155C217.465 62.5155 215.321 62.1408 213.557 61.3914C211.802 60.6325 210.531 59.4751 209.743 57.9194C208.965 56.3542 208.776 54.3573 209.174 51.9288H216.687C216.573 52.8205 216.668 53.5699 216.972 54.1771C217.275 54.7842 217.764 55.2443 218.437 55.5573C219.111 55.8704 219.95 56.0269 220.956 56.0269C221.81 56.0269 222.54 55.9225 223.147 55.7138C223.754 55.5051 224.234 55.2158 224.585 54.8458C224.936 54.4759 225.149 54.0537 225.225 53.5794C225.301 53.1431 225.225 52.7541 224.997 52.4126C224.769 52.0711 224.357 51.7628 223.759 51.4877C223.162 51.2126 222.341 50.9612 221.298 50.7336L218.509 50.1075C216.033 49.5383 214.164 48.5991 212.902 47.29C211.641 45.9809 211.195 44.188 211.565 41.9113C211.868 40.052 212.632 38.4299 213.856 37.0449C215.089 35.6504 216.654 34.569 218.551 33.8006C220.458 33.0227 222.569 32.6338 224.883 32.6338C227.236 32.6338 229.204 33.0275 230.789 33.8148C232.382 34.6022 233.525 35.7073 234.218 37.1303C234.92 38.5532 235.11 40.2228 234.787 42.139H227.217Z" fill="white"/>
<path d="M182.078 62.174L186.916 33.0322H207.919L206.837 39.407H193.746L192.949 44.4157H204.959L203.878 50.7905H191.868L191.071 55.7992H204.105L203.024 62.174H182.078Z" fill="white"/>
<path d="M156.327 39.407L157.409 33.0322H182.737L181.655 39.407H172.89L169.134 62.174H161.336L165.092 39.407H156.327Z" fill="white"/>
<path d="M131.522 62.174H122.984L137.441 33.0322H148.256L153.037 62.174H144.499L141.653 41.0576H141.426L131.522 62.174ZM131.864 50.6767H147.914L146.89 56.5961H130.839L131.864 50.6767Z" fill="white"/>
<path d="M95.5928 62.174L100.431 33.0322H113.01C115.172 33.0322 116.999 33.4259 118.488 34.2133C119.977 35.0006 121.049 36.1342 121.704 37.6141C122.358 39.0939 122.515 40.8679 122.173 42.9359C121.832 45.0228 121.078 46.7825 119.911 48.215C118.753 49.6379 117.278 50.7193 115.485 51.4593C113.702 52.1897 111.7 52.5549 109.481 52.5549H101.968L102.992 46.4078H108.911C109.841 46.4078 110.657 46.294 111.359 46.0663C112.061 45.8292 112.63 45.4592 113.066 44.9564C113.503 44.4442 113.787 43.7707 113.92 42.9359C114.053 42.1011 113.987 41.4228 113.721 40.9011C113.455 40.3698 113.014 39.9809 112.398 39.7343C111.781 39.4781 111.017 39.3501 110.107 39.3501H107.318L103.504 62.174H95.5928ZM114.888 48.7984L119.953 62.174H111.359L106.464 48.7984H114.888Z" fill="white"/>
<path d="M93.7891 43.9604H85.8776C85.9345 43.2868 85.8965 42.6797 85.7637 42.139C85.6309 41.5983 85.4032 41.1335 85.0807 40.7445C84.7582 40.3461 84.336 40.0426 83.8143 39.8339C83.2926 39.6252 82.6712 39.5208 81.9503 39.5208C80.5653 39.5208 79.3273 39.8671 78.2364 40.5596C77.1455 41.2426 76.2395 42.2244 75.5186 43.505C74.7976 44.7762 74.2854 46.294 73.9818 48.0584C73.7162 49.766 73.7067 51.1842 73.9533 52.313C74.2095 53.4419 74.7075 54.2862 75.4474 54.8458C76.1968 55.4055 77.1692 55.6854 78.3645 55.6854C79.1613 55.6854 79.8917 55.5905 80.5558 55.4008C81.2293 55.2111 81.8269 54.9407 82.3487 54.5897C82.8799 54.2292 83.3305 53.8024 83.7005 53.3091C84.0799 52.8063 84.3692 52.2514 84.5685 51.6442H92.5369C92.2334 52.8774 91.6926 54.1391 90.9148 55.4293C90.1369 56.7099 89.1313 57.8909 87.8981 58.9724C86.6649 60.0443 85.2135 60.9123 83.5439 61.5763C81.8744 62.2404 79.9961 62.5724 77.9091 62.5724C75.1771 62.5724 72.8197 61.9748 70.8371 60.7795C68.864 59.5842 67.4315 57.8388 66.5398 55.5431C65.6576 53.2474 65.4821 50.449 66.0134 47.1478C66.5446 43.9604 67.5928 41.29 69.158 39.1366C70.7233 36.9832 72.6253 35.3611 74.864 34.2702C77.1028 33.1792 79.4838 32.6338 82.0072 32.6338C83.9139 32.6338 85.6214 32.8852 87.1297 33.3879C88.6475 33.8907 89.9234 34.6259 90.9574 35.5935C92.0009 36.5516 92.7693 37.7326 93.2626 39.1366C93.7559 40.5406 93.9314 42.1485 93.7891 43.9604Z" fill="white"/>
<path d="M61.066 48.1154C60.5348 51.2838 59.4818 53.9399 57.9071 56.0838C56.3324 58.2277 54.4209 59.8451 52.1726 60.936C49.9244 62.0269 47.5196 62.5724 44.9583 62.5724C42.2263 62.5724 39.8547 61.9795 37.8437 60.7937C35.8326 59.6079 34.3669 57.872 33.4468 55.5858C32.5266 53.2996 32.3416 50.5059 32.8918 47.2047C33.4041 44.0363 34.4476 41.3706 36.0223 39.2078C37.597 37.0449 39.518 35.4085 41.7852 34.2986C44.0524 33.1887 46.4761 32.6338 49.0564 32.6338C51.7695 32.6338 54.1268 33.2314 56.1284 34.4267C58.1395 35.622 59.6004 37.3722 60.511 39.6773C61.4312 41.9825 61.6162 44.7952 61.066 48.1154ZM53.0975 47.2047C53.3632 45.5351 53.3821 44.1311 53.1545 42.9928C52.9268 41.8449 52.4477 40.9817 51.7173 40.403C50.9869 39.8149 50.005 39.5208 48.7718 39.5208C47.3678 39.5208 46.1252 39.8623 45.0437 40.5453C43.9623 41.2283 43.0658 42.2102 42.3544 43.4908C41.6429 44.7714 41.1449 46.313 40.8603 48.1154C40.5567 49.8039 40.5283 51.2079 40.7749 52.3272C41.031 53.4466 41.5338 54.2862 42.2832 54.8458C43.0421 55.4055 44.0287 55.6854 45.2429 55.6854C46.6279 55.6854 47.8516 55.3534 48.9141 54.6893C49.9861 54.0253 50.873 53.0624 51.575 51.8008C52.2865 50.5391 52.794 49.0071 53.0975 47.2047Z" fill="white"/>
<path d="M21.6222 42.139C21.7076 41.1999 21.4799 40.4647 20.9392 39.9335C20.3985 39.3927 19.4878 39.1224 18.2072 39.1224C17.3914 39.1224 16.7083 39.2172 16.1581 39.407C15.6174 39.5967 15.1953 39.8576 14.8917 40.1896C14.5977 40.5216 14.4127 40.9058 14.3368 41.3422C14.2514 41.6837 14.2562 41.9967 14.351 42.2813C14.4554 42.5564 14.6498 42.8078 14.9344 43.0355C15.2285 43.2631 15.6127 43.4671 16.087 43.6473C16.5708 43.8276 17.1447 43.9888 17.8088 44.1311L20.0855 44.6434C21.6412 44.9849 22.9456 45.4355 23.9985 45.9952C25.061 46.5454 25.8958 47.1999 26.5029 47.9588C27.11 48.7177 27.5084 49.5667 27.6982 50.5059C27.8974 51.445 27.9021 52.4695 27.7124 53.5794C27.3899 55.4957 26.6452 57.1178 25.4784 58.4459C24.3116 59.774 22.789 60.7842 20.9108 61.4767C19.0325 62.1692 16.8601 62.5155 14.3937 62.5155C11.8704 62.5155 9.72647 62.1408 7.96203 61.3914C6.20707 60.6325 4.93591 59.4751 4.14855 57.9194C3.37068 56.3542 3.18095 54.3573 3.57938 51.9288H11.0925C10.9787 52.8205 11.0735 53.5699 11.3771 54.1771C11.6806 54.7842 12.1692 55.2443 12.8427 55.5573C13.5162 55.8704 14.3558 56.0269 15.3613 56.0269C16.2151 56.0269 16.9455 55.9225 17.5526 55.7138C18.1597 55.5051 18.6388 55.2158 18.9898 54.8458C19.3408 54.4759 19.5542 54.0537 19.6301 53.5794C19.706 53.1431 19.6301 52.7541 19.4024 52.4126C19.1748 52.0711 18.7621 51.7628 18.1645 51.4877C17.5669 51.2126 16.7463 50.9612 15.7028 50.7336L12.9138 50.1075C10.4379 49.5383 8.56915 48.5991 7.30747 47.29C6.0458 45.9809 5.59995 44.188 5.96991 41.9113C6.27347 40.052 7.03712 38.4299 8.26084 37.0449C9.49406 35.6504 11.0593 34.569 12.9565 33.8006C14.8633 33.0227 16.974 32.6338 19.2886 32.6338C21.6412 32.6338 23.6096 33.0275 25.1938 33.8148C26.7875 34.6022 27.9306 35.7073 28.6231 37.1303C29.3251 38.5532 29.5148 40.2228 29.1923 42.139H21.6222Z" fill="white"/>
</svg>
