<svg width="38" height="38" viewBox="0 0 38 38" fill="none" xmlns="http://www.w3.org/2000/svg">
<mask id="mask0_1836_32120" style="mask-type:alpha" maskUnits="userSpaceOnUse" x="0" y="0" width="38" height="38">
<circle cx="19" cy="19" r="19" fill="white"/>
</mask>
<g mask="url(#mask0_1836_32120)">
<circle cx="19" cy="19" r="18.5" fill="#0C0C0C" stroke="white"/>
</g>
<path d="M18.8975 29V9H20.1787V29H18.8975ZM22.9053 15.2031C22.8219 14.4635 22.4782 13.8906 21.874 13.4844C21.2699 13.0729 20.5094 12.8672 19.5928 12.8672C18.9365 12.8672 18.3688 12.9714 17.8896 13.1797C17.4105 13.3828 17.0381 13.6641 16.7725 14.0234C16.512 14.3776 16.3818 14.7812 16.3818 15.2344C16.3818 15.6146 16.4704 15.9427 16.6475 16.2188C16.8298 16.4948 17.0667 16.7266 17.3584 16.9141C17.6553 17.0964 17.973 17.25 18.3115 17.375C18.6501 17.4948 18.9756 17.5938 19.2881 17.6719L20.8506 18.0781C21.361 18.2031 21.8844 18.3724 22.4209 18.5859C22.9574 18.7995 23.4548 19.0807 23.9131 19.4297C24.3714 19.7786 24.7412 20.2109 25.0225 20.7266C25.3089 21.2422 25.4521 21.8594 25.4521 22.5781C25.4521 23.4844 25.2178 24.2891 24.749 24.9922C24.2855 25.6953 23.611 26.25 22.7256 26.6563C21.8454 27.0625 20.7803 27.2656 19.5303 27.2656C18.3324 27.2656 17.2959 27.0755 16.4209 26.6953C15.5459 26.3151 14.861 25.776 14.3662 25.0781C13.8714 24.375 13.598 23.5417 13.5459 22.5781H15.9678C16.0146 23.1563 16.2021 23.638 16.5303 24.0234C16.8636 24.4036 17.2881 24.6875 17.8037 24.875C18.3245 25.0573 18.8949 25.1484 19.5146 25.1484C20.1969 25.1484 20.8037 25.0417 21.335 24.8281C21.8714 24.6094 22.2933 24.3073 22.6006 23.9219C22.9079 23.5313 23.0615 23.0755 23.0615 22.5547C23.0615 22.0807 22.9261 21.6927 22.6553 21.3906C22.3896 21.0885 22.0277 20.8385 21.5693 20.6406C21.1162 20.4427 20.6032 20.2682 20.0303 20.1172L18.1396 19.6016C16.8584 19.2526 15.8428 18.7396 15.0928 18.0625C14.348 17.3854 13.9756 16.4896 13.9756 15.375C13.9756 14.4531 14.2256 13.6484 14.7256 12.9609C15.2256 12.2734 15.9027 11.7396 16.7568 11.3594C17.611 10.974 18.5745 10.7813 19.6475 10.7813C20.7308 10.7813 21.6865 10.9714 22.5146 11.3516C23.348 11.7318 24.0042 12.2552 24.4834 12.9219C24.9626 13.5833 25.2126 14.3438 25.2334 15.2031H22.9053Z" fill="white"/>
</svg>
